<?xml version="1.0" standalone="no"?>
<!DOCTYPE svg PUBLIC "-//W3C//DTD SVG 1.1//EN" "http://www.w3.org/Graphics/SVG/1.1/DTD/svg11.dtd" >
<svg xmlns="http://www.w3.org/2000/svg">
<metadata></metadata>
<defs>
<font id="mockupregular" horiz-adv-x="1225" >
<font-face units-per-em="2048" ascent="1638" descent="-410" />
<missing-glyph horiz-adv-x="512" />
<glyph unicode="&#xfb01;" horiz-adv-x="1214" d="M100 675v100q0 43 28.5 71.5t71.5 28.5h75v150q0 450 429 450v-200q-133 0 -181 -55.5t-48 -194.5v-150h225v-200h-225v-675h-200v675h-175zM892 1239q0 49 34 83t83 34t83 -34t34 -83t-34 -83t-83 -34t-83 34t-34 83zM909 0v900q0 43 28.5 71.5t71.5 28.5h100v-1000 h-200z" />
<glyph unicode="&#xfb02;" horiz-adv-x="1204" d="M100 675v100q0 43 28.5 71.5t71.5 28.5h75v150q0 450 429 450v-200q-133 0 -181 -55.5t-48 -194.5v-150h225v-200h-225v-675h-200v675h-175zM904 0v1375q0 43 28.5 71.5t71.5 28.5h100v-1475h-200z" />
<glyph unicode="&#xfb03;" horiz-adv-x="2018" d="M100 675v100q0 43 28.5 71.5t71.5 28.5h75v150q0 450 429 450v-200q-133 0 -181 -55.5t-48 -194.5v-150h225v-200h-225v-675h-200v675h-175zM904 675v100q0 43 28.5 71.5t71.5 28.5h75v150q0 450 429 450v-200q-133 0 -181 -55.5t-48 -194.5v-150h225v-200h-225v-675 h-200v675h-175zM1696 1239q0 49 34 83t83 34t83 -34t34 -83t-34 -83t-83 -34t-83 34t-34 83zM1713 0v900q0 43 28.5 71.5t71.5 28.5h100v-1000h-200z" />
<glyph unicode="&#xfb04;" horiz-adv-x="2008" d="M100 675v100q0 43 28.5 71.5t71.5 28.5h75v150q0 450 429 450v-200q-133 0 -181 -55.5t-48 -194.5v-150h225v-200h-225v-675h-200v675h-175zM904 675v100q0 43 28.5 71.5t71.5 28.5h75v150q0 450 429 450v-200q-133 0 -181 -55.5t-48 -194.5v-150h225v-200h-225v-675 h-200v675h-175zM1708 0v1375q0 43 28.5 71.5t71.5 28.5h100v-1475h-200z" />
<glyph horiz-adv-x="2048" />
<glyph horiz-adv-x="2048" />
<glyph unicode="&#xd;" horiz-adv-x="2048" />
<glyph unicode=" "  horiz-adv-x="512" />
<glyph unicode="&#x09;" horiz-adv-x="512" />
<glyph unicode="&#xa0;" horiz-adv-x="512" />
<glyph unicode="!" horiz-adv-x="409" d="M75 105q0 49 34 83t83 34t83 -34t34 -83t-34 -83t-83 -34t-83 34t-34 83zM100 1525h200l-30 -1150h-140z" />
<glyph unicode="&#x22;" horiz-adv-x="650" d="M75 1525h200l-30 -425h-140zM350 1525h200l-30 -425h-140z" />
<glyph unicode="#" d="M100 425v195h175v255h-175v200h175v300q0 41 29.5 70.5t70.5 29.5h90v-400h295v400h190v-400h175v-200h-175v-255h175v-195h-175v-425h-190v425h-295v-425h-190v425h-175zM465 620h295v255h-295v-255z" />
<glyph unicode="$" horiz-adv-x="1179" d="M100 396q0 44 28 72t72 28h100q3 -133 101.5 -227t235.5 -94q94 0 167.5 57t73.5 143q0 55 -26 100t-69.5 77t-100 59.5t-118.5 53.5t-124.5 54.5t-119 66.5t-100 84t-69.5 113.5t-26 150.5q0 130 85 225.5t214 127.5l-15 185l199 16l16 -197q172 -33 288.5 -170.5 t116.5 -313.5h-200q-1 121 -88.5 207t-210.5 86q-79 0 -142 -47t-63 -118q0 -51 26 -92.5t69.5 -72t100 -58t119 -54.5t125 -56.5t119 -69t100 -87.5t69.5 -117.5t26 -152.5q0 -141 -95 -247t-237 -140l15 -180l-200 -16l-16 190q-184 28 -313 150t-133 264z" />
<glyph unicode="%" horiz-adv-x="1429" d="M100 1184q0 131 92 223t222 92t222.5 -92.5t92.5 -222.5t-92 -222t-223 -92q-130 0 -222 92t-92 222zM136 65l946 1352q30 42 82 42q32 0 57 -18l82 -57l-1004 -1433zM271 1184q0 -59 42 -101t101 -42t101.5 42t42.5 101t-42.5 101.5t-101.5 42.5t-101 -42.5t-42 -101.5z M700 234q0 131 92 223t222 92t222.5 -92.5t92.5 -222.5t-92 -222t-223 -92q-130 0 -222 92t-92 222zM871 234q0 -59 42 -101t101 -42t101.5 42t42.5 101t-42.5 101.5t-101.5 42.5t-101 -42.5t-42 -101.5z" />
<glyph unicode="&#x26;" horiz-adv-x="1316" d="M100 366q0 76 27 142.5t76.5 118t95 85.5t107.5 70q-42 61 -67.5 104.5t-50 115.5t-24.5 142q0 145 98 250.5t240 105.5q144 0 244 -107.5t100 -254.5q0 -130 -72.5 -236t-178.5 -180l234 -324q50 93 51 192h200q-3 -203 -125 -367l161 -223h-247l-60 84 q-163 -110 -354 -110q-116 0 -218.5 46t-169.5 137.5t-67 208.5zM300 366q0 -90 78 -140.5t180 -50.5q128 0 234 71l-269 373q-105 -61 -145 -97q-78 -71 -78 -156zM464 1143q0 -96 114 -259q168 118 168 254q0 65 -42 113.5t-102 48.5t-99 -46.5t-39 -110.5z" />
<glyph unicode="'" horiz-adv-x="375" d="M75 1525h200l-30 -425h-140z" />
<glyph unicode="(" horiz-adv-x="630" d="M100 698q0 227 62.5 466.5t175.5 423.5h242q-132 -176 -206 -417.5t-74 -472.5q0 -220 66 -461.5t182 -409.5h-236q-100 175 -156 414.5t-56 456.5z" />
<glyph unicode=")" horiz-adv-x="630" d="M100 1588h242q113 -184 175.5 -423.5t62.5 -466.5q0 -217 -56 -456.5t-156 -414.5h-236q116 168 182 409.5t66 461.5q0 231 -74 472.5t-206 417.5z" />
<glyph unicode="*" horiz-adv-x="807" d="M75 1167l37 114l237 -96l-18 255h120l-18 -255l237 96l37 -114l-248 -62l164 -196l-97 -70l-135 217l-135 -217l-97 70l164 196z" />
<glyph unicode="+" horiz-adv-x="975" d="M100 625v175h288v212q0 40 30 70t70 30h100v-312h287v-175h-287v-287h-200v287h-288z" />
<glyph unicode="," horiz-adv-x="409" d="M75 105q0 49 34 83t83 34t83 -34t34 -83q0 -174 -141 -274l-58 82q42 30 69 76q-44 5 -74 37.5t-30 78.5z" />
<glyph unicode="-" horiz-adv-x="800" d="M100 625v100q0 41 30 70.5t70 29.5h500v-200h-600z" />
<glyph unicode="." horiz-adv-x="409" d="M75 105q0 49 34 83t83 34t83 -34t34 -83t-34 -83t-83 -34t-83 34t-34 83z" />
<glyph unicode="/" horiz-adv-x="1120" d="M100 -26l697 1496q13 27 38 42t54 15q21 0 41 -9l90 -42l-739 -1586z" />
<glyph unicode="0" horiz-adv-x="1257" d="M100 749q0 122 17.5 229t57.5 204t100 166.5t151 110.5t205 41q97 0 176.5 -29t136 -82t98.5 -123.5t67 -158t36.5 -180t11.5 -195.5q0 -122 -17 -230t-56.5 -206t-99 -168t-150 -111.5t-204.5 -41.5q-116 0 -208 42.5t-151.5 114.5t-98.5 172.5t-55.5 210t-16.5 234.5z M300 748q0 -85 10 -163.5t35 -154t61.5 -131.5t94 -90t129.5 -34q88 0 153.5 49t102 132t54 177.5t17.5 199.5q0 84 -10 162t-34 153t-60.5 130t-93.5 88.5t-128 33.5q-88 0 -154 -48.5t-103.5 -130t-55.5 -175.5t-18 -198z" />
<glyph unicode="1" horiz-adv-x="1092" d="M100 1101l403 374h164v-1275h325v-200h-850v200h325v1020l-243 -253z" />
<glyph unicode="2" horiz-adv-x="1205" d="M100 0v100q0 93 26 174.5t70.5 143t102 115.5t121 98t126.5 85t120.5 82t102 83.5t70.5 95t26 111.5q0 92 -74 152.5t-166 60.5q-128 0 -224.5 -90t-97.5 -214h-200q2 135 71 251t186.5 184.5t254.5 68.5q116 0 218 -49.5t167 -145.5t65 -217q0 -99 -36.5 -181.5 t-96 -141.5t-133 -111t-151 -100t-145 -97.5t-120 -115.5t-72.5 -142h794v-200h-1005z" />
<glyph unicode="3" horiz-adv-x="1107" d="M100 455h200q1 -105 78.5 -180t184.5 -75q98 0 171 68t73 164q0 89 -62 163t-145 77v150q82 7 142 82.5t60 166.5q0 95 -70 162.5t-166 67.5q-101 0 -173.5 -72.5t-72.5 -172.5h-200q0 119 60 221.5t163 163t222 60.5q180 0 308.5 -126.5t128.5 -304.5q0 -90 -54.5 -175 t-140.5 -144q90 -58 145 -142.5t55 -176.5q0 -117 -61 -217t-163.5 -157.5t-219.5 -57.5q-188 0 -324 134.5t-139 320.5z" />
<glyph unicode="4" horiz-adv-x="1277" d="M100 381v162l727 923q31 38 79 38q40 0 70 -30t30 -70v-823h171v-200h-171v-381h-200v381h-706zM385 581h421v534z" />
<glyph unicode="5" horiz-adv-x="1232" d="M100 504h200q0 -134 95.5 -230.5t227.5 -96.5q124 0 216.5 89t92.5 212q0 134 -103.5 229t-243.5 95q-77 0 -133.5 -16.5t-86.5 -39.5t-51 -46t-42.5 -39.5t-46.5 -16.5q-41 0 -70.5 30t-29.5 70v656q0 40 29.5 70t70.5 30h832v-200h-732v-359q125 61 261 61 q145 0 270.5 -69.5t200.5 -191t75 -263.5q0 -135 -70 -251t-187.5 -183t-252.5 -67q-138 0 -258.5 71.5t-192 193t-71.5 262.5z" />
<glyph unicode="6" horiz-adv-x="1257" d="M100 741q0 123 18 230t61.5 206t109 169.5t167 112t230.5 41.5q123 -1 231 -63.5t172.5 -168t67.5 -226.5l-200 -6q-3 108 -83.5 186t-188.5 78q-95 0 -164 -28t-111.5 -75.5t-67 -125.5t-33.5 -164t-9 -204q72 88 171.5 143t201.5 55q126 0 238 -66t179 -178t67 -238 q0 -122 -63.5 -224.5t-169.5 -160t-227 -57.5q-130 0 -232.5 39t-170 106.5t-112 165t-63.5 209t-19 244.5zM326 470q23 -66 50 -114t69.5 -91.5t106 -66t145.5 -22.5q104 0 181.5 70.5t77.5 171.5q0 111 -87 196t-199 85q-242 0 -344 -229z" />
<glyph unicode="7" horiz-adv-x="1143" d="M100 1300v100q0 40 30 70t70 30h843v-151q-371 -625 -427 -1349h-201q50 686 372 1300h-687z" />
<glyph unicode="8" horiz-adv-x="1207" d="M100 383q0 52 20 101.5t47.5 85t71.5 72.5t75.5 57.5t75.5 47.5q-53 36 -88 63t-81.5 73t-71 101t-24.5 115q0 94 42 171.5t112 127t156.5 76t178.5 26.5q90 0 173 -26.5t149 -74.5t106 -123.5t40 -166.5q0 -51 -20 -100t-48.5 -85t-71 -72.5t-76 -59t-75.5 -46.5 q46 -24 82.5 -46.5t83 -58.5t77 -73.5t52 -88.5t21.5 -106q0 -94 -42.5 -171.5t-112.5 -126t-157 -74.5t-180 -26q-77 0 -150.5 16t-139.5 50t-116 81t-79.5 114.5t-29.5 146.5zM301 386q0 -70 48 -120t117 -71t148 -21q73 0 137.5 19.5t110 66t45.5 111.5q0 47 -23 89 t-54 70.5t-80.5 56t-84.5 42.5t-84 33q-47 -16 -93 -40t-89.5 -58t-70.5 -80.5t-27 -97.5zM325 1099q0 -49 24.5 -95t63.5 -80t81.5 -59t86.5 -40q53 18 100.5 42t95.5 59t76.5 83.5t28.5 103.5q0 89 -81.5 138t-186.5 49q-72 0 -135.5 -20.5t-108.5 -68t-45 -112.5z" />
<glyph unicode="9" horiz-adv-x="1257" d="M100 435l200 6q3 -108 83.5 -186t188.5 -78q95 0 164 28t111.5 75.5t67 125.5t33.5 164t9 204q-72 -88 -171.5 -143t-201.5 -55q-126 0 -238 66t-179 178t-67 238q0 122 63.5 224.5t169.5 160t227 57.5q130 0 232.5 -39t170 -106.5t112 -165t63.5 -209t19 -244.5 q0 -123 -18 -230t-61.5 -206t-109 -169.5t-167 -112t-230.5 -41.5q-123 1 -231 63.5t-172.5 168t-67.5 226.5zM301 1059q0 -111 87 -196t199 -85q242 0 344 229q-23 66 -50 114t-69.5 91.5t-106 66t-145.5 22.5q-104 0 -181.5 -70.5t-77.5 -171.5z" />
<glyph unicode=":" horiz-adv-x="409" d="M75 105q0 49 34 83t83 34t83 -34t34 -83t-34 -83t-83 -34t-83 34t-34 83zM75 880q0 49 34 83t83 34t83 -34t34 -83t-34 -83t-83 -34t-83 34t-34 83z" />
<glyph unicode=";" horiz-adv-x="409" d="M75 105q0 49 34 83t83 34t83 -34t34 -83q0 -174 -141 -274l-58 82q42 30 69 76q-44 5 -74 37.5t-30 78.5zM75 880q0 49 34 83t83 34t83 -34t34 -83t-34 -83t-83 -34t-83 34t-34 83z" />
<glyph unicode="&#x3c;" horiz-adv-x="811" d="M100 688q0 10 22 32l375 386h214l-388 -418l388 -418h-214l-375 386q-22 22 -22 32z" />
<glyph unicode="=" horiz-adv-x="975" d="M100 450v175h775v-175h-775zM100 775v100q0 41 30 70.5t70 29.5h675v-200h-775z" />
<glyph unicode="&#x3e;" horiz-adv-x="811" d="M100 270l388 418l-388 418h214l375 -386q22 -22 22 -32t-22 -32l-375 -386h-214z" />
<glyph unicode="?" horiz-adv-x="1075" d="M100 1097q3 115 63.5 213t161 155.5t216.5 57.5q177 0 305.5 -127.5t128.5 -304.5q0 -149 -93.5 -267t-231.5 -153v-296h-200v383q0 31 18 54.5t47 38.5t63.5 28.5t69.5 30t64 38t47 58t18 84.5q0 95 -70 165t-166 70q-98 0 -168.5 -66.5t-72.5 -161.5h-200zM425 105 q0 49 34 83t83 34t83 -34t34 -83t-34 -83t-83 -34t-83 34t-34 83z" />
<glyph unicode="@" horiz-adv-x="1930" d="M100 324q0 148 42 291t115 261.5t173 219t213.5 169.5t239.5 108t249 39q198 0 358 -96t250 -264t90 -374q0 -315 -158.5 -496.5t-427.5 -181.5h-186l20 113q-119 -138 -269 -138q-105 0 -185.5 56t-121.5 148.5t-41 205.5q0 96 29 189t80 169t117 134.5t145 90.5t158 32 q149 0 220 -139l7 39q7 44 38.5 72t72.5 28h93l-141 -800q361 0 361 440q0 161 -70 291.5t-195 205.5t-280 75q-115 0 -232.5 -42.5t-220 -121.5t-182.5 -182t-126.5 -235t-46.5 -270q0 -163 69.5 -297t195.5 -211.5t283 -77.5q220 0 422 144l85 -158q-259 -186 -544 -186 q-151 0 -282 58t-222 158.5t-143 238.5t-52 294zM651 419q0 -107 56.5 -175.5t156.5 -68.5q134 0 222.5 115t88.5 280q0 104 -52 167t-150 63q-130 0 -226 -113.5t-96 -267.5z" />
<glyph unicode="A" d="M100 0v950q0 256 131 390.5t382 134.5t381.5 -135t130.5 -390v-950h-200v675h-625v-675h-200zM300 875h625v75q0 172 -72 248.5t-240 76.5t-240.5 -76.5t-72.5 -248.5v-75z" />
<glyph unicode="B" horiz-adv-x="1275" d="M100 0v1375q0 41 30 70.5t70 29.5h475q215 0 345 -102t130 -300q0 -97 -59.5 -181.5t-138.5 -117.5q89 -38 156 -131.5t67 -201.5q0 -216 -135 -328.5t-365 -112.5h-575zM300 200h375q161 0 230.5 53.5t69.5 186.5q0 129 -80 182t-245 53h-350v-475zM300 875h350 q163 0 231.5 42.5t68.5 155.5t-73.5 167.5t-201.5 54.5h-375v-420z" />
<glyph unicode="C" horiz-adv-x="1254" d="M100 729q0 114 22 223.5t69 209t114 174.5t164 119.5t213 44.5q125 0 232 -63t170 -170.5t63 -232.5h-200q0 108 -78.5 189.5t-185.5 81.5q-66 0 -123 -23.5t-98 -65.5t-72.5 -97t-51 -120.5t-29 -132.5t-9.5 -136q0 -103 22.5 -199t67 -177t120 -130t171.5 -49 q112 0 192.5 81t80.5 192h200q0 -95 -37.5 -182t-101.5 -151t-151.5 -102t-182.5 -38q-114 0 -210.5 43t-163.5 116t-114.5 170t-70 204.5t-22.5 220.5z" />
<glyph unicode="D" horiz-adv-x="1326" d="M100 0v1375q0 41 30 70.5t70 29.5h325q368 0 534.5 -194.5t166.5 -581.5q0 -347 -176.5 -523t-524.5 -176h-425zM300 200h225q143 0 239 28t154 91t82.5 155.5t24.5 228.5q0 151 -23.5 256t-80 181.5t-154 113t-242.5 36.5h-225v-1090z" />
<glyph unicode="E" horiz-adv-x="1125" d="M100 0v1375q0 41 30 70.5t70 29.5h825v-185h-725v-415h550v-200h-550v-475h725v-200h-925z" />
<glyph unicode="F" horiz-adv-x="1125" d="M100 0v1375q0 41 30 70.5t70 29.5h825v-190h-725v-410h550v-200h-550v-675h-200z" />
<glyph unicode="G" horiz-adv-x="1254" d="M100 729q0 114 22 223.5t69 209t114 174.5t164 119.5t213 44.5q125 0 232 -63t170 -170.5t63 -232.5h-200q0 108 -78.5 187t-185.5 79q-79 0 -144.5 -33.5t-109 -89.5t-73 -130.5t-43 -154t-13.5 -162.5q0 -103 22.5 -199t67 -177t120 -130t171.5 -49q112 0 192.5 81 t80.5 192v127h-350v200h550v-775h-100q-40 0 -70 30t-30 70q-120 -125 -273 -125q-114 0 -210.5 43t-163.5 116t-114.5 170t-70 204.5t-22.5 220.5z" />
<glyph unicode="H" d="M100 0v1375q0 41 30 70.5t70 29.5h100v-600h625v600h200v-1475h-200v675h-625v-675h-200z" />
<glyph unicode="I" horiz-adv-x="1075" d="M100 1290v85q0 41 30 70.5t70 29.5h775v-185h-325v-1090h325v-200h-850v200h325v1090h-350z" />
<glyph unicode="J" horiz-adv-x="965" d="M50 221l172 104q33 -55 91 -90t131 -35q121 0 171 78.5t50 221.5v790h-525v85q0 43 28.5 71.5t71.5 28.5h625v-975q0 -147 -44.5 -257.5t-141 -176.5t-235.5 -66q-129 0 -232 62t-162 159z" />
<glyph unicode="K" horiz-adv-x="1132" d="M100 0v1375q0 43 28.5 71.5t71.5 28.5h100v-645l482 645h250l-453 -606q192 -145 312 -374t120 -495h-200q0 216 -98.5 403.5t-253.5 305.5l-159 -213v-496h-200z" />
<glyph unicode="L" horiz-adv-x="1125" d="M100 0v1375q0 41 30 70.5t70 29.5h100v-1275h725v-200h-925z" />
<glyph unicode="M" horiz-adv-x="1400" d="M100 0v1375q0 41 30 70.5t70 29.5q22 0 44 -11.5t33 -24.5l423 -508l452 544h148v-1475h-200v1099l-400 -477l-400 477v-1099h-200z" />
<glyph unicode="N" horiz-adv-x="1286" d="M100 0v1375q0 41 30 70.5t70 29.5h75l711 -1106v1106h200v-1475h-200l-686 1060v-1060h-200z" />
<glyph unicode="O" horiz-adv-x="1357" d="M100 749q0 130 18 239t60.5 205.5t108 163t165.5 105t229 38.5q576 0 576 -768q0 -131 -17.5 -240t-59 -206.5t-106.5 -165t-165 -106.5t-229 -39q-580 0 -580 774zM300 748q0 -93 10.5 -173t37.5 -155.5t69 -128t109 -84.5t154 -32q85 0 151.5 30.5t108.5 82t69 124.5 t37.5 151.5t10.5 169.5q0 93 -10.5 172t-37 153.5t-68 126.5t-108 83.5t-152.5 31.5t-152.5 -30t-109 -81t-70 -123t-38.5 -149.5t-11 -168.5z" />
<glyph unicode="P" horiz-adv-x="1275" d="M100 0v1375q0 41 30 70.5t70 29.5h475q227 0 363.5 -108t136.5 -317t-136.5 -317t-363.5 -108h-375v-625h-200zM300 825h375q144 0 222 51t78 174q0 240 -300 240h-375v-465z" />
<glyph unicode="Q" horiz-adv-x="1357" d="M100 749q0 130 18 239t60.5 205.5t108 163t165.5 105t229 38.5q576 0 576 -768q0 -694 -487 -752q24 -56 75 -89t115 -33q91 0 152 66l147 -135q-122 -131 -299 -131q-151 0 -262 91t-138 235q-460 76 -460 765zM300 748q0 -93 10.5 -173t37.5 -155.5t69 -128t109 -84.5 t154 -32q85 0 151.5 30.5t108.5 82t69 124.5t37.5 151.5t10.5 169.5q0 93 -10.5 172t-37 153.5t-68 126.5t-108 83.5t-152.5 31.5t-152.5 -30t-109 -81t-70 -123t-38.5 -149.5t-11 -168.5z" />
<glyph unicode="R" horiz-adv-x="1275" d="M100 0v1375q0 41 30 70.5t70 29.5h475q227 0 363.5 -108t136.5 -317q0 -164 -86.5 -266.5t-238.5 -139.5q127 -121 201 -286t74 -358h-200q0 188 -88 357t-225 268h-312v-625h-200zM300 825h375q144 0 222 51t78 174q0 240 -300 240h-375v-465z" />
<glyph unicode="S" horiz-adv-x="1179" d="M100 396q0 44 28 72t72 28h100q3 -133 101.5 -227t235.5 -94q94 0 167.5 57t73.5 143q0 55 -26 100t-69.5 77t-100 59.5t-118.5 53.5t-124.5 54.5t-119 66.5t-100 84t-69.5 113.5t-26 150.5q0 158 122 262t287 104q132 0 246.5 -67t181.5 -180.5t67 -245.5h-200 q-1 121 -88.5 207t-210.5 86q-79 0 -142 -47t-63 -118q0 -51 26 -92.5t69.5 -72t100 -58t119 -54.5t125 -56.5t119 -69t100 -87.5t69.5 -117.5t26 -152.5q0 -112 -63 -205t-164 -144t-215 -51q-106 0 -205 36.5t-170.5 95.5t-115.5 135.5t-46 153.5z" />
<glyph unicode="T" d="M100 1275v100q0 41 30 70.5t70 29.5h925v-200h-425v-1275h-200v1275h-400z" />
<glyph unicode="U" d="M100 525v850q0 41 30 70.5t70 29.5h100v-950q0 -172 72.5 -248.5t240.5 -76.5t240 76.5t72 248.5v950h200v-950q0 -255 -130.5 -390t-381.5 -135t-382 134.5t-131 390.5z" />
<glyph unicode="V" horiz-adv-x="1595" d="M100 1398q0 30 17.5 56.5t43.5 37.5l91 38l523 -1268l502 1213h218l-615 -1475h-214l-559 1362q-7 17 -7 36z" />
<glyph unicode="W" horiz-adv-x="1750" d="M100 525v850q0 41 30 70.5t70 29.5h100v-950q0 -58 5.5 -102.5t20.5 -88t41 -72t69 -45.5t102 -17t101.5 15t68.5 40.5t41 68t20.5 89.5t5.5 112v475h200v-475q0 -65 5.5 -112t20.5 -89.5t41.5 -68t69 -40.5t101.5 -15q58 0 101 17t69 45.5t41 72t20.5 88t5.5 102.5v950 h200v-950q0 -247 -106.5 -386t-330.5 -139q-59 0 -110 14t-95 43.5t-69 51t-64 60.5q-38 -38 -63.5 -60t-69 -51.5t-94.5 -43.5t-110 -14q-224 0 -331 139t-107 386z" />
<glyph unicode="X" horiz-adv-x="1394" d="M100 0l475 735l-396 611q-14 22 -14 56q0 63 58 90l81 38l391 -609l358 554h241l-480 -739l473 -736h-237l-356 550l-357 -550h-237z" />
<glyph unicode="Y" d="M100 1150v225q0 41 30 70.5t70 29.5h100v-325q0 -172 72.5 -248.5t240.5 -76.5t240 76.5t72 248.5v325h200v-325q0 -228 -104.5 -360.5t-307.5 -158.5v-631h-200v631q-202 25 -307.5 158t-105.5 361z" />
<glyph unicode="Z" horiz-adv-x="1214" d="M100 0v158l739 1132h-715v85q0 41 30 70.5t70 29.5h890v-144l-739 -1131h732v-200h-1007z" />
<glyph unicode="[" horiz-adv-x="632" d="M100 -173v1661q0 40 30 70t70 30h382v-200h-282v-1361h282v-200h-482z" />
<glyph unicode="\" horiz-adv-x="1120" d="M127.5 1440.5q4.5 28.5 22.5 50.5q14 17 33 26l90 42l740 -1586l-180 -85l-698 1496q-12 28 -7.5 56.5z" />
<glyph unicode="]" horiz-adv-x="632" d="M50 27h282v1361h-282v100q0 40 30 70t70 30h382v-1761h-482v200z" />
<glyph unicode="^" horiz-adv-x="867" d="M100 1150l230 294h207l230 -294h-162l-171 183l-172 -183h-162z" />
<glyph unicode="_" horiz-adv-x="1125" d="M100 -100q0 40 30 70t70 30h825v-200h-925v100z" />
<glyph unicode="`" horiz-adv-x="637" d="M100 1444h207l230 -294h-162z" />
<glyph unicode="a" horiz-adv-x="1100" d="M75 488q0 133 61.5 250.5t172 189.5t241.5 72q66 0 135 -37t115 -102v39q0 44 28 72t72 28h100v-1000h-100q-40 0 -70 30t-30 70v13q-46 -65 -115 -101.5t-134 -36.5q-100 0 -189 42t-151.5 112.5t-99 164t-36.5 194.5zM275 490q0 -126 78.5 -220.5t194.5 -94.5 q133 0 204.5 85.5t71.5 235.5q0 138 -75 221t-201 83q-114 0 -193.5 -93.5t-79.5 -216.5z" />
<glyph unicode="b" horiz-adv-x="1100" d="M100 0v1375q0 44 28 72t72 28h100v-614q46 65 115 102t135 37q131 0 241.5 -72t172 -189.5t61.5 -250.5q0 -101 -36.5 -194.5t-99 -164t-151.5 -112.5t-189 -42q-65 0 -134 36.5t-115 101.5v-13q0 -40 -30 -70t-70 -30h-100zM276 496q0 -150 71.5 -235.5t204.5 -85.5 q116 0 194.5 94.5t78.5 220.5q0 123 -79.5 216.5t-193.5 93.5q-126 0 -201 -83t-75 -221z" />
<glyph unicode="c" horiz-adv-x="1090" d="M75 488q0 136 66.5 254t182 188t250.5 70q151 0 268.5 -81.5t172.5 -204.5l-182 -82q-75 168 -259 168q-124 0 -211.5 -93t-87.5 -220q0 -126 88 -219t211 -93q184 0 259 168l182 -82q-55 -123 -172.5 -204.5t-268.5 -81.5q-136 0 -251 70.5t-181.5 188.5t-66.5 254z" />
<glyph unicode="d" horiz-adv-x="1100" d="M75 488q0 133 61.5 250.5t172 189.5t241.5 72q66 0 135 -37t115 -102v514q0 44 28 72t72 28h100v-1475h-100q-40 0 -70 30t-30 70v13q-46 -65 -115 -101.5t-134 -36.5q-100 0 -189 42t-151.5 112.5t-99 164t-36.5 194.5zM275 490q0 -126 78.5 -220.5t194.5 -94.5 q133 0 204.5 85.5t71.5 235.5q0 138 -75 221t-201 83q-114 0 -193.5 -93.5t-79.5 -216.5z" />
<glyph unicode="e" horiz-adv-x="1134" d="M75 490q0 137 67 254.5t182 186.5t250 69q129 0 241 -65.5t178 -177.5t66 -242v-108h-773q26 -98 108.5 -165t187.5 -67q75 0 124.5 23.5t94.5 71.5l146 -136q-70 -76 -166 -117.5t-199 -41.5q-137 0 -254 70t-185 189t-68 256zM297 582h546q-62 218 -269 218t-277 -218z " />
<glyph unicode="f" horiz-adv-x="804" d="M100 675v100q0 43 28.5 71.5t71.5 28.5h75v150q0 450 429 450v-200q-133 0 -181 -55.5t-48 -194.5v-150h225v-200h-225v-675h-200v675h-175z" />
<glyph unicode="g" horiz-adv-x="1100" d="M75 487q0 101 36.5 194.5t99 164t151.5 112.5t189 42q65 0 134 -36.5t115 -101.5v38q0 44 28 72t72 28h100v-925q0 -147 -44.5 -257.5t-141 -176.5t-235.5 -66q-129 0 -232 62t-162 159l172 104q33 -55 91 -90t131 -35q121 0 171 78.5t50 221.5v39q-46 -65 -115 -102 t-135 -37q-131 0 -241.5 72t-172 189.5t-61.5 250.5zM275 485q0 -123 79.5 -216.5t193.5 -93.5q126 0 201 83t75 221q0 150 -71.5 235.5t-204.5 85.5q-116 0 -194.5 -94.5t-78.5 -220.5z" />
<glyph unicode="h" horiz-adv-x="1075" d="M100 0v1375q0 41 30 70.5t70 29.5h100v-583q110 108 238 108q224 0 330.5 -139t106.5 -386v-475h-200v475q0 65 -5.5 112t-20.5 89.5t-41 68t-68.5 40.5t-101.5 15t-101.5 -15t-69 -40.5t-41.5 -68t-20.5 -89.5t-5.5 -112v-475h-200z" />
<glyph unicode="i" horiz-adv-x="410" d="M88 1239q0 49 34 83t83 34t83 -34t34 -83t-34 -83t-83 -34t-83 34t-34 83zM105 0v900q0 43 28.5 71.5t71.5 28.5h100v-1000h-200z" />
<glyph unicode="j" horiz-adv-x="450" d="M-490 -204l172 104q33 -55 91 -90t131 -35q121 0 171 78.5t50 221.5v825q0 43 28.5 71.5t71.5 28.5h100v-925q0 -147 -44.5 -257.5t-141 -176.5t-235.5 -66q-129 0 -232 62t-162 159zM108 1239q0 49 34 83t83 34t83 -34t34 -83t-34 -83t-83 -34t-83 34t-34 83z" />
<glyph unicode="k" horiz-adv-x="1117" d="M100 0v1375q0 43 28.5 71.5t71.5 28.5h100v-791l397 316h320l-359 -286l336 -714h-221l-276 586l-197 -156v-430h-200z" />
<glyph unicode="l" horiz-adv-x="400" d="M100 0v1375q0 43 28.5 71.5t71.5 28.5h100v-1475h-200z" />
<glyph unicode="m" horiz-adv-x="1750" d="M100 0v900q0 40 30 70t70 30h100v-108q110 108 238 108q113 0 191 -51.5t146 -142.5q69 91 147 142.5t191 51.5q224 0 330.5 -139t106.5 -386v-475h-200v475q0 65 -5.5 112t-20.5 89.5t-41 68t-68.5 40.5t-101.5 15q-60 0 -102 -12.5t-68.5 -35.5t-41.5 -64.5 t-20.5 -90.5t-5.5 -122v-475h-200v475q0 73 -5.5 122t-20.5 90.5t-41.5 64.5t-68 35.5t-101.5 12.5q-59 0 -101.5 -15t-69 -40.5t-41.5 -68t-20.5 -89.5t-5.5 -112v-475h-200z" />
<glyph unicode="n" horiz-adv-x="1075" d="M100 0v900q0 40 30 70t70 30h100v-108q110 108 238 108q224 0 330.5 -139t106.5 -386v-475h-200v475q0 65 -5.5 112t-20.5 89.5t-41 68t-68.5 40.5t-101.5 15t-101.5 -15t-69 -40.5t-41.5 -68t-20.5 -89.5t-5.5 -112v-475h-200z" />
<glyph unicode="o" horiz-adv-x="1100" d="M75 487q0 134 61.5 251.5t172 189.5t242.5 72q131 0 241 -71.5t171.5 -188.5t61.5 -251t-61.5 -252t-172 -190t-243.5 -72q-131 0 -241 72t-171 189.5t-61 250.5zM275 486q0 -124 79.5 -217.5t195.5 -93.5q117 0 195.5 94.5t78.5 219.5q0 124 -79 217.5t-194 93.5 q-117 0 -196.5 -94.5t-79.5 -219.5z" />
<glyph unicode="p" horiz-adv-x="1100" d="M100 -410v1310q0 44 28 72t72 28h100v-138q46 65 115 101.5t134 36.5q100 0 189 -42t151.5 -112.5t99 -164t36.5 -194.5q0 -133 -61.5 -250.5t-172 -189.5t-241.5 -72q-66 0 -135 37t-115 102v-524h-200zM276 479q0 -138 75 -221t201 -83q114 0 193.5 93.5t79.5 216.5 q0 126 -78.5 220.5t-194.5 94.5q-133 0 -204.5 -85.5t-71.5 -235.5z" />
<glyph unicode="q" horiz-adv-x="1100" d="M75 487q0 101 36.5 194.5t99 164t151.5 112.5t189 42q65 0 134 -36.5t115 -101.5v38q0 44 28 72t72 28h100v-1410h-200v524q-46 -65 -115 -102t-135 -37q-131 0 -241.5 72t-172 189.5t-61.5 250.5zM275 485q0 -123 79.5 -216.5t193.5 -93.5q126 0 201 83t75 221 q0 150 -71.5 235.5t-204.5 85.5q-116 0 -194.5 -94.5t-78.5 -220.5z" />
<glyph unicode="r" horiz-adv-x="1040" d="M100 0v900q0 40 30 70t70 30h100v-108q110 108 238 108q165 0 267 -86t130 -246h-199q-14 70 -59.5 101t-138.5 31q-59 0 -101.5 -15t-69 -40.5t-41.5 -68t-20.5 -89.5t-5.5 -112v-475h-200z" />
<glyph unicode="s" horiz-adv-x="939" d="M100 716q0 86 49 152.5t123 99.5t158 33q130 0 238.5 -64.5t170.5 -173.5l-174 -100q-35 61 -98 99.5t-136 38.5q-52 0 -91.5 -22.5t-39.5 -64.5q0 -32 22.5 -58t60 -42.5t84.5 -35t97 -35t97 -42t84.5 -56t60 -77.5t22.5 -106q0 -91 -50.5 -157.5t-127 -97.5t-165.5 -31 q-123 0 -221.5 55.5t-159.5 143.5l164 114q35 -50 92 -82.5t127 -32.5q54 0 97.5 22.5t43.5 62.5q0 39 -29 68.5t-75.5 49t-103 38t-113 43t-103 55.5t-75.5 83t-29 120z" />
<glyph unicode="t" horiz-adv-x="804" d="M100 800v200h175v50q0 37 2.5 65.5t11.5 60t25 52t44 34t67 13.5h50v-275h225v-200h-225v-350q0 -139 48 -194.5t181 -55.5v-200q-429 0 -429 450v350h-175z" />
<glyph unicode="u" horiz-adv-x="1075" d="M100 525v375q0 40 30 70t70 30h100v-475q0 -58 5.5 -102.5t20.5 -88t41 -72t69 -45.5t102 -17q58 0 101 17t69 45.5t41 72t20.5 88t5.5 102.5v475h200v-475q0 -247 -106.5 -386t-330.5 -139t-331 139t-107 386z" />
<glyph unicode="v" horiz-adv-x="1224" d="M100 924q0 62 34 76l116 48l356 -792l302 744h216l-406 -1000h-216l-393 884q-9 22 -9 40z" />
<glyph unicode="w" horiz-adv-x="1750" d="M100 525v375q0 40 30 70t70 30h100v-475q0 -58 5.5 -102.5t20.5 -88t41 -72t69 -45.5t102 -17t101.5 15t68.5 40.5t41 68t20.5 89.5t5.5 112v325h200v-325q0 -65 5.5 -112t20.5 -89.5t41.5 -68t69 -40.5t101.5 -15q58 0 101 17t69 45.5t41 72t20.5 88t5.5 102.5v475h200 v-475q0 -247 -106.5 -386t-330.5 -139q-59 0 -110 14t-95 43.5t-69 51t-64 60.5q-38 -38 -63.5 -60t-69 -51.5t-94.5 -43.5t-110 -14q-224 0 -331 139t-107 386z" />
<glyph unicode="x" horiz-adv-x="1176" d="M100 0l357 493l-286 372q-19 24 -19 59q0 51 44 84l76 56l302 -400l240 336h244l-358 -502l376 -498h-251l-247 327l-233 -327h-245z" />
<glyph unicode="y" horiz-adv-x="1075" d="M100 525v375q0 40 30 70t70 30h100v-475q0 -65 5.5 -112t20.5 -89.5t41 -68t68.5 -40.5t101.5 -15t101.5 15t69 40.5t41.5 68t20.5 89.5t5.5 112v475h200v-925q0 -147 -44.5 -257.5t-141 -176.5t-235.5 -66q-129 0 -232 62t-162 159l172 104q33 -55 91 -90t131 -35 q121 0 171 78.5t50 221.5v33q-110 -108 -238 -108q-224 0 -330.5 139t-106.5 386z" />
<glyph unicode="z" horiz-adv-x="1009" d="M100 800v100q0 40 30 70t70 30h683v-150l-490 -650h516v-200h-795v150l488 650h-502z" />
<glyph unicode="{" horiz-adv-x="734" d="M100 717l75 54q48 35 63 90t15 132q0 108 11 195.5t40.5 169t76 136.5t122 87.5t174.5 32.5v-200q-36 0 -65.5 -6.5t-51.5 -16.5t-39 -29.5t-28.5 -36.5t-19 -48t-11.5 -54t-6 -63t-2.5 -66.5t-0.5 -73.5q0 -74 -30.5 -169t-66.5 -128q35 -24 66 -116.5t31 -157.5 q0 -45 0.5 -73t2.5 -69t6.5 -66.5t12.5 -58.5t19.5 -53.5t29 -42.5t40 -33.5t53 -19.5t67.5 -8v-200q-103 0 -180 33.5t-124.5 89t-76.5 140t-39.5 174.5t-10.5 204q0 60 -16.5 97.5t-63.5 82.5z" />
<glyph unicode="|" horiz-adv-x="400" d="M100 -200v1700q0 40 30 70t70 30h100v-1800h-200z" />
<glyph unicode="}" horiz-adv-x="734" d="M100 25q37 0 67.5 8t53 19.5t40 33.5t29 42.5t19.5 53.5t12.5 58.5t6.5 66.5t2.5 69t0.5 73q0 65 31 157.5t66 116.5q-36 33 -66.5 128t-30.5 169q0 47 -0.5 73.5t-2.5 66.5t-6 63t-11.5 54t-19 48t-28.5 36.5t-39 29.5t-51.5 16.5t-65.5 6.5v200q99 0 174.5 -32.5 t122 -87.5t76 -136.5t40.5 -169t11 -195.5q0 -77 15 -132t63 -90l75 -54l-73 -71q-47 -45 -63.5 -82.5t-16.5 -97.5q0 -114 -10.5 -204t-39.5 -174.5t-76.5 -140t-124.5 -89t-180 -33.5v200z" />
<glyph unicode="~" horiz-adv-x="901" d="M100 698q0 89 62 149t147 60q37 0 70.5 -13t58.5 -31.5t48.5 -37t51 -31.5t55.5 -13q12 0 22.5 10t10.5 24q0 7 -3 15l156 78q22 -44 22 -93q0 -89 -61.5 -149t-146.5 -60q-37 0 -70.5 13t-58.5 31.5t-48.5 37t-51 31.5t-55.5 13q-12 0 -22.5 -10t-10.5 -24q0 -8 3 -15 l-156 -78q-23 46 -23 93z" />
<glyph unicode="&#xa1;" horiz-adv-x="409" d="M75 1408q0 -49 34 -83t83 -34t83 34t34 83t-34 83t-83 34t-83 -34t-34 -83zM100 -12l30 1150h140l30 -1150h-200z" />
<glyph unicode="&#xa2;" horiz-adv-x="1140" d="M100 638q0 181 114 323.5t286 178.5v185q0 41 30 70.5t70 29.5h100v-285q116 -25 205 -100t135 -176l-182 -82q-32 72 -101 120t-158 48q-124 0 -211.5 -93t-87.5 -220q0 -126 88 -219t211 -93q89 0 158 48t101 120l182 -82q-46 -101 -135 -176t-205 -100v-260h-200v260 q-172 36 -286 179t-114 324z" />
<glyph unicode="&#xa3;" horiz-adv-x="1148" d="M150 575v100q0 43 28.5 71.5t71.5 28.5h20q-39 134 -39 225q0 123 53 231.5t151.5 176t218.5 67.5q85 0 162.5 -36t132.5 -102q87 -105 87 -243q0 -47 -10 -88l-194 46q5 22 5 40q0 76 -53.5 129.5t-124.5 53.5q-47 0 -92.5 -23.5t-76.5 -63.5q-59 -77 -59 -182 q0 -92 44 -231h375v-200h-317q15 -73 15 -137q0 -101 -37 -198q39 -5 134 -34t142 -29q71 0 119 49l142 -140q-52 -53 -120.5 -82t-142.5 -29q-73 0 -197 39q-92 30 -130 30q-61 0 -124 -47q-28 -22 -62 -22q-39 0 -68.5 28.5t-29.5 69.5q0 50 32 77q52 46 75 79 q67 95 67 209q0 63 -18 137h-180z" />
<glyph unicode="&#xa4;" horiz-adv-x="1323" d="M100 367l209 209q-58 94 -58 207q0 115 61 212l-212 213l141 141l216 -216q89 50 194 50q113 0 207 -58l224 224l141 -141l-225 -226q53 -92 53 -199q0 -105 -50 -194l222 -222l-141 -142l-218 219q-97 -61 -213 -61q-108 0 -200 53l-210 -211zM455 783 q0 -83 58.5 -141.5t141.5 -58.5t141.5 58.5t58.5 141.5t-58.5 141.5t-141.5 58.5t-141.5 -58.5t-58.5 -141.5z" />
<glyph unicode="&#xa5;" d="M100 1150v225q0 41 30 70.5t70 29.5h100v-325q0 -172 72.5 -248.5t240.5 -76.5t240 76.5t72 248.5v325h200v-325q0 -228 -104.5 -360.5t-307.5 -158.5v-71h287v-161h-287v-134h287v-145h-287v-120h-200v120h-288v145h288v134h-288v161h288v71q-202 25 -307.5 158 t-105.5 361z" />
<glyph unicode="&#xa6;" horiz-adv-x="400" d="M100 317h200v-717h-200v717zM100 853v647q0 40 30 70t70 30h100v-747h-200z" />
<glyph unicode="&#xa7;" horiz-adv-x="1069" d="M100 1187q0 116 57 216.5t156 159.5t214 59q170 0 289 -116q60 -58 93 -134.5t35 -159.5h-200q-2 87 -65.5 148.5t-151.5 61.5q-93 0 -160 -70t-67 -166q0 -37 10 -68q100 65 219 65q166 0 283 -117t117 -283q0 -76 -28 -148q68 -108 68 -239q0 -116 -57 -216.5 t-156 -159.5t-214 -59q-170 0 -289 116q-60 58 -93 134.5t-35 159.5h200q2 -87 65.5 -148.5t151.5 -61.5q93 0 160 70t67 166q0 28 -8 60q-102 -74 -232 -74q-166 0 -283 117t-117 283q0 90 37 169q-66 108 -66 235zM329 783q0 -83 58.5 -141.5t141.5 -58.5t141.5 58.5 t58.5 141.5t-58.5 141.5t-141.5 58.5t-141.5 -58.5t-58.5 -141.5z" />
<glyph unicode="&#xa8;" horiz-adv-x="809" d="M100 1305q0 49 34 83t83 34t83 -34t34 -83t-34 -83t-83 -34t-83 34t-34 83zM475 1305q0 49 34 83t83 34t83 -34t34 -83t-34 -83t-83 -34t-83 34t-34 83z" />
<glyph unicode="&#xa9;" horiz-adv-x="1904" d="M100 773q0 173 67.5 331t181.5 272t272 181.5t331 67.5t331 -67.5t272 -181.5t181.5 -272t67.5 -331t-67.5 -331t-181.5 -272t-272 -181.5t-331 -67.5t-331 67.5t-272 181.5t-181.5 272t-67.5 331zM300 773q0 -177 87.5 -327t237.5 -237.5t327 -87.5t327 87.5 t237.5 237.5t87.5 327t-87.5 327t-237.5 237.5t-327 87.5t-327 -87.5t-237.5 -237.5t-87.5 -327zM448 763q0 136 66.5 254t182 188t250.5 70q151 0 268.5 -81.5t172.5 -204.5l-182 -82q-32 72 -101 120t-158 48q-124 0 -211.5 -93t-87.5 -220q0 -126 88 -219t211 -93 q89 0 158 48t101 120l182 -82q-55 -123 -172.5 -204.5t-268.5 -81.5q-136 0 -251 70.5t-181.5 188.5t-66.5 254z" />
<glyph unicode="&#xaa;" horiz-adv-x="730" d="M75 1331q0 123 83 215t202 92q39 0 81 -22t69 -61v23q0 26 17 43t43 17h60v-600h-60q-24 0 -42 18t-18 42v8q-27 -39 -68.5 -61t-80.5 -22q-121 0 -203.5 91.5t-82.5 216.5zM195 1332q0 -76 47 -132.5t117 -56.5q80 0 122.5 51t42.5 142q0 83 -44.5 132.5t-120.5 49.5 q-69 0 -116.5 -56t-47.5 -130z" />
<glyph unicode="&#xab;" horiz-adv-x="844" d="M100 538q0 20 5 32l150 386h139l-113 -418l113 -418h-139l-150 386q-5 12 -5 32zM450 538q0 20 5 32l150 386h139l-113 -418l113 -418h-139l-150 386q-5 12 -5 32z" />
<glyph unicode="&#xac;" horiz-adv-x="975" d="M100 625v100q0 41 30 70.5t70 29.5h675v-425h-200v225h-575z" />
<glyph unicode="&#xad;" horiz-adv-x="975" d="M100 625v100q0 41 30 70.5t70 29.5h500v-200h-600z" />
<glyph unicode="&#xae;" horiz-adv-x="1468" d="M100 1041q0 172 85 318t231 231t318 85t318 -85t231 -231t85 -318t-85 -318t-231 -231t-318 -85t-318 85t-231 231t-85 318zM208 1041q0 -143 70.5 -264t191.5 -191.5t264 -70.5t264 70.5t191.5 191.5t70.5 264t-70.5 264t-191.5 191.5t-264 70.5t-264 -70.5 t-191.5 -191.5t-70.5 -264zM464 640v742q0 22 16 38t38 16h257q123 0 196.5 -58t73.5 -171q0 -89 -47 -145t-129 -75q148 -141 148 -347h-108q0 102 -47.5 193t-121.5 144h-168v-337h-108zM572 1085h203q78 0 120 27.5t42 94.5t-42 94t-120 27h-203v-243z" />
<glyph unicode="&#xaf;" horiz-adv-x="975" d="M100 1175v100q0 41 30 70.5t70 29.5h675v-200h-775z" />
<glyph unicode="&#xb0;" horiz-adv-x="537" d="M50 1386q0 91 64 155t154 64q91 0 155 -64t64 -155q0 -90 -64 -154t-155 -64q-90 0 -154 64t-64 154zM175 1386q0 -38 27.5 -65.5t65.5 -27.5q39 0 66.5 27.5t27.5 65.5q0 39 -27.5 66.5t-66.5 27.5q-38 0 -65.5 -27.5t-27.5 -66.5z" />
<glyph unicode="&#xb1;" horiz-adv-x="975" d="M100 850v175h288v212q0 41 30 70.5t70 29.5h100v-312h287v-175h-287v-287h-200v287h-288zM175 250v100q0 40 29.5 70t70.5 30h500v-200h-600z" />
<glyph unicode="&#xb2;" horiz-adv-x="803" d="M100 737v60q0 71 25.5 130.5t66 101.5t89.5 78t97.5 67t89 62t66 70t25.5 84q0 55 -44.5 91.5t-99.5 36.5q-77 0 -134.5 -54t-58.5 -129h-120q2 124 92 213.5t215 89.5q108 0 189 -69t81 -178q0 -59 -22 -108.5t-58 -85t-79.5 -67t-90 -60.5t-87 -58.5t-72 -69 t-43.5 -85.5h476v-120h-603z" />
<glyph unicode="&#xb3;" horiz-adv-x="744" d="M100 1010h120q1 -63 47.5 -108t110.5 -45q59 0 102.5 41t43.5 98q0 53 -37.5 98t-86.5 46v90q50 4 85.5 49.5t35.5 100.5q0 57 -42 97.5t-99 40.5q-61 0 -104.5 -43.5t-43.5 -103.5h-120q0 109 79 188t188 79q108 0 185 -76t77 -183q0 -54 -32.5 -105t-84.5 -86 q54 -35 87 -85.5t33 -106.5q0 -107 -79 -183t-187 -76q-113 0 -194.5 80.5t-83.5 192.5z" />
<glyph unicode="&#xb4;" horiz-adv-x="637" d="M100 1150l230 294h207l-275 -294h-162z" />
<glyph unicode="&#xb5;" horiz-adv-x="1076" d="M100 -425v1325q0 40 30 70t70 30h100v-475q0 -65 5.5 -112t20.5 -89.5t41.5 -68t69 -40.5t101.5 -15t101.5 15t69 40.5t41.5 68t20.5 89.5t5.5 112v475h200v-1000h-200v108q-110 -108 -238 -108t-238 108v-533h-200z" />
<glyph unicode="&#xb6;" horiz-adv-x="1110" d="M100 1064q0 170 120 290.5t290 120.5h500v-1475h-200v1275h-100v-1275h-200v653q-170 0 -290 120.5t-120 290.5z" />
<glyph unicode="&#xb7;" horiz-adv-x="409" d="M75 780q0 49 34 83t83 34t83 -34t34 -83t-34 -83t-83 -34t-83 34t-34 83z" />
<glyph unicode="&#xb8;" horiz-adv-x="1140" d="M274 -281l136 62q20 -43 59.5 -70.5t92.5 -27.5q41 0 72 20.5t31 56.5q0 22 -15 37t-37 15q-11 0 -32 -8.5t-31 -8.5q-31 0 -52.5 24.5t-21.5 54.5q0 14 4 23l37 103h160l-16 -44q66 -16 110 -69t44 -127q0 -100 -76 -163.5t-178 -63.5q-97 0 -174 53.5t-113 132.5z" />
<glyph unicode="&#xb9;" horiz-adv-x="735" d="M100 1414l242 224h98v-765h195v-120h-510v120h195v612l-146 -152z" />
<glyph unicode="&#xba;" horiz-adv-x="745" d="M75 1330q0 124 83 216t203 92q119 0 201.5 -91.5t82.5 -215.5t-82.5 -216t-203.5 -92q-119 0 -201.5 92t-82.5 215zM195 1330q0 -75 47.5 -131t117.5 -56t117 56.5t47 131.5t-47 131t-116 56q-70 0 -118 -56.5t-48 -131.5z" />
<glyph unicode="&#xbb;" horiz-adv-x="844" d="M100 120l113 418l-113 418h139l150 -386q5 -12 5 -32t-5 -32l-150 -386h-139zM450 120l113 418l-113 418h139l150 -386q5 -12 5 -32t-5 -32l-150 -386h-139z" />
<glyph unicode="&#xbf;" horiz-adv-x="1075" d="M100 420q0 149 93.5 267t231.5 153v296h200v-383q0 -31 -18 -54.5t-47 -38.5t-63.5 -28.5t-69.5 -30t-64 -38t-47 -58t-18 -84.5q0 -95 70 -165t166 -70q98 0 168.5 66.5t72.5 161.5h200q-3 -115 -63.5 -213t-161 -155.5t-216.5 -57.5q-177 0 -305.5 127.5t-128.5 304.5z M416 1406q0 49 34 83t83 34t83 -34t34 -83t-34 -83t-83 -34t-83 34t-34 83z" />
<glyph unicode="&#xc0;" d="M100 0v950q0 256 131 390.5t382 134.5t381.5 -135t130.5 -390v-950h-200v675h-625v-675h-200zM256 1916h208l230 -294h-162zM300 875h625v75q0 172 -72 248.5t-240 76.5t-240.5 -76.5t-72.5 -248.5v-75z" />
<glyph unicode="&#xc1;" d="M100 0v950q0 256 131 390.5t382 134.5t381.5 -135t130.5 -390v-950h-200v675h-625v-675h-200zM300 875h625v75q0 172 -72 248.5t-240 76.5t-240.5 -76.5t-72.5 -248.5v-75zM532 1622l230 294h206l-274 -294h-162z" />
<glyph unicode="&#xc2;" d="M100 0v950q0 256 131 390.5t382 134.5t381.5 -135t130.5 -390v-950h-200v675h-625v-675h-200zM279 1622l230 294h207l230 -294h-162l-171 183l-172 -183h-162zM300 875h625v75q0 172 -72 248.5t-240 76.5t-240.5 -76.5t-72.5 -248.5v-75z" />
<glyph unicode="&#xc3;" d="M100 0v950q0 256 131 390.5t382 134.5t381.5 -135t130.5 -390v-950h-200v675h-625v-675h-200zM262 1715q0 89 62 149t147 60q37 0 70.5 -13t58.5 -31.5t48.5 -37t51 -31.5t55.5 -13q12 0 22.5 10t10.5 24q0 8 -3 15l156 78q22 -44 22 -93q0 -89 -61.5 -149t-146.5 -60 q-37 0 -70.5 13t-58.5 31.5t-48.5 37t-51 31.5t-55.5 13q-12 0 -22.5 -10t-10.5 -24q0 -7 3 -15l-156 -78q-23 46 -23 93zM300 875h625v75q0 172 -72 248.5t-240 76.5t-240.5 -76.5t-72.5 -248.5v-75z" />
<glyph unicode="&#xc4;" d="M100 0v950q0 256 131 390.5t382 134.5t381.5 -135t130.5 -390v-950h-200v675h-625v-675h-200zM300 875h625v75q0 172 -72 248.5t-240 76.5t-240.5 -76.5t-72.5 -248.5v-75zM308 1739q0 49 34 83t83 34t83 -34t34 -83t-34 -83t-83 -34t-83 34t-34 83zM683 1739q0 49 34 83 t83 34t83 -34t34 -83t-34 -83t-83 -34t-83 34t-34 83z" />
<glyph unicode="&#xc5;" d="M100 0v950q0 256 131 390.5t382 134.5t381.5 -135t130.5 -390v-950h-200v675h-625v-675h-200zM300 875h625v75q0 172 -72 248.5t-240 76.5t-240.5 -76.5t-72.5 -248.5v-75zM394 1754q0 91 64 154.5t154 63.5q91 0 155 -63.5t64 -154.5t-64 -155t-155 -64q-90 0 -154 64 t-64 155zM519 1754q0 -39 27.5 -66.5t65.5 -27.5q39 0 66.5 27.5t27.5 66.5t-27.5 66t-66.5 27q-38 0 -65.5 -27t-27.5 -66z" />
<glyph unicode="&#xc6;" horiz-adv-x="1800" d="M100 0v950q0 256 131 390.5t382 134.5h1087v-200h-675v-400h500v-200h-500v-475h675v-200h-875v675h-525v-675h-200zM300 875h525v400h-212q-168 0 -240.5 -76.5t-72.5 -248.5v-75z" />
<glyph unicode="&#xc7;" horiz-adv-x="1254" d="M100 729q0 114 22 223.5t69 209t114 174.5t164 119.5t213 44.5q125 0 232 -63t170 -170.5t63 -232.5h-200q0 108 -78.5 189.5t-185.5 81.5q-66 0 -123 -23.5t-98 -65.5t-72.5 -97t-51 -120.5t-29 -132.5t-9.5 -136q0 -103 22.5 -199t67 -177t120 -130t171.5 -49 q112 0 192.5 81t80.5 192h200q0 -118 -57 -222.5t-155 -170.5t-215 -78l-11 -30q66 -16 110 -69t44 -127q0 -100 -76 -163.5t-178 -63.5q-97 0 -174 53.5t-113 132.5l136 62q20 -43 59.5 -70.5t92.5 -27.5q41 0 72 20.5t31 56.5q0 22 -15 37t-37 15q-11 0 -32 -8.5t-31 -8.5 q-31 0 -52.5 24.5t-21.5 54.5q0 14 4 23l35 98q-115 24 -206.5 96.5t-148 175.5t-86 223.5t-29.5 247.5z" />
<glyph unicode="&#xc8;" horiz-adv-x="1125" d="M100 0v1375q0 41 30 70.5t70 29.5h825v-185h-725v-415h550v-200h-550v-475h725v-200h-925zM206 1916h208l230 -294h-162z" />
<glyph unicode="&#xc9;" horiz-adv-x="1125" d="M100 0v1375q0 41 30 70.5t70 29.5h825v-185h-725v-415h550v-200h-550v-475h725v-200h-925zM482 1622l230 294h206l-274 -294h-162z" />
<glyph unicode="&#xca;" horiz-adv-x="1125" d="M100 0v1375q0 41 30 70.5t70 29.5h825v-185h-725v-415h550v-200h-550v-475h725v-200h-925zM229 1622l230 294h207l230 -294h-162l-171 183l-172 -183h-162z" />
<glyph unicode="&#xcb;" horiz-adv-x="1125" d="M100 0v1375q0 41 30 70.5t70 29.5h825v-185h-725v-415h550v-200h-550v-475h725v-200h-925zM258 1739q0 49 34 83t83 34t83 -34t34 -83t-34 -83t-83 -34t-83 34t-34 83zM633 1739q0 49 34 83t83 34t83 -34t34 -83t-34 -83t-83 -34t-83 34t-34 83z" />
<glyph unicode="&#xcc;" horiz-adv-x="1075" d="M100 1290v85q0 41 30 70.5t70 29.5h775v-185h-325v-1090h325v-200h-850v200h325v1090h-350zM182 1916h206l230 -294h-162z" />
<glyph unicode="&#xcd;" horiz-adv-x="1075" d="M100 1290v85q0 41 30 70.5t70 29.5h775v-185h-325v-1090h325v-200h-850v200h325v1090h-350zM456 1622l230 294h208l-276 -294h-162z" />
<glyph unicode="&#xce;" horiz-adv-x="1075" d="M100 1290v85q0 41 30 70.5t70 29.5h775v-185h-325v-1090h325v-200h-850v200h325v1090h-350zM204 1622l230 294h207l230 -294h-162l-171 183l-172 -183h-162z" />
<glyph unicode="&#xcf;" horiz-adv-x="1075" d="M100 1290v85q0 41 30 70.5t70 29.5h775v-185h-325v-1090h325v-200h-850v200h325v1090h-350zM233 1739q0 49 34 83t83 34t83 -34t34 -83t-34 -83t-83 -34t-83 34t-34 83zM608 1739q0 49 34 83t83 34t83 -34t34 -83t-34 -83t-83 -34t-83 34t-34 83z" />
<glyph unicode="&#xd0;" horiz-adv-x="1451" d="M100 650v175h125v550q0 41 29.5 70.5t70.5 29.5h325q368 0 534.5 -194.5t166.5 -581.5q0 -347 -176.5 -523t-524.5 -176h-425v650h-125zM425 200h225q266 0 383 118.5t117 384.5q0 151 -23.5 253.5t-80 176.5t-154 108t-242.5 34h-225v-450h450v-175h-450v-450z" />
<glyph unicode="&#xd1;" horiz-adv-x="1286" d="M100 0v1375q0 41 30 70.5t70 29.5h75l711 -1106v1106h200v-1475h-200l-686 1060v-1060h-200zM292 1715q0 89 62 149t148 60q37 0 70.5 -13t58 -31.5t48.5 -37t51.5 -31.5t55.5 -13q12 0 22 10t10 24q0 10 -2 15l156 78q22 -47 22 -93q0 -89 -62 -149t-146 -60 q-37 0 -70.5 13t-58.5 31.5t-49 37t-51 31.5t-55 13q-13 0 -23.5 -10t-10.5 -24q0 -5 4 -15l-156 -78q-24 45 -24 93z" />
<glyph unicode="&#xd2;" horiz-adv-x="1357" d="M100 749q0 130 18 239t60.5 205.5t108 163t165.5 105t229 38.5q576 0 576 -768q0 -131 -17.5 -240t-59 -206.5t-106.5 -165t-165 -106.5t-229 -39q-580 0 -580 774zM300 748q0 -93 10.5 -173t37.5 -155.5t69 -128t109 -84.5t154 -32q85 0 151.5 30.5t108.5 82t69 124.5 t37.5 151.5t10.5 169.5q0 93 -10.5 172t-37 153.5t-68 126.5t-108 83.5t-152.5 31.5t-152.5 -30t-109 -81t-70 -123t-38.5 -149.5t-11 -168.5zM322 1916h208l230 -294h-162z" />
<glyph unicode="&#xd3;" horiz-adv-x="1357" d="M100 749q0 130 18 239t60.5 205.5t108 163t165.5 105t229 38.5q576 0 576 -768q0 -131 -17.5 -240t-59 -206.5t-106.5 -165t-165 -106.5t-229 -39q-580 0 -580 774zM300 748q0 -93 10.5 -173t37.5 -155.5t69 -128t109 -84.5t154 -32q85 0 151.5 30.5t108.5 82t69 124.5 t37.5 151.5t10.5 169.5q0 93 -10.5 172t-37 153.5t-68 126.5t-108 83.5t-152.5 31.5t-152.5 -30t-109 -81t-70 -123t-38.5 -149.5t-11 -168.5zM598 1622l230 294h206l-274 -294h-162z" />
<glyph unicode="&#xd4;" horiz-adv-x="1357" d="M100 749q0 130 18 239t60.5 205.5t108 163t165.5 105t229 38.5q576 0 576 -768q0 -131 -17.5 -240t-59 -206.5t-106.5 -165t-165 -106.5t-229 -39q-580 0 -580 774zM300 748q0 -93 10.5 -173t37.5 -155.5t69 -128t109 -84.5t154 -32q85 0 151.5 30.5t108.5 82t69 124.5 t37.5 151.5t10.5 169.5q0 93 -10.5 172t-37 153.5t-68 126.5t-108 83.5t-152.5 31.5t-152.5 -30t-109 -81t-70 -123t-38.5 -149.5t-11 -168.5zM345 1622l230 294h207l230 -294h-162l-171 183l-172 -183h-162z" />
<glyph unicode="&#xd5;" horiz-adv-x="1357" d="M100 749q0 130 18 239t60.5 205.5t108 163t165.5 105t229 38.5q576 0 576 -768q0 -131 -17.5 -240t-59 -206.5t-106.5 -165t-165 -106.5t-229 -39q-580 0 -580 774zM300 748q0 -93 10.5 -173t37.5 -155.5t69 -128t109 -84.5t154 -32q85 0 151.5 30.5t108.5 82t69 124.5 t37.5 151.5t10.5 169.5q0 93 -10.5 172t-37 153.5t-68 126.5t-108 83.5t-152.5 31.5t-152.5 -30t-109 -81t-70 -123t-38.5 -149.5t-11 -168.5zM328 1715q0 89 62 149t147 60q37 0 70.5 -13t58.5 -31.5t48.5 -37t51 -31.5t55.5 -13q12 0 22.5 10t10.5 24q0 8 -3 15l156 78 q22 -44 22 -93q0 -89 -61.5 -149t-146.5 -60q-37 0 -70.5 13t-58.5 31.5t-48.5 37t-51 31.5t-55.5 13q-12 0 -22.5 -10t-10.5 -24q0 -7 3 -15l-156 -78q-23 46 -23 93z" />
<glyph unicode="&#xd6;" horiz-adv-x="1357" d="M100 749q0 130 18 239t60.5 205.5t108 163t165.5 105t229 38.5q576 0 576 -768q0 -131 -17.5 -240t-59 -206.5t-106.5 -165t-165 -106.5t-229 -39q-580 0 -580 774zM300 748q0 -93 10.5 -173t37.5 -155.5t69 -128t109 -84.5t154 -32q85 0 151.5 30.5t108.5 82t69 124.5 t37.5 151.5t10.5 169.5q0 93 -10.5 172t-37 153.5t-68 126.5t-108 83.5t-152.5 31.5t-152.5 -30t-109 -81t-70 -123t-38.5 -149.5t-11 -168.5zM374 1739q0 49 34 83t83 34t83 -34t34 -83t-34 -83t-83 -34t-83 34t-34 83zM749 1739q0 49 34 83t83 34t83 -34t34 -83t-34 -83 t-83 -34t-83 34t-34 83z" />
<glyph unicode="&#xd7;" horiz-adv-x="930" d="M100 475l219 219l-158 158q-28 28 -28 70q0 43 28 71l71 71l228 -228l213 212l148 -148l-213 -212l222 -222l-141 -142l-222 222l-219 -219z" />
<glyph unicode="&#xd8;" horiz-adv-x="1357" d="M100 749q0 130 18 239t60.5 205.5t108 163t165.5 105t229 38.5q181 0 304 -75l41 71h231l-125 -215q125 -192 125 -549q0 -131 -17.5 -240t-59 -206.5t-106.5 -165t-165 -106.5t-229 -39q-156 0 -270 56l-66 -114h-231l140 241q-153 194 -153 591zM300 748 q0 -241 72 -384l507 879q-82 57 -198 57q-86 0 -152.5 -30t-109 -81t-70 -123t-38.5 -149.5t-11 -168.5zM515 212q71 -37 165 -37q85 0 151.5 30.5t108.5 82t69 124.5t37.5 151.5t10.5 169.5q0 201 -49 332z" />
<glyph unicode="&#xd9;" d="M100 525v850q0 41 30 70.5t70 29.5h100v-950q0 -172 72.5 -248.5t240.5 -76.5t240 76.5t72 248.5v950h200v-950q0 -255 -130.5 -390t-381.5 -135t-382 134.5t-131 390.5zM256 1916h208l230 -294h-162z" />
<glyph unicode="&#xda;" d="M100 525v850q0 41 30 70.5t70 29.5h100v-950q0 -172 72.5 -248.5t240.5 -76.5t240 76.5t72 248.5v950h200v-950q0 -255 -130.5 -390t-381.5 -135t-382 134.5t-131 390.5zM532 1622l230 294h206l-274 -294h-162z" />
<glyph unicode="&#xdb;" d="M100 525v850q0 41 30 70.5t70 29.5h100v-950q0 -172 72.5 -248.5t240.5 -76.5t240 76.5t72 248.5v950h200v-950q0 -255 -130.5 -390t-381.5 -135t-382 134.5t-131 390.5zM279 1622l230 294h207l230 -294h-162l-171 183l-172 -183h-162z" />
<glyph unicode="&#xdc;" d="M100 525v850q0 41 30 70.5t70 29.5h100v-950q0 -172 72.5 -248.5t240.5 -76.5t240 76.5t72 248.5v950h200v-950q0 -255 -130.5 -390t-381.5 -135t-382 134.5t-131 390.5zM308 1739q0 49 34 83t83 34t83 -34t34 -83t-34 -83t-83 -34t-83 34t-34 83zM683 1739q0 49 34 83 t83 34t83 -34t34 -83t-34 -83t-83 -34t-83 34t-34 83z" />
<glyph unicode="&#xdd;" d="M100 1150v225q0 41 30 70.5t70 29.5h100v-325q0 -172 72.5 -248.5t240.5 -76.5t240 76.5t72 248.5v325h200v-325q0 -228 -104.5 -360.5t-307.5 -158.5v-631h-200v631q-202 25 -307.5 158t-105.5 361zM532 1622l230 294h206l-274 -294h-162z" />
<glyph unicode="&#xde;" horiz-adv-x="1275" d="M100 0v1375q0 41 30 70.5t70 29.5h100v-200h375q227 0 363.5 -108t136.5 -317t-136.5 -317t-363.5 -108h-375v-425h-200zM300 625h375q144 0 222 51t78 174t-77.5 174t-222.5 51h-375v-450z" />
<glyph unicode="&#xdf;" horiz-adv-x="1132" d="M100 0v883q0 93 11.5 177t41 166.5t74.5 142.5t117 97t163 37q106 0 188.5 -58t124 -150.5t41.5 -199.5q0 -155 -85 -289q111 -52 183.5 -161t72.5 -241q0 -174 -123.5 -301.5t-296.5 -127.5q-138 0 -247 84l122 158q54 -42 125 -42q91 0 155.5 68.5t64.5 161.5 q0 99 -71.5 170.5t-170.5 72.5q-38 0 -68.5 29.5t-30.5 70.5q0 25 17.5 47t42.5 44t50 51.5t42.5 82.5t17.5 122q0 83 -42 145.5t-111 62.5q-54 0 -93 -27t-60.5 -67.5t-34.5 -101.5t-16.5 -114t-3.5 -120v-873h-200z" />
<glyph unicode="&#xe0;" horiz-adv-x="1100" d="M75 488q0 133 61.5 250.5t172 189.5t241.5 72q66 0 135 -37t115 -102v39q0 44 28 72t72 28h100v-1000h-100q-40 0 -70 30t-30 70v13q-46 -65 -115 -101.5t-134 -36.5q-100 0 -189 42t-151.5 112.5t-99 164t-36.5 194.5zM182 1416h206l230 -294h-162zM275 490 q0 -126 78.5 -220.5t194.5 -94.5q133 0 204.5 85.5t71.5 235.5q0 138 -75 221t-201 83q-114 0 -193.5 -93.5t-79.5 -216.5z" />
<glyph unicode="&#xe1;" horiz-adv-x="1100" d="M75 488q0 133 61.5 250.5t172 189.5t241.5 72q66 0 135 -37t115 -102v39q0 44 28 72t72 28h100v-1000h-100q-40 0 -70 30t-30 70v13q-46 -65 -115 -101.5t-134 -36.5q-100 0 -189 42t-151.5 112.5t-99 164t-36.5 194.5zM275 490q0 -126 78.5 -220.5t194.5 -94.5 q133 0 204.5 85.5t71.5 235.5q0 138 -75 221t-201 83q-114 0 -193.5 -93.5t-79.5 -216.5zM456 1122l230 294h208l-276 -294h-162z" />
<glyph unicode="&#xe2;" horiz-adv-x="1100" d="M75 488q0 133 61.5 250.5t172 189.5t241.5 72q66 0 135 -37t115 -102v39q0 44 28 72t72 28h100v-1000h-100q-40 0 -70 30t-30 70v13q-46 -65 -115 -101.5t-134 -36.5q-100 0 -189 42t-151.5 112.5t-99 164t-36.5 194.5zM204 1122l230 294h207l230 -294h-162l-171 183 l-172 -183h-162zM275 490q0 -126 78.5 -220.5t194.5 -94.5q133 0 204.5 85.5t71.5 235.5q0 138 -75 221t-201 83q-114 0 -193.5 -93.5t-79.5 -216.5z" />
<glyph unicode="&#xe3;" horiz-adv-x="1100" d="M75 488q0 133 61.5 250.5t172 189.5t241.5 72q66 0 135 -37t115 -102v39q0 44 28 72t72 28h100v-1000h-100q-40 0 -70 30t-30 70v13q-46 -65 -115 -101.5t-134 -36.5q-100 0 -189 42t-151.5 112.5t-99 164t-36.5 194.5zM187 1215q0 89 62 149t147 60q37 0 70.5 -13 t58.5 -31.5t48.5 -37t51 -31.5t55.5 -13q12 0 22.5 10t10.5 24q0 8 -3 15l156 78q22 -44 22 -93q0 -89 -61.5 -149t-146.5 -60q-37 0 -70.5 13t-58.5 31.5t-48.5 37t-51 31.5t-55.5 13q-12 0 -22.5 -10t-10.5 -24q0 -7 3 -15l-156 -78q-23 46 -23 93zM275 490 q0 -126 78.5 -220.5t194.5 -94.5q133 0 204.5 85.5t71.5 235.5q0 138 -75 221t-201 83q-114 0 -193.5 -93.5t-79.5 -216.5z" />
<glyph unicode="&#xe4;" horiz-adv-x="1100" d="M75 488q0 133 61.5 250.5t172 189.5t241.5 72q66 0 135 -37t115 -102v39q0 44 28 72t72 28h100v-1000h-100q-40 0 -70 30t-30 70v13q-46 -65 -115 -101.5t-134 -36.5q-100 0 -189 42t-151.5 112.5t-99 164t-36.5 194.5zM233 1239q0 49 34 83t83 34t83 -34t34 -83t-34 -83 t-83 -34t-83 34t-34 83zM275 490q0 -126 78.5 -220.5t194.5 -94.5q133 0 204.5 85.5t71.5 235.5q0 138 -75 221t-201 83q-114 0 -193.5 -93.5t-79.5 -216.5zM608 1239q0 49 34 83t83 34t83 -34t34 -83t-34 -83t-83 -34t-83 34t-34 83z" />
<glyph unicode="&#xe5;" horiz-adv-x="1100" d="M75 488q0 133 61.5 250.5t172 189.5t241.5 72q66 0 135 -37t115 -102v39q0 44 28 72t72 28h100v-1000h-100q-40 0 -70 30t-30 70v13q-46 -65 -115 -101.5t-134 -36.5q-100 0 -189 42t-151.5 112.5t-99 164t-36.5 194.5zM275 490q0 -126 78.5 -220.5t194.5 -94.5 q133 0 204.5 85.5t71.5 235.5q0 138 -75 221t-201 83q-114 0 -193.5 -93.5t-79.5 -216.5zM319 1340q0 91 64 155t155 64q90 0 154 -64t64 -155q0 -90 -64 -154t-154 -64q-91 0 -155 64t-64 154zM444 1340q0 -38 27.5 -65.5t66.5 -27.5q38 0 65.5 27.5t27.5 65.5 q0 39 -27.5 66.5t-65.5 27.5q-39 0 -66.5 -27.5t-27.5 -66.5z" />
<glyph unicode="&#xe6;" horiz-adv-x="1717" d="M100 292q0 97 56.5 170t141.5 107.5t182 34.5q133 0 278 -116q-6 156 -55 234t-161 78q-149 0 -226 -125l-172 104q59 99 162 160t240 61q182 0 291 -120q139 120 321 120q129 0 241 -65.5t177.5 -177.5t65.5 -242v-108h-772q26 -98 108.5 -165t187.5 -67q61 0 119 25.5 t99 69.5l146 -136q-70 -76 -165.5 -117.5t-198.5 -41.5q-102 0 -195 45t-165 122q-62 -71 -156.5 -119t-168.5 -48q-97 0 -182 35.5t-142 109.5t-57 172zM306 282q0 -45 44.5 -76t130.5 -31q186 0 278 95v52q-93 82 -279 82q-78 0 -126 -37t-48 -85zM897 607h546 q-29 82 -103 137.5t-166 55.5t-168 -55.5t-109 -137.5z" />
<glyph unicode="&#xe7;" horiz-adv-x="1090" d="M75 488q0 136 66.5 254t182 188t250.5 70q151 0 268.5 -81.5t172.5 -204.5l-182 -82q-75 168 -259 168q-124 0 -211.5 -93t-87.5 -220q0 -126 88 -219t211 -93q184 0 259 168l182 -82q-51 -113 -155.5 -192t-239.5 -92l-11 -30q66 -16 110 -69t44 -127q0 -100 -76 -163.5 t-178 -63.5q-97 0 -174 53.5t-113 132.5l136 62q20 -43 59.5 -70.5t92.5 -27.5q41 0 72 20.5t31 56.5q0 22 -15 37t-37 15q-11 0 -32 -8.5t-31 -8.5q-31 0 -52.5 24.5t-21.5 54.5q0 14 4 23l36 100q-168 40 -278.5 181t-110.5 319z" />
<glyph unicode="&#xe8;" horiz-adv-x="1134" d="M75 490q0 137 67 254.5t182 186.5t250 69q129 0 241 -65.5t178 -177.5t66 -242v-108h-773q26 -98 108.5 -165t187.5 -67q75 0 124.5 23.5t94.5 71.5l146 -136q-70 -76 -166 -117.5t-199 -41.5q-137 0 -254 70t-185 189t-68 256zM211 1416h207l230 -294h-162zM297 582h546 q-62 218 -269 218t-277 -218z" />
<glyph unicode="&#xe9;" horiz-adv-x="1134" d="M75 490q0 137 67 254.5t182 186.5t250 69q129 0 241 -65.5t178 -177.5t66 -242v-108h-773q26 -98 108.5 -165t187.5 -67q75 0 124.5 23.5t94.5 71.5l146 -136q-70 -76 -166 -117.5t-199 -41.5q-137 0 -254 70t-185 189t-68 256zM297 582h546q-62 218 -269 218t-277 -218z M486 1122l230 294h207l-275 -294h-162z" />
<glyph unicode="&#xea;" horiz-adv-x="1134" d="M75 490q0 137 67 254.5t182 186.5t250 69q129 0 241 -65.5t178 -177.5t66 -242v-108h-773q26 -98 108.5 -165t187.5 -67q75 0 124.5 23.5t94.5 71.5l146 -136q-70 -76 -166 -117.5t-199 -41.5q-137 0 -254 70t-185 189t-68 256zM234 1122l230 294h206l230 -294h-162 l-170 183l-172 -183h-162zM297 582h546q-62 218 -269 218t-277 -218z" />
<glyph unicode="&#xeb;" horiz-adv-x="1134" d="M75 490q0 137 67 254.5t182 186.5t250 69q129 0 241 -65.5t178 -177.5t66 -242v-108h-773q26 -98 108.5 -165t187.5 -67q75 0 124.5 23.5t94.5 71.5l146 -136q-70 -76 -166 -117.5t-199 -41.5q-137 0 -254 70t-185 189t-68 256zM262 1239q0 49 34.5 83t83.5 34 q48 0 82 -34t34 -83t-34 -83t-82 -34q-49 0 -83.5 34t-34.5 83zM297 582h546q-62 218 -269 218t-277 -218zM638 1239q0 49 34 83t82 34q49 0 83.5 -34t34.5 -83t-34.5 -83t-83.5 -34q-48 0 -82 34t-34 83z" />
<glyph unicode="&#xec;" horiz-adv-x="410" d="M-151 1416h207l230 -294h-162zM105 0v900q0 43 28.5 71.5t71.5 28.5h100v-1000h-200z" />
<glyph unicode="&#xed;" horiz-adv-x="410" d="M105 0v900q0 43 28.5 71.5t71.5 28.5h100v-1000h-200zM124 1122l230 294h207l-275 -294h-162z" />
<glyph unicode="&#xee;" horiz-adv-x="410" d="M-128 1122l230 294h206l230 -294h-162l-170 183l-172 -183h-162zM105 0v900q0 43 28.5 71.5t71.5 28.5h100v-1000h-200z" />
<glyph unicode="&#xef;" horiz-adv-x="410" d="M-100 1239q0 49 34.5 83t83.5 34q48 0 82 -34t34 -83t-34 -83t-82 -34q-49 0 -83.5 34t-34.5 83zM105 0v900q0 43 28.5 71.5t71.5 28.5h100v-1000h-200zM276 1239q0 49 34 83t82 34q49 0 83.5 -34t34.5 -83t-34.5 -83t-83.5 -34q-48 0 -82 34t-34 83z" />
<glyph unicode="&#xf0;" horiz-adv-x="1164" d="M100 462q0 139 66 259t182 192t254 72q75 0 150 -23.5t122 -81.5q-47 161 -170 320l-139 -45l-31 95l101 33q-81 92 -197 192h245q73 -58 135 -132l136 45l31 -95l-103 -34q182 -270 182 -603q0 -101 -19.5 -198t-60.5 -185t-100.5 -154t-145.5 -105t-188 -39 q-125 0 -229 68t-162.5 179.5t-58.5 239.5zM300 462q0 -114 72.5 -200.5t177.5 -86.5q77 0 137 38.5t95 103.5t53.5 138t23.5 155q-30 75 -99 125t-159 50q-125 0 -213 -96t-88 -227z" />
<glyph unicode="&#xf1;" horiz-adv-x="1075" d="M100 0v900q0 40 30 70t70 30h100v-108q110 108 238 108q224 0 330.5 -139t106.5 -386v-475h-200v475q0 65 -5.5 112t-20.5 89.5t-41 68t-68.5 40.5t-101.5 15t-101.5 -15t-69 -40.5t-41.5 -68t-20.5 -89.5t-5.5 -112v-475h-200zM187 1215q0 89 62 149t147 60 q37 0 70.5 -13t58.5 -31.5t48.5 -37t51 -31.5t55.5 -13q12 0 22.5 10t10.5 24q0 8 -3 15l156 78q22 -44 22 -93q0 -89 -61.5 -149t-146.5 -60q-37 0 -70.5 13t-58.5 31.5t-48.5 37t-51 31.5t-55.5 13q-12 0 -22.5 -10t-10.5 -24q0 -7 3 -15l-156 -78q-23 46 -23 93z" />
<glyph unicode="&#xf2;" horiz-adv-x="1100" d="M75 487q0 134 61.5 251.5t172 189.5t242.5 72q131 0 241 -71.5t171.5 -188.5t61.5 -251t-61.5 -252t-172 -190t-243.5 -72q-131 0 -241 72t-171 189.5t-61 250.5zM194 1416h207l230 -294h-162zM275 486q0 -124 79.5 -217.5t195.5 -93.5q117 0 195.5 94.5t78.5 219.5 q0 124 -79 217.5t-194 93.5q-117 0 -196.5 -94.5t-79.5 -219.5z" />
<glyph unicode="&#xf3;" horiz-adv-x="1100" d="M75 487q0 134 61.5 251.5t172 189.5t242.5 72q131 0 241 -71.5t171.5 -188.5t61.5 -251t-61.5 -252t-172 -190t-243.5 -72q-131 0 -241 72t-171 189.5t-61 250.5zM275 486q0 -124 79.5 -217.5t195.5 -93.5q117 0 195.5 94.5t78.5 219.5q0 124 -79 217.5t-194 93.5 q-117 0 -196.5 -94.5t-79.5 -219.5zM469 1122l230 294h207l-275 -294h-162z" />
<glyph unicode="&#xf4;" horiz-adv-x="1100" d="M75 487q0 134 61.5 251.5t172 189.5t242.5 72q131 0 241 -71.5t171.5 -188.5t61.5 -251t-61.5 -252t-172 -190t-243.5 -72q-131 0 -241 72t-171 189.5t-61 250.5zM216 1122l230 294h208l230 -294h-162l-172 183l-172 -183h-162zM275 486q0 -124 79.5 -217.5t195.5 -93.5 q117 0 195.5 94.5t78.5 219.5q0 124 -79 217.5t-194 93.5q-117 0 -196.5 -94.5t-79.5 -219.5z" />
<glyph unicode="&#xf5;" horiz-adv-x="1100" d="M75 487q0 134 61.5 251.5t172 189.5t242.5 72q131 0 241 -71.5t171.5 -188.5t61.5 -251t-61.5 -252t-172 -190t-243.5 -72q-131 0 -241 72t-171 189.5t-61 250.5zM200 1215q0 89 62 149t146 60q37 0 70.5 -13t58.5 -31.5t49 -37t51 -31.5t55 -13q13 0 23.5 10t10.5 24 q0 5 -4 15l156 78q22 -41 22 -93q0 -89 -61.5 -149t-146.5 -60q-37 0 -70.5 13t-58 31.5t-48.5 37t-51.5 31.5t-55.5 13q-12 0 -22 -10t-10 -24q0 -10 2 -15l-156 -78q-22 47 -22 93zM275 486q0 -124 79.5 -217.5t195.5 -93.5q117 0 195.5 94.5t78.5 219.5q0 124 -79 217.5 t-194 93.5q-117 0 -196.5 -94.5t-79.5 -219.5z" />
<glyph unicode="&#xf6;" horiz-adv-x="1100" d="M75 487q0 134 61.5 251.5t172 189.5t242.5 72q131 0 241 -71.5t171.5 -188.5t61.5 -251t-61.5 -252t-172 -190t-243.5 -72q-131 0 -241 72t-171 189.5t-61 250.5zM246 1239q0 49 34 83t82 34q49 0 83.5 -34t34.5 -83t-34.5 -83t-83.5 -34q-48 0 -82 34t-34 83zM275 486 q0 -124 79.5 -217.5t195.5 -93.5q117 0 195.5 94.5t78.5 219.5q0 124 -79 217.5t-194 93.5q-117 0 -196.5 -94.5t-79.5 -219.5zM620 1239q0 49 34.5 83t83.5 34q48 0 82 -34t34 -83t-34 -83t-82 -34q-49 0 -83.5 34t-34.5 83z" />
<glyph unicode="&#xf7;" horiz-adv-x="975" d="M100 625v100q0 41 30 70.5t70 29.5h675v-200h-775zM375 355q0 49 34 83t83 34t83 -34t34 -83t-34 -83t-83 -34t-83 34t-34 83zM375 1055q0 49 34 83t83 34t83 -34t34 -83t-34 -83t-83 -34t-83 34t-34 83z" />
<glyph unicode="&#xf8;" horiz-adv-x="1150" d="M100 -108l144 229q-68 72 -106 167.5t-38 198.5q0 134 61.5 251.5t172 189.5t242.5 72q101 0 192 -44l46 71h236l-124 -196q124 -150 124 -342q0 -134 -61.5 -252t-172 -190t-243.5 -72q-86 0 -164 32l-73 -115h-236zM300 486q0 -105 56 -187l305 486q-39 15 -85 15 q-117 0 -196.5 -94.5t-79.5 -219.5zM519 182q31 -7 56 -7q117 0 195.5 94.5t78.5 219.5q0 84 -39 157z" />
<glyph unicode="&#xf9;" horiz-adv-x="1075" d="M100 525v375q0 40 30 70t70 30h100v-475q0 -58 5.5 -102.5t20.5 -88t41 -72t69 -45.5t102 -17q58 0 101 17t69 45.5t41 72t20.5 88t5.5 102.5v475h200v-475q0 -247 -106.5 -386t-330.5 -139t-331 139t-107 386zM182 1416h206l230 -294h-162z" />
<glyph unicode="&#xfa;" horiz-adv-x="1075" d="M100 525v375q0 40 30 70t70 30h100v-475q0 -58 5.5 -102.5t20.5 -88t41 -72t69 -45.5t102 -17q58 0 101 17t69 45.5t41 72t20.5 88t5.5 102.5v475h200v-475q0 -247 -106.5 -386t-330.5 -139t-331 139t-107 386zM456 1122l230 294h208l-276 -294h-162z" />
<glyph unicode="&#xfb;" horiz-adv-x="1075" d="M100 525v375q0 40 30 70t70 30h100v-475q0 -58 5.5 -102.5t20.5 -88t41 -72t69 -45.5t102 -17q58 0 101 17t69 45.5t41 72t20.5 88t5.5 102.5v475h200v-475q0 -247 -106.5 -386t-330.5 -139t-331 139t-107 386zM204 1122l230 294h207l230 -294h-162l-171 183l-172 -183 h-162z" />
<glyph unicode="&#xfc;" horiz-adv-x="1075" d="M100 525v375q0 40 30 70t70 30h100v-475q0 -58 5.5 -102.5t20.5 -88t41 -72t69 -45.5t102 -17q58 0 101 17t69 45.5t41 72t20.5 88t5.5 102.5v475h200v-475q0 -247 -106.5 -386t-330.5 -139t-331 139t-107 386zM233 1239q0 49 34 83t83 34t83 -34t34 -83t-34 -83t-83 -34 t-83 34t-34 83zM608 1239q0 49 34 83t83 34t83 -34t34 -83t-34 -83t-83 -34t-83 34t-34 83z" />
<glyph unicode="&#xfd;" horiz-adv-x="1075" d="M100 525v375q0 40 30 70t70 30h100v-475q0 -65 5.5 -112t20.5 -89.5t41 -68t68.5 -40.5t101.5 -15t101.5 15t69 40.5t41.5 68t20.5 89.5t5.5 112v475h200v-925q0 -147 -44.5 -257.5t-141 -176.5t-235.5 -66q-129 0 -232 62t-162 159l172 104q33 -55 91 -90t131 -35 q121 0 171 78.5t50 221.5v33q-110 -108 -238 -108q-224 0 -330.5 139t-106.5 386zM456 1122l230 294h208l-276 -294h-162z" />
<glyph unicode="&#xfe;" horiz-adv-x="1125" d="M100 -410v1785q0 43 28.5 71.5t71.5 28.5h100v-613q46 65 115 101.5t134 36.5q100 0 189 -42t151.5 -112.5t99 -164t36.5 -194.5q0 -133 -61.5 -250.5t-172 -189.5t-241.5 -72q-66 0 -135 37t-115 102v-524h-200zM276 479q0 -138 75 -221t201 -83q114 0 193.5 93.5 t79.5 216.5q0 126 -78.5 220.5t-194.5 94.5q-133 0 -204.5 -85.5t-71.5 -235.5z" />
<glyph unicode="&#xff;" horiz-adv-x="1075" d="M100 525v375q0 40 30 70t70 30h100v-475q0 -65 5.5 -112t20.5 -89.5t41 -68t68.5 -40.5t101.5 -15t101.5 15t69 40.5t41.5 68t20.5 89.5t5.5 112v475h200v-925q0 -147 -44.5 -257.5t-141 -176.5t-235.5 -66q-129 0 -232 62t-162 159l172 104q33 -55 91 -90t131 -35 q121 0 171 78.5t50 221.5v33q-110 -108 -238 -108q-224 0 -330.5 139t-106.5 386zM233 1239q0 49 34 83t83 34t83 -34t34 -83t-34 -83t-83 -34t-83 34t-34 83zM608 1239q0 49 34 83t83 34t83 -34t34 -83t-34 -83t-83 -34t-83 34t-34 83z" />
<glyph unicode="&#x152;" horiz-adv-x="1906" d="M100 749q0 726 581 726h1125v-200h-725v-400h550v-200h-550v-475h725v-200h-1126q-131 0 -232 38t-166.5 103t-106.5 161.5t-58 205t-17 241.5zM300 748q0 -548 380 -548h201v1075h-200q-381 0 -381 -527z" />
<glyph unicode="&#x153;" horiz-adv-x="1809" d="M75 487q0 134 61.5 251.5t172 189.5t242.5 72q99 0 186.5 -42t153.5 -115q70 74 162.5 115.5t195.5 41.5q129 0 241 -65.5t178 -177.5t66 -242v-108h-773v-1q26 -98 108.5 -164.5t187.5 -66.5q61 0 119.5 25.5t99.5 69.5l146 -136q-70 -76 -166 -117.5t-199 -41.5 q-105 0 -200 42.5t-165 117.5q-66 -75 -154.5 -117.5t-189.5 -42.5q-131 0 -241 72t-171 189.5t-61 250.5zM275 486q0 -124 79.5 -217.5t195.5 -93.5q117 0 195.5 94.5t78.5 219.5q0 124 -79 217.5t-194 93.5q-117 0 -196.5 -94.5t-79.5 -219.5zM972 607h546 q-29 82 -103 137.5t-166 55.5t-168 -55.5t-109 -137.5z" />
<glyph unicode="&#x178;" d="M100 1150v225q0 41 30 70.5t70 29.5h100v-325q0 -172 72.5 -248.5t240.5 -76.5t240 76.5t72 248.5v325h200v-325q0 -228 -104.5 -360.5t-307.5 -158.5v-631h-200v631q-202 25 -307.5 158t-105.5 361zM308 1739q0 49 34 83t83 34t83 -34t34 -83t-34 -83t-83 -34t-83 34 t-34 83zM683 1739q0 49 34 83t83 34t83 -34t34 -83t-34 -83t-83 -34t-83 34t-34 83z" />
<glyph unicode="&#x2c6;" horiz-adv-x="867" d="M100 1150l230 294h207l230 -294h-162l-171 183l-172 -183h-162z" />
<glyph unicode="&#x2dc;" horiz-adv-x="512" d="M-350 1065q0 89 62 149t146 60q37 0 70.5 -13t58.5 -31.5t49 -37t51 -31.5t55 -13q13 0 23.5 10t10.5 24q0 5 -4 15l156 78q22 -41 22 -93q0 -89 -61.5 -149t-146.5 -60q-37 0 -70.5 13t-58 31.5t-48.5 37t-51.5 31.5t-55.5 13q-12 0 -22 -10t-10 -24q0 -10 2 -15 l-156 -78q-22 47 -22 93z" />
<glyph unicode="&#x2000;" horiz-adv-x="986" />
<glyph unicode="&#x2001;" horiz-adv-x="1972" />
<glyph unicode="&#x2002;" horiz-adv-x="986" />
<glyph unicode="&#x2003;" horiz-adv-x="1972" />
<glyph unicode="&#x2004;" horiz-adv-x="657" />
<glyph unicode="&#x2005;" horiz-adv-x="493" />
<glyph unicode="&#x2006;" horiz-adv-x="328" />
<glyph unicode="&#x2007;" horiz-adv-x="328" />
<glyph unicode="&#x2008;" horiz-adv-x="246" />
<glyph unicode="&#x2009;" horiz-adv-x="394" />
<glyph unicode="&#x200a;" horiz-adv-x="109" />
<glyph unicode="&#x2010;" horiz-adv-x="800" d="M100 625v100q0 41 30 70.5t70 29.5h500v-200h-600z" />
<glyph unicode="&#x2011;" horiz-adv-x="800" d="M100 625v100q0 41 30 70.5t70 29.5h500v-200h-600z" />
<glyph unicode="&#x2012;" horiz-adv-x="800" d="M100 625v100q0 41 30 70.5t70 29.5h500v-200h-600z" />
<glyph unicode="&#x2013;" horiz-adv-x="1024" d="M100 625v100q0 41 30 70.5t70 29.5h724v-200h-824z" />
<glyph unicode="&#x2014;" horiz-adv-x="2048" d="M100 625v100q0 41 30 70.5t70 29.5h1748v-200h-1848z" />
<glyph unicode="&#x2018;" horiz-adv-x="409" d="M100 1223q0 174 141 274l58 -82q-42 -30 -69 -76q44 -5 74 -37.5t30 -78.5q0 -49 -34 -83t-83 -34t-83 34t-34 83z" />
<glyph unicode="&#x2019;" horiz-adv-x="375" d="M100 1380q0 49 34 83t83 34t83 -34t34 -83q0 -174 -141 -274l-58 82q42 30 69 76q-44 5 -74 37.5t-30 78.5z" />
<glyph unicode="&#x201a;" horiz-adv-x="409" d="M100 98q0 46 30 78.5t74 37.5q-27 46 -69 76l58 82q141 -100 141 -274q0 -49 -34 -83t-83 -34t-83 34t-34 83z" />
<glyph unicode="&#x201c;" horiz-adv-x="734" d="M100 1223q0 174 141 274l58 -82q-42 -30 -69 -76q44 -5 74 -37.5t30 -78.5q0 -49 -34 -83t-83 -34t-83 34t-34 83zM425 1223q0 174 141 274l58 -82q-42 -30 -69 -76q44 -5 74 -37.5t30 -78.5q0 -49 -34 -83t-83 -34t-83 34t-34 83z" />
<glyph unicode="&#x201d;" horiz-adv-x="709" d="M75 1380q0 49 34 83t83 34t83 -34t34 -83q0 -174 -141 -274l-58 82q42 30 69 76q-44 5 -74 37.5t-30 78.5zM375 1380q0 49 34 83t83 34t83 -34t34 -83q0 -174 -141 -274l-58 82q42 30 69 76q-44 5 -74 37.5t-30 78.5z" />
<glyph unicode="&#x201e;" horiz-adv-x="734" d="M100 98q0 -49 34 -83t83 -34t83 34t34 83q0 174 -141 274l-58 -82q42 -30 69 -76q-44 -5 -74 -37.5t-30 -78.5zM425 98q0 -49 34 -83t83 -34t83 34t34 83q0 174 -141 274l-58 -82q42 -30 69 -76q-44 -5 -74 -37.5t-30 -78.5z" />
<glyph unicode="&#x2026;" horiz-adv-x="1227" d="M75 105q0 49 34 83t83 34t83 -34t34 -83t-34 -83t-83 -34t-83 34t-34 83zM484 105q0 49 34 83t83 34t83 -34t34 -83t-34 -83t-83 -34t-83 34t-34 83zM893 105q0 49 34 83t83 34t83 -34t34 -83t-34 -83t-83 -34t-83 34t-34 83z" />
<glyph unicode="&#x202f;" horiz-adv-x="394" />
<glyph unicode="&#x2039;" horiz-adv-x="494" d="M100 538q0 20 5 32l150 386h139l-113 -418l113 -418h-139l-150 386q-5 12 -5 32z" />
<glyph unicode="&#x203a;" horiz-adv-x="494" d="M100 120l113 418l-113 418h139l150 -386q5 -12 5 -32t-5 -32l-150 -386h-139z" />
<glyph unicode="&#x205f;" horiz-adv-x="493" />
<glyph unicode="&#x20ac;" horiz-adv-x="1609" d="M100 425v175h110q-10 60 -10 128v22h-100v100q0 40 30 70t70 30h32q67 230 249.5 377t421.5 147q234 0 393 -142t210 -370h-204q-38 140 -142.5 226t-256.5 86q-156 0 -278.5 -89.5t-181.5 -234.5h407v-200h-450v-22q0 -64 14 -128h436v-175h-367q68 -115 177.5 -182.5 t242.5 -67.5q155 0 260.5 91.5t142.5 239.5h203q-48 -234 -209 -382.5t-397 -148.5q-216 0 -388 124.5t-255 325.5h-160z" />
<glyph unicode="&#x2122;" horiz-adv-x="1655" d="M100 1518v60q0 24 18 42t42 18h555v-120h-255v-765h-120v765h-240zM835 753v825q0 24 18 42t42 18q26 0 46 -22l254 -304l271 326h89v-885h-120v659l-240 -286l-240 286v-659h-120z" />
</font>
</defs>
</svg>
