<?xml version="1.0" standalone="no"?>
<!DOCTYPE svg PUBLIC "-//W3C//DTD SVG 1.1//EN" "http://www.w3.org/Graphics/SVG/1.1/DTD/svg11.dtd" >
<svg xmlns="http://www.w3.org/2000/svg">
<metadata></metadata>
<defs>
<font id="prosto_sansbold" horiz-adv-x="1298" >
<font-face units-per-em="2048" ascent="1638" descent="-410" />
<missing-glyph horiz-adv-x="593" />
<glyph horiz-adv-x="0" />
<glyph horiz-adv-x="682" />
<glyph unicode=" "  horiz-adv-x="593" />
<glyph unicode="&#x09;" horiz-adv-x="593" />
<glyph unicode="&#xa0;" horiz-adv-x="593" />
<glyph unicode="!" horiz-adv-x="606" d="M139 133q0 62 48 108t116 46t116 -46t48 -108t-48 -107.5t-116 -45.5t-116 45.5t-48 107.5zM160 778v656h286v-656l-40 -348h-205z" />
<glyph unicode="&#x22;" horiz-adv-x="835" d="M111 1167v267h225v-267l-31 -225h-164zM500 1167v267h225v-267l-31 -225h-164z" />
<glyph unicode="#" horiz-adv-x="1585" d="M55 328v225h277l82 328h-256v225h307l82 328h266l-82 -328h307l82 328h266l-81 -328h225v-225h-277l-82 -328h256v-225h-307l-82 -328h-266l82 328h-307l-82 -328h-266l82 328h-226zM598 553h307l82 328h-307z" />
<glyph unicode="$" d="M66 154l122 194q7 -6 19.5 -16.5t54 -37t85.5 -46.5t110 -36.5t131 -16.5q167 0 257.5 66.5t90.5 158.5q0 41 -27.5 72t-74.5 52.5t-107.5 40t-127.5 38t-134.5 42.5t-128 58t-107.5 79.5t-74.5 111.5t-27.5 151q0 133 107 244.5t292 148.5v180h246v-168q73 -8 144 -28 t120.5 -43.5t88.5 -46t58 -37.5l19 -15l-112 -194q-7 5 -19 13.5t-52 29.5t-82 37t-104 29.5t-122 13.5q-135 0 -211 -51.5t-76 -112.5q0 -51 35 -89.5t91.5 -61.5t129.5 -47t148.5 -44t148.5 -54t129.5 -76.5t91.5 -112.5t35 -160q0 -164 -121 -288.5t-340 -160.5v-176 h-246v168q-80 8 -156.5 30.5t-129 49.5t-94 52t-60.5 42z" />
<glyph unicode="%" horiz-adv-x="1753" d="M37 1126q0 148 104.5 248.5t264.5 100.5t264 -100.5t104 -248.5t-104 -248t-264 -100t-264.5 100t-104.5 248zM252 0l942 1434h297l-942 -1434h-297zM262 1126q0 -75 40.5 -119t103.5 -44t103 44t40 119t-40 119.5t-103 44.5t-103.5 -44.5t-40.5 -119.5zM979 307 q0 148 104.5 248t264.5 100t264 -100t104 -248t-104 -248t-264 -100t-264.5 100t-104.5 248zM1204 307q0 -75 40.5 -119.5t103.5 -44.5t103 44.5t40 119.5t-40 119.5t-103 44.5t-103.5 -44.5t-40.5 -119.5z" />
<glyph unicode="&#x26;" horiz-adv-x="1525" d="M55 369q0 59 17.5 112t45.5 91t62 70.5t68 53t62 35t46 21.5l17 6v10q-8 5 -21 13.5t-46.5 39t-59.5 64.5t-47 88.5t-21 111.5q0 159 132 274.5t339 115.5q139 0 248 -55t166 -143.5t57 -191.5q0 -46 -16 -90t-41 -77.5t-55.5 -63.5t-61 -51t-55.5 -36t-41 -23l-16 -7 v-10l266 -246q3 5 8.5 13.5t20 36.5t25 58.5t19.5 76.5t9 92h235q0 -77 -13.5 -152t-33.5 -126.5t-39.5 -92.5t-32.5 -61l-14 -19l205 -184l-174 -184l-215 194q-7 -7 -20.5 -19t-60.5 -42t-99 -52.5t-134 -41.5t-168 -19q-134 0 -243 33.5t-177.5 91t-105.5 130.5t-37 155z M342 379q0 -75 78.5 -135t208.5 -60q49 0 96 11.5t80 28.5t59 33.5t38 28.5l13 11l-358 328q-9 -4 -23.5 -11t-51.5 -31t-65.5 -51t-51.5 -68.5t-23 -84.5zM455 1085q0 -32 17.5 -65.5t42 -59t49 -47t42.5 -32.5l17 -11q9 3 24 9.5t53 28t67 44.5t53 59.5t24 73.5 q0 71 -52.5 117.5t-142.5 46.5t-142 -46.5t-52 -117.5z" />
<glyph unicode="'" horiz-adv-x="446" d="M111 1167v267h225v-267l-31 -225h-164z" />
<glyph unicode="(" horiz-adv-x="884" d="M129 532q0 112 18.5 222t50 201.5t72 178t85.5 155.5t90.5 129t86 103.5t72 75t50.5 47.5l18 15l184 -164q-9 -9 -25 -24.5t-61.5 -69t-87 -111.5t-92.5 -146.5t-87.5 -178.5t-61.5 -205t-25 -228t24.5 -227t63 -206t85.5 -177t94 -148t85.5 -109.5t63.5 -70.5l24 -24 l-184 -164q-11 9 -30.5 26t-76 75.5t-108 123t-114 166t-107.5 208t-76 246t-31 281.5z" />
<glyph unicode=")" horiz-adv-x="884" d="M29 -430q9 9 25 24.5t61.5 69t87 111t92.5 146.5t87.5 179t61.5 204.5t25 227.5t-24.5 227t-63 206t-85.5 177.5t-94 148t-85.5 109.5t-62.5 71l-25 24l184 164q11 -9 30.5 -26t76 -75.5t108 -123t114 -166.5t107.5 -208.5t76 -246t31 -281.5t-30 -281t-78 -247.5 t-106 -206.5t-115.5 -167.5t-105.5 -121.5t-78 -77l-30 -25z" />
<glyph unicode="*" horiz-adv-x="1011" d="M66 1044l61 195l276 -92v287h205v-287l277 92l61 -195l-276 -92l174 -235l-164 -113l-174 225l-174 -227l-164 115l174 235z" />
<glyph unicode="+" horiz-adv-x="1191" d="M84 584v245h389v390h246v-390h389v-245h-389v-389h-246v389h-389z" />
<glyph unicode="," horiz-adv-x="495" d="M84 133q0 62 48 108t116 46q70 0 117 -51t47 -134q0 -52 -13.5 -100.5t-35.5 -84.5t-48 -67t-52 -52t-48 -36t-35 -22l-14 -6l-51 92q81 71 112 143v11q-62 8 -102.5 50t-40.5 103z" />
<glyph unicode="-" horiz-adv-x="1120" d="M84 584v245h952v-245h-952z" />
<glyph unicode="." horiz-adv-x="495" d="M84 133q0 62 48 108t116 46t116 -46t48 -108t-48 -107.5t-116 -45.5t-116 45.5t-48 107.5z" />
<glyph unicode="/" horiz-adv-x="1159" d="M37 -102l788 1638h297l-788 -1638h-297z" />
<glyph unicode="0" horiz-adv-x="1495" d="M92 717q0 173 50.5 316.5t139 239.5t208.5 149t258 53t258 -53t208 -149t138.5 -239.5t50.5 -316.5t-50.5 -316.5t-138.5 -239.5t-208 -149t-258 -53t-258 53t-208.5 149t-139 239.5t-50.5 316.5zM379 717q0 -242 107 -377t262 -135t261.5 135t106.5 377t-106.5 377 t-261.5 135t-262 -135t-107 -377z" />
<glyph unicode="1" horiz-adv-x="909" d="M37 1065l450 369h246v-1434h-287v1085h-10l-256 -204z" />
<glyph unicode="2" horiz-adv-x="1294" d="M66 0v236l614 460q104 78 154.5 146.5t50.5 161.5q0 97 -80 161t-227 64q-63 0 -126.5 -12.5t-109 -30.5t-81.5 -36.5t-55 -31.5l-18 -12l-122 194q9 7 25 19t69 42t109 53t140.5 42t168.5 19q142 0 258 -37.5t190.5 -101t115 -146.5t40.5 -176q0 -82 -22.5 -151.5 t-69.5 -129.5t-98 -107t-128 -104l-368 -276v-10h696v-236h-1126z" />
<glyph unicode="3" horiz-adv-x="1306" d="M37 154l123 194q7 -6 20.5 -15.5t56.5 -34t88.5 -43.5t112 -34.5t131.5 -15.5q157 0 247.5 64t90.5 141q0 91 -83.5 153t-243.5 62h-236v215l440 348v10h-675v236h1054v-236l-450 -358v-11q217 0 354 -122.5t137 -296.5q0 -94 -39.5 -174.5t-116 -143t-199.5 -98 t-280 -35.5q-91 0 -179.5 20t-149.5 48.5t-109 57.5t-71 49z" />
<glyph unicode="4" horiz-adv-x="1400" d="M55 287v245l809 902h287v-902h195v-245h-195v-287h-287v287h-809zM393 532h471v533h-10l-461 -522v-11z" />
<glyph unicode="5" horiz-adv-x="1353" d="M84 154l123 194q7 -6 20 -15.5t54.5 -34t85.5 -43.5t109.5 -34.5t129.5 -15.5q176 0 262 64.5t86 170.5q0 104 -79.5 170t-227.5 66q-79 0 -158.5 -23t-118.5 -46l-40 -23l-164 123v727h1014v-236h-727v-328q11 6 32 14.5t85 23t128 14.5q165 0 292 -65t194 -174.5 t67 -242.5q0 -98 -41 -185t-118 -153t-197 -104.5t-268 -38.5q-92 0 -181.5 20t-152 48.5t-112 57.5t-73.5 49z" />
<glyph unicode="6" horiz-adv-x="1374" d="M92 696q0 181 51 328.5t141 246t214 151.5t270 53q74 0 149 -15t129 -36t97 -42t65 -36l21 -15l-123 -194q-6 4 -16.5 10t-45 22t-69.5 28t-86.5 22t-100.5 10q-167 0 -280.5 -109.5t-128.5 -279.5h10q5 4 15.5 11t43.5 24.5t68 31t87 24.5t104 11q131 0 241.5 -39.5 t184.5 -106.5t115.5 -156t41.5 -189t-41.5 -189.5t-115.5 -156.5t-184.5 -106.5t-241.5 -39.5t-243 49.5t-195 141.5t-130 232.5t-47 313.5zM389 604q0 -178 94.5 -288.5t223.5 -110.5q127 0 206.5 71.5t79.5 174.5t-79.5 174t-206.5 71q-82 0 -161.5 -23t-117.5 -46z" />
<glyph unicode="7" horiz-adv-x="1210" d="M47 1198v236h1116v-236l-563 -1198h-317l553 1184v14h-789z" />
<glyph unicode="8" horiz-adv-x="1376" d="M74 389q0 61 17 114t44 88.5t60 64t65.5 45.5t59.5 28t44 15l17 4v10q-5 1 -13.5 4t-33 14.5t-47 26t-49.5 40t-46.5 55.5t-33 74t-13.5 93q0 79 36.5 152.5t103.5 131t172 92t231 34.5t231 -34.5t172 -92t103.5 -131t36.5 -152.5q0 -49 -13 -93t-34 -74t-46 -55 t-50 -40.5t-46 -26t-34 -14.5l-13 -4v-10q6 -1 17.5 -4t43.5 -15t61 -28t64.5 -45.5t61 -64.5t43 -88t17.5 -114q0 -82 -41 -158t-116 -137t-194.5 -98t-263.5 -37t-263 37t-194.5 98t-116 137t-40.5 158zM371 410q0 -84 82.5 -144.5t234.5 -60.5t235 61t83 144t-83 143.5 t-235 60.5t-234.5 -60.5t-82.5 -143.5zM442 1044q0 -73 68 -128.5t178 -55.5q111 0 178.5 55t67.5 129q0 73 -68 129t-178 56t-178 -56t-68 -129z" />
<glyph unicode="9" horiz-adv-x="1374" d="M84 983q0 100 41.5 189.5t115.5 156.5t185 106.5t242 39.5t243 -49.5t194.5 -142t129.5 -233t47 -313.5q0 -181 -51 -328.5t-141 -245.5t-214 -151t-270 -53q-74 0 -149 14.5t-129 36t-97 42.5t-65 36l-21 14l123 195q6 -4 16.5 -10t45 -22t69.5 -28t86.5 -22t100.5 -10 q167 0 280.5 109.5t128.5 279.5h-10q-5 -4 -15.5 -11t-43 -24.5t-67.5 -31t-87 -24.5t-104 -11q-131 0 -242 39.5t-185 106.5t-115.5 156t-41.5 189zM381 983q0 -103 80 -174.5t207 -71.5q82 0 161 23t117 46l39 23q0 178 -94 289t-223 111q-127 0 -207 -71.5t-80 -174.5z " />
<glyph unicode=":" horiz-adv-x="512" d="M92 133q0 62 48 108t116 46t116 -46t48 -108t-48 -107.5t-116 -45.5t-116 45.5t-48 107.5zM92 911q0 62 48 108t116 46t116 -46t48 -108t-48 -107.5t-116 -45.5t-116 45.5t-48 107.5z" />
<glyph unicode=";" horiz-adv-x="512" d="M92 133q0 62 48 108t116 46q70 0 117 -51t47 -134q0 -52 -13.5 -100.5t-35.5 -84.5t-48 -67t-52 -52t-48 -36t-35 -22l-14 -6l-51 92q9 8 23.5 22t45 51.5t44.5 69.5v11q-62 8 -103 50t-41 103zM92 911q0 62 48 108t116 46t116 -46t48 -108t-48 -107.5t-116 -45.5 t-116 45.5t-48 107.5z" />
<glyph unicode="&#x3c;" horiz-adv-x="1163" d="M111 389v256l942 389v-246l-656 -266v-10l656 -266v-246z" />
<glyph unicode="=" horiz-adv-x="1146" d="M102 328v245h942v-245h-942zM102 788v246h942v-246h-942z" />
<glyph unicode="&#x3e;" horiz-adv-x="1163" d="M111 0v246l655 266v10l-655 266v246l942 -389v-256z" />
<glyph unicode="?" horiz-adv-x="1196" d="M37 1300q8 7 23.5 19t66.5 42t104.5 53t135 42t161.5 19q138 0 252 -37t188 -100t114 -144t40 -170q0 -69 -25 -126.5t-64.5 -97t-87.5 -73.5t-96 -62t-87.5 -54.5t-64.5 -59.5t-25 -70v-51h-246v51q0 60 22 112.5t57 90t78 71t85.5 63.5t77.5 60t57 67.5t22 78.5 q0 85 -83 145t-214 60q-55 0 -113.5 -12.5t-102 -30.5t-79 -36.5t-54.5 -31.5l-19 -12zM385 133q0 62 48 108t116 46t116 -46t48 -108t-48 -107.5t-116 -45.5t-116 45.5t-48 107.5z" />
<glyph unicode="@" horiz-adv-x="2050" d="M92 614q0 182 72.5 348t196.5 288t300 194t373 72q216 0 396.5 -60.5t298 -161.5t182.5 -232t65 -274q0 -97 -32 -182.5t-101.5 -159.5t-171 -127t-248.5 -83.5t-327 -30.5q-203 0 -332 118.5t-129 290.5t129.5 291t331.5 119q86 0 170.5 -15t125.5 -31l42 -15v-512 q6 1 16.5 4.5t40 15.5t56.5 28t60 44t56.5 61t40 81t16.5 103q0 74 -29.5 146.5t-88.5 136.5t-140 113t-192 77.5t-236 28.5q-139 0 -265 -54t-215.5 -144.5t-142.5 -215.5t-53 -262q0 -140 53 -265t144 -215t218.5 -142.5t270.5 -52.5q94 0 184 13.5t152 33.5t111 39.5 t73 32.5l23 14l92 -195q-10 -7 -29.5 -18t-84 -39t-133.5 -50t-175 -39.5t-213 -17.5q-199 0 -377 72t-303.5 193.5t-198.5 287.5t-73 348zM870 614q0 -91 63 -147.5t163 -56.5q27 0 52.5 2.5t37.5 5.5l12 2v379q-41 20 -102 20q-98 0 -162 -58t-64 -147z" />
<glyph unicode="A" horiz-adv-x="1583" d="M18 0l594 1434h359l594 -1434h-308l-112 287h-707l-112 -287h-308zM541 532h501l-245 594h-11z" />
<glyph unicode="B" horiz-adv-x="1511" d="M166 0v1434h635q273 0 407.5 -106t134.5 -284q0 -46 -13 -86t-33.5 -68t-45.5 -50.5t-50.5 -36t-46 -23t-33.5 -12.5l-13 -4v-10q7 -1 19 -4t47.5 -14.5t67 -26.5t70.5 -43t67.5 -62t47.5 -84.5t19 -109.5q0 -82 -37 -155t-106 -130.5t-178 -91t-244 -33.5h-715zM453 236 h430q132 0 199 51.5t67 132.5q0 89 -66.5 141.5t-199.5 52.5h-430v-378zM453 850h348q117 0 181.5 50t64.5 124t-64.5 124t-181.5 50h-348v-348z" />
<glyph unicode="C" horiz-adv-x="1429" d="M84 717q0 218 98 390.5t278 270t412 97.5q83 0 163.5 -15t135.5 -36t98 -42t64 -36l21 -15l-123 -194q-17 10 -46.5 25.5t-118.5 41t-173 25.5q-230 0 -371 -141t-141 -371t141 -371t371 -141q57 0 115 11.5t100 28t75.5 33t50.5 28.5l17 11l123 -194q-8 -7 -23 -18 t-65 -39t-104.5 -50t-139 -39.5t-170.5 -17.5q-232 0 -412 97.5t-278 270t-98 390.5z" />
<glyph unicode="D" horiz-adv-x="1570" d="M166 0v1434h553q170 0 314 -54.5t243.5 -150t155 -228t55.5 -284.5q0 -208 -95 -371t-270.5 -254.5t-402.5 -91.5h-553zM453 236h266q208 0 339.5 133.5t131.5 347.5t-131.5 347.5t-339.5 133.5h-266v-962z" />
<glyph unicode="E" horiz-adv-x="1388" d="M166 0v1434h1147v-236h-860v-369h594v-235h-594v-358h880v-236h-1167z" />
<glyph unicode="F" horiz-adv-x="1349" d="M166 0v1434h1147v-236h-860v-432h594v-234h-594v-532h-287z" />
<glyph unicode="G" horiz-adv-x="1536" d="M84 717q0 163 57 303.5t158.5 240.5t247 157t315.5 57q83 0 163 -15t135 -36t98.5 -42t63.5 -36l21 -15l-122 -194q-17 10 -46.5 25.5t-118.5 41t-173 25.5q-230 0 -371 -141t-141 -371t141 -371t371 -141q64 0 125 12.5t90 25.5l30 13v338h-297v235h584v-692 q-9 -7 -26 -19t-73.5 -43t-117 -54.5t-152.5 -42.5t-184 -19q-170 0 -315.5 57t-247 157t-158.5 240.5t-57 303.5z" />
<glyph unicode="H" horiz-adv-x="1642" d="M166 0v1434h287v-605h737v605h287v-1434h-287v594h-737v-594h-287z" />
<glyph unicode="I" horiz-adv-x="618" d="M166 0v1434h287v-1434h-287z" />
<glyph unicode="J" horiz-adv-x="1128" d="M18 82l113 205q4 -3 12 -8.5t33.5 -20t52.5 -25t67.5 -19.5t80.5 -9q131 0 219 90t88 227v676h-481v236h768v-912q0 -254 -157 -408.5t-417 -154.5q-63 0 -125 12.5t-106 30.5t-79 36.5t-52 31.5z" />
<glyph unicode="K" horiz-adv-x="1497" d="M166 0v1434h287v-676h10l645 676h348l-563 -605l604 -829h-328l-460 635l-256 -266v-369h-287z" />
<glyph unicode="L" d="M166 0v1434h287v-1198h809v-236h-1096z" />
<glyph unicode="M" horiz-adv-x="2033" d="M111 0l174 1434h317l410 -891h10l410 891h317l174 -1434h-297l-113 973h-10l-358 -768h-256l-359 768h-10l-112 -973h-297z" />
<glyph unicode="N" horiz-adv-x="1642" d="M166 0v1434h307l707 -983h10v983h287v-1434h-308l-706 983h-10v-983h-287z" />
<glyph unicode="O" horiz-adv-x="1703" d="M84 717q0 218 97.5 391t273 270t397.5 97t397.5 -97t273 -270t97.5 -391t-97.5 -391t-273 -270t-397.5 -97t-397.5 97t-273 270t-97.5 391zM381 717q0 -227 134.5 -369.5t336.5 -142.5t336.5 142.5t134.5 369.5t-134.5 369.5t-336.5 142.5t-336.5 -142.5t-134.5 -369.5z " />
<glyph unicode="P" horiz-adv-x="1501" d="M166 0v1434h655q146 0 264 -38t194 -104.5t116.5 -156t40.5 -193.5t-40.5 -193t-116.5 -155.5t-194 -104.5t-264 -38h-368v-451h-287zM453 686h368q141 0 229.5 76t88.5 180t-88.5 180t-229.5 76h-368v-512z" />
<glyph unicode="Q" horiz-adv-x="1699" d="M92 717q0 163 57 304t156.5 240.5t240.5 156.5t304 57t304 -57t240.5 -156.5t156.5 -240.5t57 -304q0 -106 -26.5 -204t-64 -162.5t-75 -113.5t-64.5 -71l-26 -23l235 -348h-307l-143 215q-14 -6 -39 -14.5t-100 -22.5t-148 -14q-163 0 -304 57t-240.5 156.5 t-156.5 240.5t-57 304zM379 717q0 -227 134.5 -369.5t336.5 -142.5q36 0 72 5t54 10l17 5l-164 246h308l71 -102q5 5 12.5 14.5t27 43t34.5 71t27 97t12 122.5q0 227 -134.5 369.5t-336.5 142.5t-336.5 -142.5t-134.5 -369.5z" />
<glyph unicode="R" horiz-adv-x="1556" d="M166 0v1434h655q282 0 438 -132t156 -339q0 -86 -27.5 -160t-66.5 -118t-78 -75.5t-67 -43.5l-27 -13v-10l379 -543h-338l-338 492h-399v-492h-287zM453 727h368q138 0 217.5 71.5t79.5 164.5q0 104 -77.5 169.5t-219.5 65.5h-368v-471z" />
<glyph unicode="S" d="M66 154l122 194q7 -6 19.5 -16.5t54 -37t85.5 -46.5t110 -36.5t131 -16.5q167 0 257.5 66.5t90.5 158.5q0 41 -27.5 72t-74.5 52.5t-107.5 40t-127.5 38t-134.5 42.5t-128 58t-107.5 79.5t-74.5 111.5t-27.5 151q0 78 38.5 151t108 131t178 93t238.5 35q86 0 170.5 -18 t143.5 -43.5t105.5 -51.5t69.5 -44l23 -18l-112 -194q-7 5 -19 13.5t-52 29.5t-82 37t-104 29.5t-122 13.5q-135 0 -211 -51.5t-76 -112.5q0 -51 35 -89.5t91.5 -61.5t129.5 -47t148.5 -44t148.5 -54t129.5 -76.5t91.5 -112.5t35 -160q0 -93 -41 -176t-117 -146.5t-197 -101 t-270 -37.5q-93 0 -183 20t-152 48.5t-111 57.5t-72 49z" />
<glyph unicode="T" horiz-adv-x="1343" d="M37 1198v236h1270v-236h-492v-1198h-287v1198h-491z" />
<glyph unicode="U" horiz-adv-x="1626" d="M158 573v861h286v-861q0 -169 100 -268.5t269 -99.5t269 99.5t100 268.5v861h286v-861q0 -271 -179.5 -442.5t-475.5 -171.5t-475.5 171.5t-179.5 442.5z" />
<glyph unicode="V" horiz-adv-x="1521" d="M18 1434h318l420 -1127h10l420 1127h317l-563 -1434h-358z" />
<glyph unicode="W" horiz-adv-x="2234" d="M37 1434h307l297 -1076h10l293 1076h346l293 -1076h10l297 1076h308l-400 -1434h-379l-297 1065h-10l-297 -1065h-379z" />
<glyph unicode="X" horiz-adv-x="1505" d="M0 0l543 737l-482 697h349l338 -492h10l338 492h348l-481 -697l542 -737h-348l-399 532h-10l-400 -532h-348z" />
<glyph unicode="Y" horiz-adv-x="1454" d="M0 1434h307l410 -697h20l410 697h307l-584 -983v-451h-286v451z" />
<glyph unicode="Z" horiz-adv-x="1359" d="M66 0v236l839 952v10h-819v236h1198v-236l-840 -952v-10h850v-236h-1228z" />
<glyph unicode="[" horiz-adv-x="817" d="M166 -553v2171h614v-246h-327v-1679h327v-246h-614z" />
<glyph unicode="\" horiz-adv-x="1159" d="M37 1536h297l788 -1638h-297z" />
<glyph unicode="]" horiz-adv-x="817" d="M37 -307h328v1679h-328v246h614v-2171h-614v246zM37 -311h317v1687h-317v242h604v-2171h-604v242z" />
<glyph unicode="^" horiz-adv-x="1087" d="M47 778l369 656h256l368 -656h-276l-215 400h-10l-215 -400h-277z" />
<glyph unicode="_" horiz-adv-x="1005" d="M37 -123h932v-235h-932v235z" />
<glyph unicode="`" horiz-adv-x="608" d="M74 1434h307l154 -379h-216z" />
<glyph unicode="a" horiz-adv-x="1583" d="M18 0l594 1434h359l594 -1434h-308l-112 287h-707l-112 -287h-308zM541 532h501l-245 594h-11z" />
<glyph unicode="b" horiz-adv-x="1511" d="M166 0v1434h635q273 0 407.5 -106t134.5 -284q0 -46 -13 -86t-33.5 -68t-45.5 -50.5t-50.5 -36t-46 -23t-33.5 -12.5l-13 -4v-10q7 -1 19 -4t47.5 -14.5t67 -26.5t70.5 -43t67.5 -62t47.5 -84.5t19 -109.5q0 -82 -37 -155t-106 -130.5t-178 -91t-244 -33.5h-715zM453 236 h430q132 0 199 51.5t67 132.5q0 89 -66.5 141.5t-199.5 52.5h-430v-378zM453 850h348q117 0 181.5 50t64.5 124t-64.5 124t-181.5 50h-348v-348z" />
<glyph unicode="c" horiz-adv-x="1429" d="M84 717q0 218 98 390.5t278 270t412 97.5q83 0 163.5 -15t135.5 -36t98 -42t64 -36l21 -15l-123 -194q-17 10 -46.5 25.5t-118.5 41t-173 25.5q-230 0 -371 -141t-141 -371t141 -371t371 -141q57 0 115 11.5t100 28t75.5 33t50.5 28.5l17 11l123 -194q-8 -7 -23 -18 t-65 -39t-104.5 -50t-139 -39.5t-170.5 -17.5q-232 0 -412 97.5t-278 270t-98 390.5z" />
<glyph unicode="d" horiz-adv-x="1570" d="M166 0v1434h553q170 0 314 -54.5t243.5 -150t155 -228t55.5 -284.5q0 -208 -95 -371t-270.5 -254.5t-402.5 -91.5h-553zM453 236h266q208 0 339.5 133.5t131.5 347.5t-131.5 347.5t-339.5 133.5h-266v-962z" />
<glyph unicode="e" horiz-adv-x="1388" d="M166 0v1434h1147v-236h-860v-369h594v-235h-594v-358h880v-236h-1167z" />
<glyph unicode="f" horiz-adv-x="1349" d="M166 0v1434h1147v-236h-860v-432h594v-234h-594v-532h-287z" />
<glyph unicode="g" horiz-adv-x="1536" d="M84 717q0 163 57 303.5t158.5 240.5t247 157t315.5 57q83 0 163 -15t135 -36t98.5 -42t63.5 -36l21 -15l-122 -194q-17 10 -46.5 25.5t-118.5 41t-173 25.5q-230 0 -371 -141t-141 -371t141 -371t371 -141q64 0 125 12.5t90 25.5l30 13v338h-297v235h584v-692 q-9 -7 -26 -19t-73.5 -43t-117 -54.5t-152.5 -42.5t-184 -19q-170 0 -315.5 57t-247 157t-158.5 240.5t-57 303.5z" />
<glyph unicode="h" horiz-adv-x="1642" d="M166 0v1434h287v-605h737v605h287v-1434h-287v594h-737v-594h-287z" />
<glyph unicode="i" horiz-adv-x="618" d="M166 0v1434h287v-1434h-287z" />
<glyph unicode="j" horiz-adv-x="1128" d="M18 82l113 205q4 -3 12 -8.5t33.5 -20t52.5 -25t67.5 -19.5t80.5 -9q131 0 219 90t88 227v676h-481v236h768v-912q0 -254 -157 -408.5t-417 -154.5q-63 0 -125 12.5t-106 30.5t-79 36.5t-52 31.5z" />
<glyph unicode="k" horiz-adv-x="1497" d="M166 0v1434h287v-676h10l645 676h348l-563 -605l604 -829h-328l-460 635l-256 -266v-369h-287z" />
<glyph unicode="l" d="M166 0v1434h287v-1198h809v-236h-1096z" />
<glyph unicode="m" horiz-adv-x="2033" d="M111 0l174 1434h317l410 -891h10l410 891h317l174 -1434h-297l-113 973h-10l-358 -768h-256l-359 768h-10l-112 -973h-297z" />
<glyph unicode="n" horiz-adv-x="1642" d="M166 0v1434h307l707 -983h10v983h287v-1434h-308l-706 983h-10v-983h-287z" />
<glyph unicode="o" horiz-adv-x="1703" d="M84 717q0 218 97.5 391t273 270t397.5 97t397.5 -97t273 -270t97.5 -391t-97.5 -391t-273 -270t-397.5 -97t-397.5 97t-273 270t-97.5 391zM381 717q0 -227 134.5 -369.5t336.5 -142.5t336.5 142.5t134.5 369.5t-134.5 369.5t-336.5 142.5t-336.5 -142.5t-134.5 -369.5z " />
<glyph unicode="p" horiz-adv-x="1501" d="M166 0v1434h655q146 0 264 -38t194 -104.5t116.5 -156t40.5 -193.5t-40.5 -193t-116.5 -155.5t-194 -104.5t-264 -38h-368v-451h-287zM453 686h368q141 0 229.5 76t88.5 180t-88.5 180t-229.5 76h-368v-512z" />
<glyph unicode="q" horiz-adv-x="1699" d="M92 717q0 163 57 304t156.5 240.5t240.5 156.5t304 57t304 -57t240.5 -156.5t156.5 -240.5t57 -304q0 -106 -26.5 -204t-64 -162.5t-75 -113.5t-64.5 -71l-26 -23l235 -348h-307l-143 215q-14 -6 -39 -14.5t-100 -22.5t-148 -14q-163 0 -304 57t-240.5 156.5 t-156.5 240.5t-57 304zM379 717q0 -227 134.5 -369.5t336.5 -142.5q36 0 72 5t54 10l17 5l-164 246h308l71 -102q5 5 12.5 14.5t27 43t34.5 71t27 97t12 122.5q0 227 -134.5 369.5t-336.5 142.5t-336.5 -142.5t-134.5 -369.5z" />
<glyph unicode="r" horiz-adv-x="1556" d="M166 0v1434h655q282 0 438 -132t156 -339q0 -86 -27.5 -160t-66.5 -118t-78 -75.5t-67 -43.5l-27 -13v-10l379 -543h-338l-338 492h-399v-492h-287zM453 727h368q138 0 217.5 71.5t79.5 164.5q0 104 -77.5 169.5t-219.5 65.5h-368v-471z" />
<glyph unicode="s" d="M66 154l122 194q7 -6 19.5 -16.5t54 -37t85.5 -46.5t110 -36.5t131 -16.5q167 0 257.5 66.5t90.5 158.5q0 41 -27.5 72t-74.5 52.5t-107.5 40t-127.5 38t-134.5 42.5t-128 58t-107.5 79.5t-74.5 111.5t-27.5 151q0 78 38.5 151t108 131t178 93t238.5 35q86 0 170.5 -18 t143.5 -43.5t105.5 -51.5t69.5 -44l23 -18l-112 -194q-7 5 -19 13.5t-52 29.5t-82 37t-104 29.5t-122 13.5q-135 0 -211 -51.5t-76 -112.5q0 -51 35 -89.5t91.5 -61.5t129.5 -47t148.5 -44t148.5 -54t129.5 -76.5t91.5 -112.5t35 -160q0 -93 -41 -176t-117 -146.5t-197 -101 t-270 -37.5q-93 0 -183 20t-152 48.5t-111 57.5t-72 49z" />
<glyph unicode="t" horiz-adv-x="1343" d="M37 1198v236h1270v-236h-492v-1198h-287v1198h-491z" />
<glyph unicode="u" horiz-adv-x="1626" d="M158 573v861h286v-861q0 -169 100 -268.5t269 -99.5t269 99.5t100 268.5v861h286v-861q0 -271 -179.5 -442.5t-475.5 -171.5t-475.5 171.5t-179.5 442.5z" />
<glyph unicode="v" horiz-adv-x="1521" d="M18 1434h318l420 -1127h10l420 1127h317l-563 -1434h-358z" />
<glyph unicode="w" horiz-adv-x="2234" d="M37 1434h307l297 -1076h10l293 1076h346l293 -1076h10l297 1076h308l-400 -1434h-379l-297 1065h-10l-297 -1065h-379z" />
<glyph unicode="x" horiz-adv-x="1505" d="M0 0l543 737l-482 697h349l338 -492h10l338 492h348l-481 -697l542 -737h-348l-399 532h-10l-400 -532h-348z" />
<glyph unicode="y" horiz-adv-x="1454" d="M0 1434h307l410 -697h20l410 697h307l-584 -983v-451h-286v451z" />
<glyph unicode="z" horiz-adv-x="1359" d="M66 0v236l839 952v10h-819v236h1198v-236l-840 -952v-10h850v-236h-1228z" />
<glyph unicode="{" horiz-adv-x="849" d="M55 410v245h72q55 0 94 41.5t39 102.5v450q0 158 117.5 263.5t312.5 105.5h123v-246h-123q-60 0 -101.5 -38t-41.5 -85v-450q0 -60 -18 -108t-43.5 -74.5t-51 -44.5t-43.5 -24l-18 -5v-21q7 -2 19 -6t42 -23t52.5 -44.5t41.5 -74t19 -108.5v-450q0 -47 41.5 -85 t101.5 -38h123v-246h-123q-195 0 -312.5 105.5t-117.5 263.5v450q0 61 -39 102.5t-94 41.5h-72z" />
<glyph unicode="|" horiz-adv-x="628" d="M176 -389v2068h277v-2068h-277z" />
<glyph unicode="}" horiz-adv-x="849" d="M37 -307h123q60 0 101.5 38t41.5 85v450q0 60 18 108t43.5 74.5t51 44.5t43.5 23l18 6v21q-7 2 -19 6t-42 23t-52.5 44.5t-41.5 74t-19 108.5v450q0 47 -41.5 85t-101.5 38h-123v246h123q195 0 312.5 -105.5t117.5 -263.5v-450q0 -61 39 -102.5t94 -41.5h72v-245h-72 q-55 0 -94 -41.5t-39 -102.5v-450q0 -158 -117.5 -263.5t-312.5 -105.5h-123v246z" />
<glyph unicode="~" horiz-adv-x="1187" d="M92 492v133q0 144 76 225.5t201 81.5q54 0 103.5 -20t86 -49t69 -57.5t66 -48.5t64.5 -20q46 0 74 28.5t28 74.5v71h236v-133q0 -144 -76 -225.5t-201 -81.5q-54 0 -103.5 20t-86 48.5t-69 57.5t-66 49t-64.5 20q-46 0 -74 -28.5t-28 -74.5v-71h-236z" />
<glyph unicode="&#xa4;" horiz-adv-x="1460" d="M55 215v236h174v81h-174v236h174v666h594q268 0 415.5 -126t147.5 -325t-147.5 -325t-415.5 -126h-307v-81h649v-236h-649v-215h-287v215h-174zM516 768h307q119 0 193 63.5t74 151.5t-74 151.5t-193 63.5h-307v-430z" />
<glyph unicode="&#xa6;" horiz-adv-x="628" d="M176 -389v850h277v-850h-277zM176 829v850h277v-850h-277z" />
<glyph unicode="&#xa7;" horiz-adv-x="1114" d="M66 -256l112 186q6 -5 17.5 -14.5t47 -32.5t71 -41t86 -32.5t96.5 -14.5q128 0 192 42.5t64 101.5q0 40 -28.5 74t-75.5 58.5t-107 51t-122 50t-122 57.5t-107 72.5t-75.5 95t-28.5 124.5q0 63 25.5 117t61.5 85.5t72 54t61 31.5l26 9v10q-8 3 -20 9t-44 29.5t-56.5 52.5 t-44.5 79t-20 107q0 70 31 135.5t88.5 118t149 84t202.5 31.5q69 0 135.5 -14t112 -33.5t81.5 -39t53 -33.5l18 -14l-113 -186q-14 11 -38.5 26.5t-94 41.5t-133.5 26q-101 0 -158 -43t-57 -100q0 -45 34.5 -81.5t89.5 -62.5t121.5 -52t133.5 -57.5t122 -71t89.5 -100.5 t34.5 -138q0 -60 -25.5 -113t-61.5 -85t-72 -56t-62 -33l-25 -10v-10q9 -4 24 -11.5t54 -34t68.5 -58t54 -84t24.5 -109.5q0 -70 -34.5 -135.5t-97.5 -118t-162 -84t-218 -31.5q-74 0 -148 18t-126 43.5t-93.5 51t-62.5 43.5zM362 522q0 -37 23.5 -68.5t56.5 -50.5t66 -32 t56 -18l24 -5q7 2 19.5 5.5t44.5 19.5t56 36t44 55.5t20 78.5q0 37 -23 68.5t-56 50.5t-66.5 32t-56.5 18l-23 5q-8 -2 -20 -5.5t-44 -19t-56.5 -35.5t-44.5 -56t-20 -79z" />
<glyph unicode="&#xa9;" horiz-adv-x="2068" d="M92 614q0 182 73 348t198 288t300.5 194t370.5 72t370.5 -72t300.5 -194t198 -288t73 -348t-73 -348t-198 -287.5t-300.5 -193.5t-370.5 -72t-370.5 72t-300.5 193.5t-198 287.5t-73 348zM348 614q0 -136 54.5 -260.5t146 -215.5t219 -145t266.5 -54t266.5 54t219 145 t146 215.5t54.5 260.5t-54.5 261t-146 216t-219 145t-266.5 54t-266.5 -54t-219 -145t-146 -216t-54.5 -261zM635 614q0 170 123.5 290t306.5 120q49 0 97.5 -10.5t83 -25.5t62 -30t40.5 -26l14 -10l-92 -154q-9 6 -26 14.5t-65.5 22.5t-93.5 14q-92 0 -148 -56.5 t-56 -148.5t56 -148t148 -56q50 0 99 15t72 31l24 15l92 -154q-5 -5 -14.5 -12.5t-40.5 -26.5t-64.5 -34t-84.5 -27t-103 -12q-183 0 -306.5 119.5t-123.5 289.5z" />
<glyph unicode="&#xab;" horiz-adv-x="1212" d="M74 522l358 502l205 -133l-266 -359v-20l266 -358l-205 -134zM575 522l359 502l205 -133l-267 -359v-20l267 -358l-205 -134z" />
<glyph unicode="&#xac;" horiz-adv-x="1189" d="M84 686v236h1014v-512h-267v276h-747z" />
<glyph unicode="&#xad;" horiz-adv-x="1120" d="M84 584v245h952v-245h-952z" />
<glyph unicode="&#xae;" horiz-adv-x="2068" d="M92 614q0 182 73 348t198 288t300.5 194t370.5 72t370.5 -72t300.5 -194t198 -288t73 -348t-73 -348t-198 -287.5t-300.5 -193.5t-370.5 -72t-370.5 72t-300.5 193.5t-198 287.5t-73 348zM348 614q0 -136 54.5 -260.5t146 -215.5t219 -145t266.5 -54t266.5 54t219 145 t146 215.5t54.5 260.5t-54.5 261t-146 216t-219 145t-266.5 54t-266.5 -54t-219 -145t-146 -216t-54.5 -261zM686 225v779h399q164 0 246 -68t82 -188q0 -43 -16 -80t-38.5 -59t-44.5 -38t-38 -22l-16 -6v-11l204 -307h-256l-174 267h-112v-267h-236zM922 676h163 q37 0 59.5 20.5t22.5 51.5t-22 51t-60 20h-163v-143z" />
<glyph unicode="&#xb0;" horiz-adv-x="905" d="M74 1126q0 148 106.5 248.5t272.5 100.5t272 -100t106 -249q0 -148 -106 -248t-272 -100q-167 0 -273 100t-106 248zM279 1126q0 -76 48.5 -125t125.5 -49t125.5 49t48.5 125t-48.5 125t-125.5 49t-125.5 -49t-48.5 -125z" />
<glyph unicode="&#xb1;" horiz-adv-x="1191" d="M84 113v245h389v340h-389v246h389v389h246v-389h389v-246h-389v-340h389v-245h-1024z" />
<glyph unicode="&#xb5;" horiz-adv-x="1314" d="M139 528h2v496h267v-496l4 -151q14 -87 86 -140t186 -53q50 0 106.5 8t87.5 16l31 7v809h267v-973q-22 -10 -61 -25.5t-152 -41t-218 -25.5q-63 0 -120 11t-93 26.5t-63 31.5t-39 27l-12 11h-10v-455h-267z" />
<glyph unicode="&#xb6;" horiz-adv-x="1345" d="M37 1034q0 170 116.5 285t292.5 115h881v-236h-184v-1587h-266v1587h-175v-1587h-266v1044q-169 0 -284 109t-115 270z" />
<glyph unicode="&#xb7;" horiz-adv-x="585" d="M129 717q0 62 48 107.5t116 45.5t116 -45.5t48 -107.5t-48 -108t-116 -46t-116 46t-48 108z" />
<glyph unicode="&#xbb;" horiz-adv-x="1212" d="M74 154l266 358v20l-266 359l205 133l358 -502l-358 -502zM575 154l267 358v20l-267 359l205 133l359 -502l-359 -502z" />
<glyph unicode="&#x2000;" horiz-adv-x="839" />
<glyph unicode="&#x2001;" horiz-adv-x="1679" />
<glyph unicode="&#x2002;" horiz-adv-x="839" />
<glyph unicode="&#x2003;" horiz-adv-x="1679" />
<glyph unicode="&#x2004;" horiz-adv-x="559" />
<glyph unicode="&#x2005;" horiz-adv-x="419" />
<glyph unicode="&#x2006;" horiz-adv-x="279" />
<glyph unicode="&#x2007;" horiz-adv-x="279" />
<glyph unicode="&#x2008;" horiz-adv-x="209" />
<glyph unicode="&#x2009;" horiz-adv-x="335" />
<glyph unicode="&#x200a;" horiz-adv-x="93" />
<glyph unicode="&#x2010;" horiz-adv-x="1120" d="M84 584v245h952v-245h-952z" />
<glyph unicode="&#x2011;" horiz-adv-x="1120" d="M84 584v245h952v-245h-952z" />
<glyph unicode="&#x2012;" horiz-adv-x="1120" d="M84 584v245h952v-245h-952z" />
<glyph unicode="&#x2013;" horiz-adv-x="1427" d="M84 563v246h1259v-246h-1259z" />
<glyph unicode="&#x2014;" horiz-adv-x="1785" d="M84 563v246h1618v-246h-1618z" />
<glyph unicode="&#x2018;" horiz-adv-x="495" d="M98 1085q0 72 25.5 136t61.5 105t72 71.5t61 43.5l26 13l51 -92q-81 -71 -112 -143v-11q62 -8 102.5 -50t40.5 -103q0 -62 -48 -108t-116 -46q-71 0 -117.5 50.5t-46.5 133.5z" />
<glyph unicode="&#x2019;" horiz-adv-x="495" d="M84 1300q0 62 48 108t116 46q71 0 117.5 -50.5t46.5 -133.5q0 -72 -25.5 -136t-61.5 -105t-72 -71.5t-61 -43.5l-26 -13l-51 92q81 72 112 144v10q-62 8 -102.5 50t-40.5 103z" />
<glyph unicode="&#x201a;" horiz-adv-x="495" d="M84 133q0 62 48 108t116 46q70 0 117 -51t47 -134q0 -52 -13.5 -100.5t-35.5 -84.5t-48 -67t-52 -52t-48 -36t-35 -22l-14 -6l-51 92q81 71 112 143v11q-62 8 -102.5 50t-40.5 103z" />
<glyph unicode="&#x201c;" horiz-adv-x="915" d="M98 1085q0 72 25.5 136t61.5 105t72 71.5t61 43.5l26 13l51 -92q-81 -71 -112 -143v-11q62 -8 102.5 -50t40.5 -103q0 -62 -48 -108t-116 -46q-71 0 -117.5 50.5t-46.5 133.5zM518 1085q0 72 25.5 136t61.5 105t72 71.5t61 43.5l26 13l51 -92q-9 -8 -23.5 -22t-45 -51.5 t-44.5 -69.5v-11q62 -8 103 -50t41 -103q0 -62 -48 -108t-116 -46q-71 0 -117.5 50.5t-46.5 133.5z" />
<glyph unicode="&#x201d;" horiz-adv-x="915" d="M84 1300q0 62 48 108t116 46q71 0 117.5 -50.5t46.5 -133.5q0 -72 -25.5 -136t-61.5 -105t-72 -71.5t-61 -43.5l-26 -13l-51 92q81 72 112 144v10q-62 8 -102.5 50t-40.5 103zM504 1300q0 62 48 108t116 46q70 0 116.5 -50.5t46.5 -133.5q0 -72 -25 -136t-61.5 -105 t-72.5 -71.5t-61 -43.5l-25 -13l-51 92q81 72 112 144v10q-62 8 -102.5 50t-40.5 103z" />
<glyph unicode="&#x201e;" horiz-adv-x="915" d="M84 133q0 62 48 108t116 46q70 0 117 -51t47 -134q0 -52 -13.5 -100.5t-35.5 -84.5t-48 -67t-52 -52t-48 -36t-35 -22l-14 -6l-51 92q81 71 112 143v11q-62 8 -102.5 50t-40.5 103zM504 133q0 62 48 108t116 46q70 0 116.5 -51t46.5 -134q0 -52 -13.5 -100.5t-35 -84.5 t-48 -67t-52.5 -52t-47.5 -36t-34.5 -22l-14 -6l-51 92q81 71 112 143v11q-62 8 -102.5 50t-40.5 103z" />
<glyph unicode="&#x2022;" horiz-adv-x="819" d="M184 614q0 93 63.5 154t162.5 61t162 -61t63 -154t-63 -154t-162 -61q-98 0 -162 61t-64 154z" />
<glyph unicode="&#x2026;" horiz-adv-x="1601" d="M84 133q0 62 48 108t116 46t116 -46t48 -108t-48 -107.5t-116 -45.5t-116 45.5t-48 107.5zM637 133q0 62 48 108t116 46t116 -46t48 -108t-48 -107.5t-116 -45.5t-116 45.5t-48 107.5zM1190 133q0 62 48 108t116 46t116 -46t48 -108t-48 -107.5t-116 -45.5t-116 45.5 t-48 107.5z" />
<glyph unicode="&#x202f;" horiz-adv-x="335" />
<glyph unicode="&#x2039;" horiz-adv-x="843" d="M84 522l502 543l174 -174l-338 -359v-20l338 -358l-174 -174z" />
<glyph unicode="&#x203a;" horiz-adv-x="843" d="M84 154l338 358v20l-338 359l174 174l502 -543l-502 -542z" />
<glyph unicode="&#x205f;" horiz-adv-x="419" />
<glyph unicode="&#x20ac;" horiz-adv-x="1536" d="M37 471v195h164v102h-164v195h199q73 234 271 373t472 139q83 0 163 -15t135 -36t98.5 -42t64.5 -36l20 -15l-123 -194q-17 10 -46.5 25.5t-118.5 41t-173 25.5q-146 0 -264.5 -70.5t-181.5 -195.5h580v-195h-635v-102h635v-195h-580q63 -125 181.5 -195.5t264.5 -70.5 q57 0 115.5 11.5t100 28t75.5 33t51 28.5l17 11l123 -194q-8 -7 -23 -18t-65 -39t-104.5 -50t-139 -39.5t-170.5 -17.5q-275 0 -472.5 138.5t-270.5 373.5h-199z" />
<glyph unicode="&#x2122;" horiz-adv-x="1882" d="M18 1249v185h717v-185h-246v-512h-225v512h-246zM786 737l82 697h236l178 -379h12l179 379h235l82 -697h-215l-41 400h-10l-154 -318h-164l-153 318h-11l-41 -400h-215z" />
<glyph unicode="&#x25fc;" horiz-adv-x="1433" d="M0 0v1434h1434v-1434h-1434z" />
</font>
</defs>
</svg>
