<?xml version="1.0" standalone="no"?>
<!DOCTYPE svg PUBLIC "-//W3C//DTD SVG 1.1//EN" "http://www.w3.org/Graphics/SVG/1.1/DTD/svg11.dtd" >
<svg xmlns="http://www.w3.org/2000/svg">
<metadata></metadata>
<defs>
<font id="topekaregular" horiz-adv-x="1806" >
<font-face units-per-em="2048" ascent="1536" descent="-512" />
<missing-glyph horiz-adv-x="1024" />
<glyph horiz-adv-x="0" />
<glyph unicode="&#xd;" horiz-adv-x="1024" />
<glyph unicode=" "  horiz-adv-x="1024" />
<glyph unicode="&#x09;" horiz-adv-x="1024" />
<glyph unicode="&#xa0;" horiz-adv-x="1024" />
<glyph unicode="!" horiz-adv-x="516" d="M82 125q0 53 52 89t128 36t128 -36t52 -89t-52 -89t-128 -36t-128 36t-52 89zM129 391v1049h258v-1049q-43 10 -71.5 13.5t-55.5 3.5t-55.5 -4.5t-75.5 -12.5z" />
<glyph unicode="&#x22;" horiz-adv-x="741" d="M35 1028l143 397h207l-143 -397h-207zM340 1028l143 397h207l-143 -397h-207z" />
<glyph unicode="#" horiz-adv-x="1312" d="M102 401v150h199l76 362h-275v150h304l88 428h149l-88 -428h315l88 428h150l-86 -428h172v-150h-203l-73 -362h276v-150h-307l-86 -426h-152l86 426h-313l-86 -426h-152l88 426h-170zM453 551h313l76 362h-316z" />
<glyph unicode="$" horiz-adv-x="976" d="M66 299h174q39 -59 101 -96t142 -37q61 0 108.5 9t79 31.5t48 61.5t16.5 99q0 115 -59.5 186.5t-179.5 75.5q-74 2 -149 30.5t-133 81t-95 125t-37 160.5q0 76 29.5 136.5t79 106.5t110.5 75.5t123 41.5v130h115v-123q68 -8 126 -40t105 -76t82 -92t55 -89h-174 q-37 59 -93 108t-136 49q-125 0 -195.5 -52t-70.5 -173q0 -117 66.5 -163t187.5 -50q74 -2 148.5 -39t132.5 -98.5t95 -142t37 -166.5q0 -80 -32.5 -143.5t-86 -109.5t-119 -75t-128.5 -37v-127h-115v127q-63 12 -120.5 45t-103.5 75t-81 89t-53 86z" />
<glyph unicode="%" horiz-adv-x="1820" d="M119 1114q0 74 18.5 141.5t56 119.5t95 84t137.5 32q70 0 128 -24.5t101 -74t66.5 -122t23.5 -166.5q0 -92 -24.5 -165t-66.5 -122t-100 -74.5t-126 -25.5q-66 0 -122 24.5t-98 73.5t-65.5 124t-23.5 175zM276 1096q0 -141 45.5 -198.5t110.5 -57.5q68 0 113 58t45 212 q0 141 -45 198.5t-113 57.5q-35 0 -62.5 -13.5t-49 -44t-33 -82.5t-11.5 -130zM432 -53l803 1544h145l-798 -1544h-150zM1067 344q0 74 18.5 141.5t57.5 119.5t96 84t137 32q68 0 126.5 -24.5t101.5 -74t67.5 -122t24.5 -166.5q0 -92 -24.5 -165t-67.5 -122t-101.5 -74.5 t-126.5 -25.5t-124 24.5t-97 74.5t-64.5 125t-23.5 173zM1225 326q0 -139 45 -197.5t110 -58.5q70 0 114 58t44 212q0 141 -45 199.5t-113 58.5q-35 0 -62.5 -13.5t-49 -45t-32.5 -84t-11 -129.5z" />
<glyph unicode="&#x26;" horiz-adv-x="1050" d="M70 403q0 53 18 97.5t51 80t76 61.5t90 44q-61 23 -105 53.5t-74 63.5t-43 61.5t-13 46.5q0 76 35.5 133.5t94 97.5t129 61.5t142.5 27.5v137h113q-2 -25 -2 -47q0 -20 -1 -44t-1 -46q66 -6 128 -24.5t113 -49.5t88 -74t49 -94l-163 2q-23 66 -98.5 111t-176.5 45 q-61 0 -112.5 -15.5t-88 -41t-58 -61.5t-21.5 -77q0 -43 21.5 -79.5t60 -63.5t89 -42t109.5 -15h178v-136q-49 0 -90 2q-35 2 -70.5 3.5t-50.5 1.5q-55 0 -104 -13.5t-85 -38t-56.5 -58.5t-20.5 -73t22.5 -73.5t61.5 -60t92.5 -41t116.5 -15.5q104 0 182 37t101 96l157 -10 q-16 -47 -58 -88t-97.5 -72t-118 -48.5t-117.5 -17.5v-139l-92 2q0 23 2 45q0 20 1 42.5t1 45.5q-6 2 -11 2t-11 2q-100 8 -173 41t-119 73t-68.5 80t-22.5 62z" />
<glyph unicode="'" horiz-adv-x="434" d="M35 1028l143 397h207l-143 -397h-207z" />
<glyph unicode="(" horiz-adv-x="681" d="M125 530q0 260 89 491.5t265 469.5h129q-61 -117 -106 -203t-79 -156.5t-55.5 -133t-35 -130t-18.5 -148.5t-5 -190q0 -479 299 -960h-129q-74 92 -139.5 203.5t-112.5 235.5t-74.5 256t-27.5 265z" />
<glyph unicode=")" horiz-adv-x="681" d="M125 -430q299 483 299 960q0 131 -14.5 241t-49 219.5t-92 229t-143.5 271.5h129q176 -236 265 -469.5t89 -491.5q0 -133 -27.5 -265t-75.5 -256t-112.5 -235.5t-138.5 -203.5h-129z" />
<glyph unicode="*" horiz-adv-x="798" d="M63 1196l48 143q162 -59 231 -98q-10 92 -15 153.5t-5 96.5h145q-4 -98 -25 -248q53 27 112.5 50.5t125.5 45.5l45 -143q-127 -41 -250 -55q55 -47 172 -189l-119 -86q-29 41 -63.5 94.5t-73.5 120.5q-80 -147 -131 -215l-117 86q57 72 98.5 119t67.5 70q-129 24 -246 55 z" />
<glyph unicode="+" horiz-adv-x="1228" d="M139 618v160h402v402h159v-402h402v-160h-402v-401h-159v401h-402z" />
<glyph unicode="," horiz-adv-x="434" d="M35 -182l143 397h207l-143 -397h-207z" />
<glyph unicode="-" horiz-adv-x="1011" d="M139 618v160h738v-160h-738z" />
<glyph unicode="." horiz-adv-x="456" d="M137 0v213h207v-213h-207z" />
<glyph unicode="/" horiz-adv-x="1144" d="M57 -324l856 1858h156l-856 -1858h-156z" />
<glyph unicode="0" horiz-adv-x="1394" d="M70 594q0 137 60 244.5t153.5 181.5t205 111.5t213.5 37.5q162 0 279 -60t192.5 -148.5t112.5 -189.5t37 -183q0 -123 -56.5 -229.5t-145.5 -184.5t-200.5 -122t-222.5 -44q-113 0 -224.5 40t-201.5 116t-146 184.5t-56 245.5zM262 598q0 -92 34 -173t93.5 -142.5 t139 -96t173.5 -34.5q92 0 171 31.5t136.5 89t90.5 135.5t33 170t-33 172.5t-90.5 142t-136 96.5t-171.5 35q-94 0 -173.5 -31.5t-139 -89t-93.5 -135.5t-34 -170z" />
<glyph unicode="1" horiz-adv-x="516" d="M129 0v1151h258v-1151h-258z" />
<glyph unicode="2" horiz-adv-x="1374" d="M55 0v184q8 94 57.5 184.5t131.5 160t193.5 112.5t248.5 43q180 0 280.5 40t100.5 138q0 100 -105.5 144.5t-291.5 44.5q-121 0 -205 -41t-139 -90h-260q31 37 88 79.5t134 80.5t174 63.5t208 25.5q102 0 212.5 -20.5t203 -60t152.5 -97t60 -131.5t-55 -136t-143 -106.5 t-198.5 -69t-221.5 -22.5q-94 2 -162.5 -26.5t-115 -79.5t-70 -117.5t-25.5 -140.5h975v-162h-1227z" />
<glyph unicode="3" horiz-adv-x="1259" d="M135 317h215q29 -96 113 -140t227 -44q82 0 136.5 11.5t85 36t43 65.5t12.5 100q0 35 -10.5 63.5t-35 50t-67.5 36t-109 20.5h-174v160h187q63 6 103 17.5t63.5 31.5t33 54t9.5 87q0 37 -12.5 69t-43 54.5t-85 34.5t-136.5 12q-143 0 -217 -43t-102 -141h-236 q16 74 70.5 133t131.5 100t168 62.5t183 21.5t179 -15t155 -55t110 -107.5t42 -172.5q0 -23 -11.5 -52.5t-36 -62t-65.5 -64.5t-103 -56q61 -25 102.5 -55.5t66 -63.5t36 -63.5t11.5 -51.5q0 -104 -42 -171.5t-110 -107.5t-155 -55.5t-179 -15.5t-183 21.5t-168 62.5 t-131 100.5t-71 132.5z" />
<glyph unicode="4" horiz-adv-x="1400" d="M70 837.5v118.5v209h274v-346q0 -16 6 -65t40 -102.5t109 -95.5t212 -42q117 0 192.5 5t120.5 13q53 8 78 19v612h221v-1165h-221v364q-41 -2 -98 -4q-49 -2 -121 -3t-168 -1q-172 0 -288 30t-187.5 79t-107.5 111.5t-49 130t-13 133z" />
<glyph unicode="5" horiz-adv-x="1165" d="M82 317h215q57 -184 340 -184q78 0 122 10.5t64.5 32t24.5 57t4 89.5q0 37 -6 68.5t-26.5 55t-57.5 40t-98 26.5h-543v209q0 53 -6 105.5t-6 107.5q0 39 4 76t23.5 64.5t59.5 44t111 18.5q41 0 108.5 1t143.5 1h147.5h120.5q70 0 111 -1t62.5 -2t27.5 -2l6 -1q0 -2 -4 -3 v-188l-207 37h-407h-49.5t-40 -5t-26.5 -16.5t-9 -33.5q0 -20 1 -33.5t1 -24.5v-8v-182h350q37 -8 62.5 -10t48 -4.5t47 -6.5t59.5 -18q61 -25 99 -65t60.5 -81.5t31 -80.5t8.5 -60q0 -104 -32 -171.5t-89 -107.5t-134 -55.5t-169 -15.5t-183.5 21.5t-168 62.5t-131 100.5 t-70.5 132.5z" />
<glyph unicode="6" horiz-adv-x="1165" d="M78 324q-4 98 12 205.5t70.5 216t157 214t272.5 197.5h231q-150 -80 -270 -160q-51 -35 -101.5 -70.5t-90.5 -72.5t-66.5 -71.5t-30.5 -63.5q16 16 38 37.5t54.5 40t78.5 32t112 13.5q84 0 168 -29t151.5 -86t109.5 -141t42 -195t-45 -184.5t-116 -117.5t-154.5 -62.5 t-159.5 -18.5q-121 0 -209 35t-144.5 84t-83 103.5t-26.5 93.5zM217 383q0 -74 24.5 -124t67.5 -81t102.5 -43t129.5 -12t130 13.5t105 44t70.5 81.5t25.5 125t-25.5 136.5t-70.5 107.5t-105.5 70.5t-129.5 25.5q-70 0 -129.5 -26.5t-102.5 -72.5t-67.5 -108.5t-24.5 -136.5 z" />
<glyph unicode="7" horiz-adv-x="1310" d="M158 983v180h1104l-592 -1165h-219l510 985h-803z" />
<glyph unicode="8" horiz-adv-x="1165" d="M94 301q0 86 61.5 162t159.5 121q-117 41 -166 113.5t-49 144.5q0 66 36 126t98.5 107t145.5 75t177 28q84 0 169 -21.5t153.5 -64.5t111.5 -106.5t43 -145.5q0 -102 -66.5 -164t-160.5 -92q94 -39 157.5 -112t63.5 -175q0 -84 -46 -139.5t-116.5 -88t-155.5 -47 t-163 -14.5q-125 0 -211 26.5t-140.5 68.5t-78 94.5t-23.5 103.5zM260 291q0 -80 74 -130t213 -50q70 0 128 15t100 41t64.5 58.5t22.5 69.5q-4 68 -26.5 109.5t-63.5 64.5t-100.5 31t-139.5 8q-82 0 -134 -20.5t-82.5 -51t-43 -69.5t-12.5 -76zM266 834q2 -47 18.5 -82 t51.5 -57.5t90 -34t137 -11.5q76 0 130.5 16.5t89 43t50 60.5t15.5 67q0 113 -77 174t-218 61t-214 -63t-73 -174z" />
<glyph unicode="9" horiz-adv-x="1165" d="M76 774q0 111 45 184.5t115.5 117.5t153.5 62.5t161 18.5q121 0 209 -35t144.5 -84t83 -103t26.5 -93q2 -98 -13.5 -206t-69.5 -216.5t-156.5 -214t-272.5 -197.5h-232q150 80 271 160q51 33 100 69.5t89 73.5t66.5 71t32.5 64l-37.5 -37.5t-54 -40t-79 -31.5t-111.5 -13 q-84 0 -168 28.5t-151.5 86t-109.5 141.5t-42 194zM219 778q0 -74 25.5 -136t70.5 -107.5t105.5 -71t130.5 -25.5t129 25.5t102 72t67.5 109.5t24.5 137t-24.5 124t-67.5 81t-102 43t-129 12t-130.5 -13t-105.5 -44t-70.5 -82t-25.5 -125z" />
<glyph unicode=":" horiz-adv-x="456" d="M137 0v213h207v-213h-207zM137 629v213h207v-213h-207z" />
<glyph unicode=";" horiz-adv-x="456" d="M35 -182l143 397h207l-143 -397h-207zM178 629v213h207v-213h-207z" />
<glyph unicode="&#x3c;" horiz-adv-x="1196" d="M113 641v168l970 410v-179l-770 -315l770 -319v-181z" />
<glyph unicode="=" horiz-adv-x="1187" d="M82 424v129h1022v-129h-1022zM82 821v129h1022v-129h-1022z" />
<glyph unicode="&#x3e;" horiz-adv-x="1196" d="M113 225v181l768 319l-768 315v179l970 -410v-168z" />
<glyph unicode="?" horiz-adv-x="1679" d="M119 1100q31 80 99.5 148.5t165.5 118.5t216 79t252 29q158 0 296 -40t241.5 -107.5t163 -159t59.5 -195.5t-59.5 -195.5t-194.5 -183.5q-37 -27 -96.5 -40t-121 -20.5t-114.5 -9.5t-80 -6v-199h-213v343q139 10 252 38.5t191.5 69.5t121.5 93t43 110q0 74 -38.5 137.5 t-104 111.5t-156 75.5t-190.5 27.5q-158 0 -280.5 -63.5t-176.5 -161.5h-276zM741 0h207v213h-207v-213z" />
<glyph unicode="@" horiz-adv-x="2078" d="M111 469q0 215 70.5 401.5t200.5 324.5t313.5 218t406.5 80q168 0 321.5 -52t272.5 -151.5t189.5 -245t70.5 -331.5q0 -131 -50.5 -260t-134 -230.5t-192.5 -164t-225 -62.5q-102 0 -142.5 40t-50.5 128q-66 -76 -145.5 -121t-161.5 -45q-74 0 -139.5 32.5t-115.5 93 t-78.5 142.5t-28.5 180q0 143 51 261t129 201t169 129t171 46q86 0 164.5 -45t136.5 -139l35 156h178l-144 -672q-31 -139 -30 -154q0 -27 20.5 -46t48.5 -19q51 0 140 59q57 39 103 95.5t78 121t49 135t17 142.5q0 121 -49 234.5t-141 201.5t-225 141.5t-299 53.5 q-172 0 -324 -61.5t-265.5 -174.5t-180 -271.5t-66.5 -355.5t64.5 -341t180 -239t273.5 -141.5t344 -46.5q131 0 242 23.5t199 64.5t154.5 96.5t109.5 116.5h180q-45 -90 -126 -170.5t-194.5 -142t-261 -98.5t-327.5 -37q-238 0 -421 67.5t-309 188.5t-190.5 284.5 t-64.5 358.5zM678 434q0 -68 17.5 -122t47 -91t67.5 -56.5t81 -19.5q59 0 123.5 38t118 105.5t88 160t34.5 200.5q0 68 -18 121t-49 90t-73 56.5t-91 19.5q-68 0 -130.5 -44t-110.5 -115.5t-76.5 -161t-28.5 -181.5z" />
<glyph unicode="A" horiz-adv-x="1914" d="M90 592q0 92 39 171t104.5 143.5t152.5 113.5t184.5 83t200 51t196.5 17q223 0 384.5 -63.5t266 -149.5t155 -174t50.5 -137v-645h-238v184q-31 -20 -87 -52t-135 -60.5t-179.5 -50t-220.5 -21.5q-156 0 -311.5 40t-280.5 117t-203 185.5t-78 247.5zM356 596 q0 -92 47.5 -174t129 -143.5t193.5 -97.5t241 -36t238.5 33t189.5 90.5t125 136t45 170.5t-45 174t-125 143.5t-189.5 97.5t-238.5 36t-241 -32.5t-193.5 -90t-129 -136.5t-47.5 -171z" />
<glyph unicode="B" horiz-adv-x="1900" d="M90 524v912h238v-451q31 20 87 52t135 60.5t179 50t221 21.5q156 0 311.5 -39.5t280.5 -116.5t203 -186.5t78 -246.5q0 -92 -39 -171t-104.5 -143.5t-152.5 -114t-184.5 -83t-200 -51t-196.5 -17.5q-225 0 -387 63.5t-266.5 149.5t-153.5 174t-49 137zM348 596 q0 -92 45 -174t125 -143.5t189.5 -97.5t238.5 -36t240.5 33t193.5 90.5t129 136t47 170.5t-47 174t-129 143.5t-193.5 97.5t-240.5 36t-238.5 -32.5t-189.5 -90t-125 -136.5t-45 -171z" />
<glyph unicode="C" horiz-adv-x="1882" d="M74 524q0 162 81 283t206.5 202t277.5 120.5t295 39.5q141 0 283.5 -33.5t261 -97t203.5 -154.5t112 -208h-270q-23 74 -77 138.5t-132 111.5t-176.5 73.5t-208.5 26.5q-129 0 -238.5 -32.5t-189.5 -90t-125 -136.5t-45 -171t45 -174t125 -143.5t189.5 -97.5t238.5 -36 q106 0 202.5 22.5t173 64.5t132 99.5t80.5 127.5h268q-35 -111 -126 -197t-212 -144.5t-257 -88t-261 -29.5q-225 0 -387 63.5t-266.5 149.5t-153.5 174t-49 137z" />
<glyph unicode="D" horiz-adv-x="1900" d="M90 580q0 137 78 246.5t203 186.5t280.5 116.5t311.5 39.5q121 0 221 -21.5t179 -50t135 -60t87 -52.5v451h238v-912q0 -49 -50.5 -137t-155 -174t-266 -149.5t-384.5 -63.5q-94 0 -196.5 17.5t-200 51t-184.5 83t-152.5 114t-104.5 143t-39 171.5zM356 575 q0 -92 47.5 -170.5t129 -136t193.5 -90.5t241 -33t238.5 36t189.5 97.5t125 143.5t45 174t-45 171t-125 136.5t-189.5 90t-238.5 32.5t-241 -36t-193.5 -97.5t-129 -143t-47.5 -174.5z" />
<glyph unicode="E" horiz-adv-x="1886" d="M90 524q-2 24 -2 48q0 80 26 148q34 90 98 161t152.5 125.5t187.5 90.5t201.5 54t196.5 18q156 0 311.5 -39.5t280.5 -116.5t203 -186.5t78 -246.5q0 -31 -6 -62h-1461q18 -80 69.5 -147.5t128.5 -117.5t177 -79t215 -29q162 0 295 50.5t215 138.5h283 q-59 -80 -150.5 -142.5t-199 -105.5t-222 -64.5t-221.5 -21.5q-225 0 -387 63.5t-266.5 149.5t-153.5 174t-49 137zM354 662h1190q-20 78 -73.5 144t-132 115.5t-179 77t-213.5 27.5q-117 0 -218 -26.5t-179 -76t-129 -116t-66 -145.5z" />
<glyph unicode="F" horiz-adv-x="1036" d="M90 0v911q0 49 49 137.5t153.5 174.5t266.5 149.5t387 63.5v-146q-125 0 -232.5 -33.5t-186 -91t-126 -135.5t-53.5 -166h598v-168h-618v-696h-238z" />
<glyph unicode="G" horiz-adv-x="1849" d="M92 662q0 104 59.5 195t163 158.5t241.5 107.5t296 40q106 0 203.5 -18.5t183.5 -52.5q14 14 58 36.5t111 42t153 34t186 14.5v-240q-55 2 -109 2q-45 -2 -92 -6t-78 -14q66 -61 105 -141.5t39 -157.5q0 -127 -86 -233.5t-232 -174.5q16 -8 31.5 -16.5t32.5 -18.5 q135 -92 194.5 -183t59.5 -196q0 -104 -59.5 -195t-163 -159t-241.5 -108t-296 -40q-133 0 -252 29t-216 79t-165.5 118.5t-99.5 148.5h276q53 -98 176 -161.5t281 -63.5q100 0 190.5 27.5t156 76t104 112t38.5 136.5q0 57 -24.5 109.5t-67.5 95.5t-102.5 76t-128.5 51 q-80 -12 -166 -12q-63 0 -143 10t-165 34.5t-166 62.5t-144.5 94.5t-102.5 130t-39 170.5zM367 662q0 -74 37.5 -139.5t104 -115t155 -78t188.5 -28.5t188 28.5t155 78t104.5 115t37.5 139.5t-37.5 139t-104.5 114.5t-155 78t-188 28.5t-188.5 -28.5t-155 -78t-104 -114.5 t-37.5 -139z" />
<glyph unicode="H" d="M70 0v1534h262v-492q98 61 238.5 98.5t332.5 37.5q172 0 301 -30t221.5 -79t151.5 -111.5t94 -130t48.5 -133t13.5 -119.5v-577h-275v715q0 16 -22.5 65t-84 102.5t-169 95.5t-275.5 42q-127 0 -218 -21.5t-154.5 -55.5t-103.5 -74t-61.5 -75.5t-29.5 -63.5t-8 -34v-694 h-262z" />
<glyph unicode="I" horiz-adv-x="516" d="M82 1315q0 53 52 89t128 36t128 -36t52 -89t-52 -89t-128 -36t-128 36t-52 89zM129 0v1049q47 -8 75.5 -12.5t55.5 -4.5t55.5 3t71.5 14v-1049h-258z" />
<glyph unicode="J" horiz-adv-x="516" d="M-180 -180q98 0 157.5 15t91 41t43 58.5t11.5 65.5l6 1049q47 -8 75.5 -12.5t55.5 -4.5t55.5 3t71.5 14v-1049q0 -66 -16.5 -127t-73.5 -108.5t-169 -76t-304 -28.5zM82 1315q0 53 52 89t128 36t128 -36t52 -89t-52 -89t-128 -36t-128 36t-52 89z" />
<glyph unicode="K" horiz-adv-x="1191" d="M90 0v1534h238v-549q31 20 87 52t135 60.5t179 50t221 21.5q49 0 103 -6v-166q-27 4 -52.5 6.5t-54.5 2.5q-193 0 -328 -57.5t-208 -170.5h2q227 0 367.5 -73.5t219 -187.5t105 -251t26.5 -266h-145q0 37 -9 98.5t-32.5 131t-64.5 142t-107.5 130t-160 94.5t-220.5 37 h-30.5t-28.5 -2q-4 -20 -4 -33v-598h-238z" />
<glyph unicode="L" horiz-adv-x="516" d="M129 0v1534h258v-1534h-258z" />
<glyph unicode="M" horiz-adv-x="2140" d="M90 2v578q0 113 27.5 220t91 191t165 136.5t247.5 52.5q88 0 157.5 -19.5t123.5 -53.5t93 -78t68 -95q59 109 168.5 177.5t279.5 68.5q111 0 193 -30t140.5 -79t96 -111.5t60 -130t31 -133t8.5 -118.5v-578h-195v715q0 16 -12 65t-49 102.5t-104 95.5t-173 42 q-63 0 -111 -14.5t-84 -37t-60.5 -52t-41.5 -60.5q-37 -72 -43 -162l2 -694h-215v715q0 16 -11 62t-47 95.5t-101.5 88t-171.5 38.5q-63 0 -111.5 -13t-82.5 -34.5t-57.5 -49.5t-37.5 -56q-35 -68 -37 -152v-692h-207z" />
<glyph unicode="N" d="M70 0v578q0 113 44 220t143 191t258 136.5t388 52.5q172 0 301 -30t221.5 -79t151.5 -111.5t94 -130t48.5 -133t13.5 -119.5v-577h-275v715q0 16 -22.5 65t-84 102.5t-169 95.5t-275.5 42q-100 0 -178 -14.5t-136 -37t-101 -52t-72 -60.5q-68 -72 -88 -162v-692h-262z " />
<glyph unicode="O" horiz-adv-x="1900" d="M90 590q0 92 39 171t104.5 143.5t152.5 113.5t184.5 83t200 51t196.5 17q223 0 386 -60t269.5 -149.5t156.5 -191.5t50 -184q0 -125 -78 -231.5t-202 -185.5t-278.5 -123t-307.5 -44q-156 0 -311.5 40t-280.5 116.5t-203 185.5t-78 248zM356 594q0 -92 47.5 -174 t129 -143.5t193.5 -97.5t241 -36t238.5 33t189.5 90.5t125 136t45 170.5t-45 174t-125 143.5t-189.5 97.5t-238.5 36t-241 -33t-193.5 -90t-129 -136t-47.5 -171z" />
<glyph unicode="P" horiz-adv-x="1900" d="M90 -262v911q0 49 49 137t153.5 174.5t266.5 150t387 63.5q94 0 196.5 -17.5t200 -51.5t184.5 -83t152.5 -113.5t104.5 -143.5t39 -171q0 -139 -78 -247.5t-203 -185.5t-280.5 -117t-311.5 -40q-121 0 -221 21.5t-179 50t-135.5 60.5t-86.5 52v-450h-238zM348 578 q0 -92 45 -171t125 -136.5t189.5 -90.5t238.5 -33t240.5 36t193.5 97.5t129 143.5t47 174t-47 171t-129 136.5t-193.5 90t-240.5 32.5t-238.5 -36t-189.5 -97t-125 -143t-45 -174z" />
<glyph unicode="Q" horiz-adv-x="1900" d="M90 590q0 92 39 171t104.5 143.5t152.5 113.5t184.5 83t200 51t196.5 17q223 0 384.5 -63.5t266 -149.5t155 -174t50.5 -137v-911h-238v450q-31 -20 -87 -52t-135 -60.5t-179.5 -50t-220.5 -21.5q-156 0 -311.5 40t-280.5 116.5t-203 185.5t-78 248zM356 594 q0 -92 47.5 -174t129 -143.5t193.5 -97.5t241 -36t238.5 33t189.5 90.5t125 136t45 170.5t-45 174t-125 143.5t-189.5 97.5t-238.5 36t-241 -33t-193.5 -90t-129 -136t-47.5 -171z" />
<glyph unicode="R" horiz-adv-x="1394" d="M90 0v649q0 49 49 137t153.5 174.5t266.5 150t387 63.5q90 0 185.5 -16.5t187.5 -45.5v-170q-78 41 -172 63.5t-201 22.5q-123 0 -229.5 -32.5t-188.5 -90t-134 -133.5t-66 -164v-608h-238z" />
<glyph unicode="S" horiz-adv-x="1394" d="M66 250h260q57 -49 150 -80t214 -31q186 0 281.5 34t95.5 134q0 96 -89 156.5t-269 62.5q-111 2 -221.5 27t-198.5 69t-143.5 104t-55.5 134t60.5 131.5t152.5 97t202.5 60t213.5 20.5q111 0 208 -25.5t174 -63.5t134 -81t88 -79h-260q-55 49 -139 90t-205 41 q-186 0 -291.5 -44t-105.5 -145q0 -98 100 -137t280 -41q111 -2 221.5 -32.5t198.5 -83t142.5 -119t54.5 -140.5t-60.5 -131t-152.5 -97t-202.5 -60.5t-213.5 -20.5q-111 0 -210 25.5t-181 63.5t-141.5 81t-91.5 80z" />
<glyph unicode="T" horiz-adv-x="1394" d="M61 1004v172h345v364h237v-364h320v-172h-320v-439q0 -133 21.5 -215t62.5 -127t98.5 -61.5t128.5 -16.5q106 0 200.5 22.5t172.5 63.5v-170q-92 -29 -187.5 -45t-185.5 -16q-117 0 -202.5 25.5t-146 67.5t-100.5 96.5t-61.5 112.5t-29.5 115.5t-8 106.5v480h-345z" />
<glyph unicode="U" d="M70 598v578h262v-693q20 -92 88 -164q29 -31 72 -59.5t101 -52t136 -36.5t178 -13q168 0 275.5 42t169 95t84 102t22.5 66v715h275v-578q0 -53 -13.5 -118.5t-48.5 -133t-94 -130t-151.5 -112t-221.5 -79t-301 -29.5q-229 0 -388 51t-258 136t-143 192.5t-44 220.5z" />
<glyph unicode="V" d="M70 1176h262l575 -840l551 842h275l-830 -1180z" />
<glyph unicode="W" horiz-adv-x="1538" d="M70 1176h182l203 -644l219 646h205l225 -646l215 646h168l-385 -1164l-324 971l-321 -971z" />
<glyph unicode="X" horiz-adv-x="1591" d="M72 0v145h4q129 0 238.5 36t189.5 97.5t125 143.5t45 176q0 92 -45 171t-125 135.5t-189.5 89t-238.5 32.5h-4v143q96 0 198.5 -18t198.5 -55t181 -92.5t149 -129.5h2q63 74 148 129.5t182.5 92.5t200 55t198.5 18h4v-143h-8q-131 0 -240.5 -32.5t-189.5 -91t-124 -137.5 t-44 -173t45 -175t125 -141.5t189.5 -95.5t238.5 -35h8v-145h-8q-133 0 -244 23.5t-201 61.5t-158.5 87t-117.5 102q-4 4 -6 5q-49 -53 -119 -103.5t-159 -89.5t-199.5 -62.5t-245.5 -23.5h-4z" />
<glyph unicode="Y" d="M70 -18h262v-119q20 -92 88 -164q29 -31 72 -59.5t101 -52t136 -37t178 -13.5q168 0 275.5 42t169 95.5t84 102.5t22.5 65v283q-94 -57 -229 -92t-326 -35q-229 0 -388 51t-258 136t-143 192.5t-44 220.5v578h262v-693q20 -92 88 -164q29 -31 72 -59.5t101 -52t136 -36.5 t178 -13q164 0 270.5 40t168 91t86 100t26.5 70v719h275v-1198q0 -53 -13.5 -119t-48.5 -133.5t-94 -130t-151.5 -111.5t-221.5 -79t-301 -30q-229 0 -388 51.5t-258 136.5t-143 192.5t-44 219.5v5z" />
<glyph unicode="Z" horiz-adv-x="1642" d="M109 0l989 965l-989 -15v219h1435l-991 -964l991 14v-219h-1435z" />
<glyph unicode="[" horiz-adv-x="569" d="M139 -408v1874h398v-149h-218v-1575h218v-150h-398z" />
<glyph unicode="\" horiz-adv-x="1144" d="M57 1534h156l856 -1858h-156z" />
<glyph unicode="]" horiz-adv-x="569" d="M139 -258h217v1575h-217v149h398v-1874h-398v150z" />
<glyph unicode="^" horiz-adv-x="960" d="M53 690l355 801h145l354 -801h-182l-246 596l-239 -596h-187z" />
<glyph unicode="_" horiz-adv-x="1138" d="M-31 -276h1192v-132h-1192v132z" />
<glyph unicode="`" horiz-adv-x="657" d="M84 1425h207l284 -317h-206z" />
<glyph unicode="a" horiz-adv-x="1914" d="M90 592q0 92 39 171t104.5 143.5t152.5 113.5t184.5 83t200 51t196.5 17q223 0 384.5 -63.5t266 -149.5t155 -174t50.5 -137v-645h-238v184q-31 -20 -87 -52t-135 -60.5t-179.5 -50t-220.5 -21.5q-156 0 -311.5 40t-280.5 117t-203 185.5t-78 247.5zM356 596 q0 -92 47.5 -174t129 -143.5t193.5 -97.5t241 -36t238.5 33t189.5 90.5t125 136t45 170.5t-45 174t-125 143.5t-189.5 97.5t-238.5 36t-241 -32.5t-193.5 -90t-129 -136.5t-47.5 -171z" />
<glyph unicode="b" horiz-adv-x="1900" d="M90 524v912h238v-451q31 20 87 52t135 60.5t179 50t221 21.5q156 0 311.5 -39.5t280.5 -116.5t203 -186.5t78 -246.5q0 -92 -39 -171t-104.5 -143.5t-152.5 -114t-184.5 -83t-200 -51t-196.5 -17.5q-225 0 -387 63.5t-266.5 149.5t-153.5 174t-49 137zM348 596 q0 -92 45 -174t125 -143.5t189.5 -97.5t238.5 -36t240.5 33t193.5 90.5t129 136t47 170.5t-47 174t-129 143.5t-193.5 97.5t-240.5 36t-238.5 -32.5t-189.5 -90t-125 -136.5t-45 -171z" />
<glyph unicode="c" horiz-adv-x="1882" d="M74 524q0 162 81 283t206.5 202t277.5 120.5t295 39.5q141 0 283.5 -33.5t261 -97t203.5 -154.5t112 -208h-270q-23 74 -77 138.5t-132 111.5t-176.5 73.5t-208.5 26.5q-129 0 -238.5 -32.5t-189.5 -90t-125 -136.5t-45 -171t45 -174t125 -143.5t189.5 -97.5t238.5 -36 q106 0 202.5 22.5t173 64.5t132 99.5t80.5 127.5h268q-35 -111 -126 -197t-212 -144.5t-257 -88t-261 -29.5q-225 0 -387 63.5t-266.5 149.5t-153.5 174t-49 137z" />
<glyph unicode="d" horiz-adv-x="1900" d="M90 580q0 137 78 246.5t203 186.5t280.5 116.5t311.5 39.5q121 0 221 -21.5t179 -50t135 -60t87 -52.5v451h238v-912q0 -49 -50.5 -137t-155 -174t-266 -149.5t-384.5 -63.5q-94 0 -196.5 17.5t-200 51t-184.5 83t-152.5 114t-104.5 143t-39 171.5zM356 575 q0 -92 47.5 -170.5t129 -136t193.5 -90.5t241 -33t238.5 36t189.5 97.5t125 143.5t45 174t-45 171t-125 136.5t-189.5 90t-238.5 32.5t-241 -36t-193.5 -97.5t-129 -143t-47.5 -174.5z" />
<glyph unicode="e" horiz-adv-x="1886" d="M90 524q-2 24 -2 48q0 80 26 148q34 90 98 161t152.5 125.5t187.5 90.5t201.5 54t196.5 18q156 0 311.5 -39.5t280.5 -116.5t203 -186.5t78 -246.5q0 -31 -6 -62h-1461q18 -80 69.5 -147.5t128.5 -117.5t177 -79t215 -29q162 0 295 50.5t215 138.5h283 q-59 -80 -150.5 -142.5t-199 -105.5t-222 -64.5t-221.5 -21.5q-225 0 -387 63.5t-266.5 149.5t-153.5 174t-49 137zM354 662h1190q-20 78 -73.5 144t-132 115.5t-179 77t-213.5 27.5q-117 0 -218 -26.5t-179 -76t-129 -116t-66 -145.5z" />
<glyph unicode="f" horiz-adv-x="1036" d="M90 0v911q0 49 49 137.5t153.5 174.5t266.5 149.5t387 63.5v-146q-125 0 -232.5 -33.5t-186 -91t-126 -135.5t-53.5 -166h598v-168h-618v-696h-238z" />
<glyph unicode="g" horiz-adv-x="1849" d="M92 662q0 104 59.5 195t163 158.5t241.5 107.5t296 40q106 0 203.5 -18.5t183.5 -52.5q14 14 58 36.5t111 42t153 34t186 14.5v-240q-55 2 -109 2q-45 -2 -92 -6t-78 -14q66 -61 105 -141.5t39 -157.5q0 -127 -86 -233.5t-232 -174.5q16 -8 31.5 -16.5t32.5 -18.5 q135 -92 194.5 -183t59.5 -196q0 -104 -59.5 -195t-163 -159t-241.5 -108t-296 -40q-133 0 -252 29t-216 79t-165.5 118.5t-99.5 148.5h276q53 -98 176 -161.5t281 -63.5q100 0 190.5 27.5t156 76t104 112t38.5 136.5q0 57 -24.5 109.5t-67.5 95.5t-102.5 76t-128.5 51 q-80 -12 -166 -12q-63 0 -143 10t-165 34.5t-166 62.5t-144.5 94.5t-102.5 130t-39 170.5zM367 662q0 -74 37.5 -139.5t104 -115t155 -78t188.5 -28.5t188 28.5t155 78t104.5 115t37.5 139.5t-37.5 139t-104.5 114.5t-155 78t-188 28.5t-188.5 -28.5t-155 -78t-104 -114.5 t-37.5 -139z" />
<glyph unicode="h" d="M70 0v1534h262v-492q98 61 238.5 98.5t332.5 37.5q172 0 301 -30t221.5 -79t151.5 -111.5t94 -130t48.5 -133t13.5 -119.5v-577h-275v715q0 16 -22.5 65t-84 102.5t-169 95.5t-275.5 42q-127 0 -218 -21.5t-154.5 -55.5t-103.5 -74t-61.5 -75.5t-29.5 -63.5t-8 -34v-694 h-262z" />
<glyph unicode="i" horiz-adv-x="516" d="M82 1315q0 53 52 89t128 36t128 -36t52 -89t-52 -89t-128 -36t-128 36t-52 89zM129 0v1049q47 -8 75.5 -12.5t55.5 -4.5t55.5 3t71.5 14v-1049h-258z" />
<glyph unicode="j" horiz-adv-x="516" d="M-180 -180q98 0 157.5 15t91 41t43 58.5t11.5 65.5l6 1049q47 -8 75.5 -12.5t55.5 -4.5t55.5 3t71.5 14v-1049q0 -66 -16.5 -127t-73.5 -108.5t-169 -76t-304 -28.5zM82 1315q0 53 52 89t128 36t128 -36t52 -89t-52 -89t-128 -36t-128 36t-52 89z" />
<glyph unicode="k" horiz-adv-x="1191" d="M90 0v1534h238v-549q31 20 87 52t135 60.5t179 50t221 21.5q49 0 103 -6v-166q-27 4 -52.5 6.5t-54.5 2.5q-193 0 -328 -57.5t-208 -170.5h2q227 0 367.5 -73.5t219 -187.5t105 -251t26.5 -266h-145q0 37 -9 98.5t-32.5 131t-64.5 142t-107.5 130t-160 94.5t-220.5 37 h-30.5t-28.5 -2q-4 -20 -4 -33v-598h-238z" />
<glyph unicode="l" horiz-adv-x="516" d="M129 0v1534h258v-1534h-258z" />
<glyph unicode="m" horiz-adv-x="2140" d="M90 2v578q0 113 27.5 220t91 191t165 136.5t247.5 52.5q88 0 157.5 -19.5t123.5 -53.5t93 -78t68 -95q59 109 168.5 177.5t279.5 68.5q111 0 193 -30t140.5 -79t96 -111.5t60 -130t31 -133t8.5 -118.5v-578h-195v715q0 16 -12 65t-49 102.5t-104 95.5t-173 42 q-63 0 -111 -14.5t-84 -37t-60.5 -52t-41.5 -60.5q-37 -72 -43 -162l2 -694h-215v715q0 16 -11 62t-47 95.5t-101.5 88t-171.5 38.5q-63 0 -111.5 -13t-82.5 -34.5t-57.5 -49.5t-37.5 -56q-35 -68 -37 -152v-692h-207z" />
<glyph unicode="n" d="M70 0v578q0 113 44 220t143 191t258 136.5t388 52.5q172 0 301 -30t221.5 -79t151.5 -111.5t94 -130t48.5 -133t13.5 -119.5v-577h-275v715q0 16 -22.5 65t-84 102.5t-169 95.5t-275.5 42q-100 0 -178 -14.5t-136 -37t-101 -52t-72 -60.5q-68 -72 -88 -162v-692h-262z " />
<glyph unicode="o" horiz-adv-x="1900" d="M90 590q0 92 39 171t104.5 143.5t152.5 113.5t184.5 83t200 51t196.5 17q223 0 386 -60t269.5 -149.5t156.5 -191.5t50 -184q0 -125 -78 -231.5t-202 -185.5t-278.5 -123t-307.5 -44q-156 0 -311.5 40t-280.5 116.5t-203 185.5t-78 248zM356 594q0 -92 47.5 -174 t129 -143.5t193.5 -97.5t241 -36t238.5 33t189.5 90.5t125 136t45 170.5t-45 174t-125 143.5t-189.5 97.5t-238.5 36t-241 -33t-193.5 -90t-129 -136t-47.5 -171z" />
<glyph unicode="p" horiz-adv-x="1900" d="M90 -262v911q0 49 49 137t153.5 174.5t266.5 150t387 63.5q94 0 196.5 -17.5t200 -51.5t184.5 -83t152.5 -113.5t104.5 -143.5t39 -171q0 -139 -78 -247.5t-203 -185.5t-280.5 -117t-311.5 -40q-121 0 -221 21.5t-179 50t-135.5 60.5t-86.5 52v-450h-238zM348 578 q0 -92 45 -171t125 -136.5t189.5 -90.5t238.5 -33t240.5 36t193.5 97.5t129 143.5t47 174t-47 171t-129 136.5t-193.5 90t-240.5 32.5t-238.5 -36t-189.5 -97t-125 -143t-45 -174z" />
<glyph unicode="q" horiz-adv-x="1900" d="M90 590q0 92 39 171t104.5 143.5t152.5 113.5t184.5 83t200 51t196.5 17q223 0 384.5 -63.5t266 -149.5t155 -174t50.5 -137v-911h-238v450q-31 -20 -87 -52t-135 -60.5t-179.5 -50t-220.5 -21.5q-156 0 -311.5 40t-280.5 116.5t-203 185.5t-78 248zM356 594 q0 -92 47.5 -174t129 -143.5t193.5 -97.5t241 -36t238.5 33t189.5 90.5t125 136t45 170.5t-45 174t-125 143.5t-189.5 97.5t-238.5 36t-241 -33t-193.5 -90t-129 -136t-47.5 -171z" />
<glyph unicode="r" horiz-adv-x="1394" d="M90 0v649q0 49 49 137t153.5 174.5t266.5 150t387 63.5q90 0 185.5 -16.5t187.5 -45.5v-170q-78 41 -172 63.5t-201 22.5q-123 0 -229.5 -32.5t-188.5 -90t-134 -133.5t-66 -164v-608h-238z" />
<glyph unicode="s" horiz-adv-x="1394" d="M66 250h260q57 -49 150 -80t214 -31q186 0 281.5 34t95.5 134q0 96 -89 156.5t-269 62.5q-111 2 -221.5 27t-198.5 69t-143.5 104t-55.5 134t60.5 131.5t152.5 97t202.5 60t213.5 20.5q111 0 208 -25.5t174 -63.5t134 -81t88 -79h-260q-55 49 -139 90t-205 41 q-186 0 -291.5 -44t-105.5 -145q0 -98 100 -137t280 -41q111 -2 221.5 -32.5t198.5 -83t142.5 -119t54.5 -140.5t-60.5 -131t-152.5 -97t-202.5 -60.5t-213.5 -20.5q-111 0 -210 25.5t-181 63.5t-141.5 81t-91.5 80z" />
<glyph unicode="t" horiz-adv-x="1394" d="M61 1004v172h345v364h237v-364h320v-172h-320v-439q0 -133 21.5 -215t62.5 -127t98.5 -61.5t128.5 -16.5q106 0 200.5 22.5t172.5 63.5v-170q-92 -29 -187.5 -45t-185.5 -16q-117 0 -202.5 25.5t-146 67.5t-100.5 96.5t-61.5 112.5t-29.5 115.5t-8 106.5v480h-345z" />
<glyph unicode="u" d="M70 598v578h262v-693q20 -92 88 -164q29 -31 72 -59.5t101 -52t136 -36.5t178 -13q168 0 275.5 42t169 95t84 102t22.5 66v715h275v-578q0 -53 -13.5 -118.5t-48.5 -133t-94 -130t-151.5 -112t-221.5 -79t-301 -29.5q-229 0 -388 51t-258 136t-143 192.5t-44 220.5z" />
<glyph unicode="v" d="M70 1176h262l575 -840l551 842h275l-830 -1180z" />
<glyph unicode="w" horiz-adv-x="1538" d="M70 1176h182l203 -644l219 646h205l225 -646l215 646h168l-385 -1164l-324 971l-321 -971z" />
<glyph unicode="x" horiz-adv-x="1591" d="M72 0v145h4q129 0 238.5 36t189.5 97.5t125 143.5t45 176q0 92 -45 171t-125 135.5t-189.5 89t-238.5 32.5h-4v143q96 0 198.5 -18t198.5 -55t181 -92.5t149 -129.5h2q63 74 148 129.5t182.5 92.5t200 55t198.5 18h4v-143h-8q-131 0 -240.5 -32.5t-189.5 -91t-124 -137.5 t-44 -173t45 -175t125 -141.5t189.5 -95.5t238.5 -35h8v-145h-8q-133 0 -244 23.5t-201 61.5t-158.5 87t-117.5 102q-4 4 -6 5q-49 -53 -119 -103.5t-159 -89.5t-199.5 -62.5t-245.5 -23.5h-4z" />
<glyph unicode="y" d="M70 -18h262v-119q20 -92 88 -164q29 -31 72 -59.5t101 -52t136 -37t178 -13.5q168 0 275.5 42t169 95.5t84 102.5t22.5 65v283q-94 -57 -229 -92t-326 -35q-229 0 -388 51t-258 136t-143 192.5t-44 220.5v578h262v-693q20 -92 88 -164q29 -31 72 -59.5t101 -52t136 -36.5 t178 -13q164 0 270.5 40t168 91t86 100t26.5 70v719h275v-1198q0 -53 -13.5 -119t-48.5 -133.5t-94 -130t-151.5 -111.5t-221.5 -79t-301 -30q-229 0 -388 51.5t-258 136.5t-143 192.5t-44 219.5v5z" />
<glyph unicode="z" horiz-adv-x="1642" d="M109 0l989 965l-989 -15v219h1435l-991 -964l991 14v-219h-1435z" />
<glyph unicode="{" horiz-adv-x="684" d="M57 449v163q63 2 104.5 23.5t63 68t29.5 118t8 175.5q2 156 14.5 252.5t46 150.5t95 72.5t162.5 18.5h57v-158h-33q-53 0 -86 -7t-52.5 -28.5t-26.5 -61.5t-7 -108q0 -131 -3 -212.5t-7 -116.5q-10 -55 -23.5 -95t-36 -71t-56.5 -55.5t-83 -47.5q55 -23 95 -55.5 t65 -84.5t37 -128t12 -182q0 -121 1 -191.5t16.5 -106.5t51.5 -46t103 -10h33v-156h-57q-121 0 -184.5 30.5t-92.5 91t-34 150.5t-7 207q0 111 -8 186.5t-29.5 121.5t-62.5 67.5t-105 24.5z" />
<glyph unicode="|" horiz-adv-x="337" d="M115 -348v1755h118v-1755h-118z" />
<glyph unicode="}" horiz-adv-x="684" d="M47 -274h31q51 0 84 7t52 29.5t27.5 62.5t8.5 107q0 125 2 204t6 114q16 111 64.5 177.5t136.5 102.5q-57 27 -97 60t-65 83t-36 123.5t-11 184.5q0 119 -1 189.5t-16.5 106.5t-50.5 46t-104 10h-31v158h55q121 0 185.5 -33t93.5 -94t33 -150.5t4 -201.5 q2 -111 10 -185.5t29.5 -122t61.5 -69t108 -23.5v-163q-86 -2 -127 -36t-57.5 -107t-18.5 -187.5t-10 -276.5q-10 -80 -33 -133t-60.5 -84t-92 -43t-126.5 -12h-55v156z" />
<glyph unicode="~" horiz-adv-x="1196" d="M86 557v205q109 121 279 121q33 0 62.5 -4.5t64 -13.5t79.5 -26.5t109 -43.5q68 -29 102.5 -38t69.5 -9q66 0 135.5 38.5t122.5 98.5v-211q-63 -61 -129 -88t-147 -27q-33 0 -58.5 2t-56.5 9.5t-72 23.5t-102 45q-125 53 -197 53q-31 0 -60.5 -6t-60 -21.5t-64.5 -42 t-77 -65.5z" />
<glyph unicode="&#xa1;" horiz-adv-x="516" d="M82 903q0 53 52 89t128 36t128 -36t52 -89t-52 -89t-128 -36t-128 36t-52 89zM129 -412v1049q47 -8 75.5 -12t55.5 -4t55.5 3t71.5 13v-1049h-258z" />
<glyph unicode="&#xa2;" horiz-adv-x="1880" d="M74 524q0 150 69.5 264.5t180 194.5t248 125t272.5 57v209h166v-207q133 -8 262 -46t236.5 -100.5t184 -149.5t101.5 -195h-270q-20 68 -67.5 127t-114 104t-151.5 75t-181 40v-872q188 16 324 98t184 211h268q-33 -102 -114 -183t-188.5 -138.5t-231.5 -92.5t-242 -43 v-262h-166v262q-201 14 -346.5 79.5t-239.5 148.5t-139 165t-45 129zM332 596q0 -86 38 -162t105.5 -135t161.5 -98t207 -51v872q-113 -10 -207 -47t-161.5 -92.5t-105.5 -129t-38 -157.5z" />
<glyph unicode="&#xa3;" horiz-adv-x="1232" d="M72 145q98 53 163.5 151.5t65.5 240.5q0 31 -4 61.5t-12 63.5h-197v147h156q-12 47 -22.5 80t-16.5 60.5t-9 55t-3 68.5q0 96 35.5 174t97 132.5t143.5 83t176 28.5q92 0 171 -29.5t140.5 -83t101.5 -127t52 -164.5l-221 -2q-14 119 -77.5 188.5t-168.5 69.5 q-55 0 -103 -19t-82 -52t-53.5 -78t-19.5 -94q0 -113 55 -291h316v-147h-285q20 -43 21 -89q0 -88 -42 -183t-137 -200q80 23 144 23q45 0 100 -10t111.5 -22.5t111 -23t97.5 -10.5q72 0 192 56l57 -164q-92 -39 -142 -51.5t-99 -12.5q-57 0 -112.5 14.5t-111 31t-109.5 31 t-110 14.5q-72 0 -152.5 -26t-148.5 -69z" />
<glyph unicode="&#xa4;" horiz-adv-x="1138" d="M74 354l139 135q-72 111 -72 236q0 127 72 236l-139 137l114 119l140 -140q106 72 237 72t238 -72l137 140l117 -119l-139 -137q72 -109 71 -236q0 -125 -71 -236l139 -135l-117 -118l-137 139q-106 -74 -238 -74q-131 0 -237 74l-140 -139zM305 725q0 -106 76 -182 t182 -76q109 0 184.5 75.5t75.5 182.5q0 109 -75.5 184.5t-184.5 75.5q-106 0 -182 -75.5t-76 -184.5z" />
<glyph unicode="&#xa5;" horiz-adv-x="1138" d="M-2 1466h199q80 -143 137 -245.5t97 -174t63.5 -114.5t37 -69.5t20.5 -41t11 -24.5l357 669h213l-406 -710h342v-150h-412v-141h412v-139h-412v-326h-180v326h-416v139h416v141h-416v150h342z" />
<glyph unicode="&#xa6;" horiz-adv-x="532" d="M188 360h156v-790h-156v790zM188 700v791h156v-791h-156z" />
<glyph unicode="&#xa7;" horiz-adv-x="1138" d="M82 643q0 98 59.5 175t163.5 110q-70 68 -99.5 125t-29.5 123q0 74 31 132t81 99t116.5 62.5t138.5 21.5q186 0 297.5 -99.5t134.5 -267.5h-203q-20 123 -71.5 171t-143.5 48q-45 0 -83 -13t-64.5 -35.5t-42 -51.5t-15.5 -59q0 -49 25.5 -88t72 -75t109 -72t135.5 -81 q70 -43 133.5 -83t111.5 -86t76.5 -102t28.5 -132q0 -115 -58 -180.5t-169 -106.5q160 -123 160 -280q2 -68 -28.5 -128.5t-85 -106.5t-128 -71.5t-155.5 -21.5q-96 0 -175 28.5t-138.5 81t-96.5 124t-49 157.5l203 -4q29 -131 89 -183.5t167 -52.5q104 0 160.5 52.5 t56.5 122.5q0 49 -29 90t-80 79.5t-119.5 78.5t-148.5 89q-66 41 -127.5 81t-108.5 87.5t-74.5 105.5t-27.5 136zM244 664q0 -49 19.5 -86t53 -68t79.5 -59.5t102 -59.5q66 -39 124 -75.5t105 -71.5q76 39 111.5 89t35.5 97q0 49 -22.5 88t-60 73t-88 64.5t-105.5 65.5 q-70 41 -120 75.5t-85 61.5q-80 -47 -114.5 -92t-34.5 -102z" />
<glyph unicode="&#xa8;" horiz-adv-x="681" d="M61 1270v205h189v-205h-189zM434 1270v205h189v-205h-189z" />
<glyph unicode="&#xa9;" horiz-adv-x="1507" d="M139 713q0 133 50.5 250.5t138.5 204.5t205.5 138.5t250.5 51.5t251 -51.5t205 -138.5t138.5 -204.5t51.5 -250.5t-51.5 -251t-138.5 -206t-204.5 -138t-251.5 -50q-133 0 -250.5 50t-205.5 138t-138.5 206t-50.5 251zM221 713q0 -117 44 -219.5t121 -179t179.5 -120.5 t218.5 -44q117 0 219.5 44t179.5 120.5t121 179t44 219.5t-44 219t-121 179t-179.5 121t-219.5 44t-219 -44t-179 -121t-121 -179t-44 -219zM397 684q0 113 37 196t94.5 138t128 82.5t136.5 27.5t131 -23.5t119.5 -66.5t94.5 -106.5t52 -143.5h-125q-20 104 -95 173t-177 69 q-59 0 -110.5 -22.5t-88.5 -62.5t-58.5 -93.5t-21.5 -116.5q0 -66 21.5 -122t58.5 -98t88 -66.5t111 -24.5q98 0 171.5 58.5t96.5 156.5h127q-16 -76 -59.5 -135.5t-98.5 -99t-117.5 -60t-119.5 -20.5q-104 0 -179 44t-123.5 102t-71 118.5t-22.5 95.5z" />
<glyph unicode="&#xad;" horiz-adv-x="1011" d="M139 618v160h738v-160h-738z" />
<glyph unicode="&#xae;" horiz-adv-x="1507" d="M139 713q0 133 50.5 250.5t138.5 204.5t205.5 138.5t250.5 51.5t251 -51.5t205 -138.5t138.5 -204.5t51.5 -250.5t-51.5 -251t-138.5 -206t-204.5 -138t-251.5 -50q-133 0 -250.5 50t-205.5 138t-138.5 206t-50.5 251zM221 713q0 -117 44 -219.5t121 -179t179.5 -120.5 t218.5 -44q117 0 219.5 44t179.5 120.5t121 179t44 219.5t-44 219t-121 179t-179.5 121t-219.5 44t-219 -44t-179 -121t-121 -179t-44 -219zM526 385v369q0 27 20.5 77t63.5 99t110 85t159 36q74 0 153 -35v-96q-33 23 -71.5 36t-81.5 13q-102 0 -172 -70t-84 -170v-344h-97 z" />
<glyph unicode="&#xb1;" horiz-adv-x="1228" d="M139 0v160h963v-160h-963zM139 618v160h402v402h159v-402h402v-160h-402v-401h-159v401h-402z" />
<glyph unicode="&#xb4;" horiz-adv-x="657" d="M84 1108l285 317h206l-284 -317h-207z" />
<glyph unicode="&#xb7;" horiz-adv-x="456" d="M137 694v213h207v-213h-207z" />
<glyph unicode="&#xb8;" horiz-adv-x="681" d="M106 -410l13 117q33 -2 55.5 -3t38.5 -1q160 0 160 76q0 14 -5.5 25.5t-21.5 20.5t-47 14t-84 7l53 177h133l-32 -107q86 -10 129 -52t43 -95q0 -74 -73 -132.5t-216 -58.5q-82 0 -146 12z" />
<glyph unicode="&#xbc;" horiz-adv-x="3061" d="M129 0v1151h258v-1151h-258zM573 -324l856 1858h156l-856 -1858h-156zM1731 837.5v118.5v209h274v-346q0 -16 6 -65t40 -102.5t109 -95.5t212 -42q117 0 192.5 5t120.5 13q53 8 78 19v612h221v-1165h-221v364q-41 -2 -98 -4q-49 -2 -121 -3t-168 -1q-172 0 -288 30 t-187.5 79t-107.5 111.5t-49 130t-13 133z" />
<glyph unicode="&#xbd;" horiz-adv-x="3035" d="M129 0v1151h258v-1151h-258zM573 -324l856 1858h156l-856 -1858h-156zM1716 0v184q8 94 57.5 184.5t131.5 160t193.5 112.5t248.5 43q180 0 280.5 40t100.5 138q0 100 -105.5 144.5t-291.5 44.5q-121 0 -205 -41t-139 -90h-260q31 37 88 79.5t134 80.5t174 63.5t208 25.5 q102 0 212.5 -20.5t203 -60t152.5 -97t60 -131.5t-55 -136t-143 -106.5t-198.5 -69t-221.5 -22.5q-94 2 -162.5 -26.5t-115 -79.5t-70 -117.5t-25.5 -140.5h975v-162h-1227z" />
<glyph unicode="&#xbe;" horiz-adv-x="3805" d="M135 317h215q29 -96 113 -140t227 -44q82 0 136.5 11.5t85 36t43 65.5t12.5 100q0 35 -10.5 63.5t-35 50t-67.5 36t-109 20.5h-174v160h187q63 6 103 17.5t63.5 31.5t33 54t9.5 87q0 37 -12.5 69t-43 54.5t-85 34.5t-136.5 12q-143 0 -217 -43t-102 -141h-236 q16 74 70.5 133t131.5 100t168 62.5t183 21.5t179 -15t155 -55t110 -107.5t42 -172.5q0 -23 -11.5 -52.5t-36 -62t-65.5 -64.5t-103 -56q61 -25 102.5 -55.5t66 -63.5t36 -63.5t11.5 -51.5q0 -104 -42 -171.5t-110 -107.5t-155 -55.5t-179 -15.5t-183 21.5t-168 62.5 t-131 100.5t-71 132.5zM1317 -324l856 1858h156l-856 -1858h-156zM2474 837.5v118.5v209h274v-346q0 -16 6 -65t40 -102.5t109 -95.5t212 -42q117 0 192.5 5t120.5 13q53 8 78 19v612h221v-1165h-221v364q-41 -2 -98 -4q-49 -2 -121 -3t-168 -1q-172 0 -288 30t-187.5 79 t-107.5 111.5t-49 130t-13 133z" />
<glyph unicode="&#xbf;" horiz-adv-x="1679" d="M106 51q0 104 59.5 195.5t194.5 183.5q37 27 96.5 40t121 20.5t114.5 9.5t80 6v199h213v-343q-139 -10 -251.5 -38.5t-191.5 -69.5t-122 -93t-43 -110q0 -74 39 -137.5t104.5 -111.5t154.5 -75.5t191 -27.5q158 0 281 63.5t176 161.5h276q-31 -80 -99 -148.5 t-165.5 -118.5t-216.5 -79t-252 -29q-158 0 -296 40t-241.5 107.5t-163 159t-59.5 195.5zM770 811v213h207v-213h-207z" />
<glyph unicode="&#xc0;" horiz-adv-x="1914" d="M90 592q0 92 39 171t104.5 143.5t152.5 113.5t184.5 83t200 51t196.5 17q223 0 384.5 -63.5t266 -149.5t155 -174t50.5 -137v-645h-238v184q-31 -20 -87 -52t-135 -60.5t-179.5 -50t-220.5 -21.5q-156 0 -311.5 40t-280.5 117t-203 185.5t-78 247.5zM356 596 q0 -92 47.5 -174t129 -143.5t193.5 -97.5t241 -36t238.5 33t189.5 90.5t125 136t45 170.5t-45 174t-125 143.5t-189.5 97.5t-238.5 36t-241 -32.5t-193.5 -90t-129 -136.5t-47.5 -171zM711 1425h207l284 -317h-206z" />
<glyph unicode="&#xc1;" horiz-adv-x="1914" d="M90 592q0 92 39 171t104.5 143.5t152.5 113.5t184.5 83t200 51t196.5 17q223 0 384.5 -63.5t266 -149.5t155 -174t50.5 -137v-645h-238v184q-31 -20 -87 -52t-135 -60.5t-179.5 -50t-220.5 -21.5q-156 0 -311.5 40t-280.5 117t-203 185.5t-78 247.5zM356 596 q0 -92 47.5 -174t129 -143.5t193.5 -97.5t241 -36t238.5 33t189.5 90.5t125 136t45 170.5t-45 174t-125 143.5t-189.5 97.5t-238.5 36t-241 -32.5t-193.5 -90t-129 -136.5t-47.5 -171zM711 1108l285 317h206l-284 -317h-207z" />
<glyph unicode="&#xc2;" horiz-adv-x="1914" d="M90 592q0 92 39 171t104.5 143.5t152.5 113.5t184.5 83t200 51t196.5 17q223 0 384.5 -63.5t266 -149.5t155 -174t50.5 -137v-645h-238v184q-31 -20 -87 -52t-135 -60.5t-179.5 -50t-220.5 -21.5q-156 0 -311.5 40t-280.5 117t-203 185.5t-78 247.5zM356 596 q0 -92 47.5 -174t129 -143.5t193.5 -97.5t241 -36t238.5 33t189.5 90.5t125 136t45 170.5t-45 174t-125 143.5t-189.5 97.5t-238.5 36t-241 -32.5t-193.5 -90t-129 -136.5t-47.5 -171zM641 1194l217 281h190l225 -281h-202l-111 170l-113 -170h-206z" />
<glyph unicode="&#xc3;" horiz-adv-x="1914" d="M90 592q0 92 39 171t104.5 143.5t152.5 113.5t184.5 83t200 51t196.5 17q223 0 384.5 -63.5t266 -149.5t155 -174t50.5 -137v-645h-238v184q-31 -20 -87 -52t-135 -60.5t-179.5 -50t-220.5 -21.5q-156 0 -311.5 40t-280.5 117t-203 185.5t-78 247.5zM356 596 q0 -92 47.5 -174t129 -143.5t193.5 -97.5t241 -36t238.5 33t189.5 90.5t125 136t45 170.5t-45 174t-125 143.5t-189.5 97.5t-238.5 36t-241 -32.5t-193.5 -90t-129 -136.5t-47.5 -171zM622 1219q0 106 58.5 167.5t146.5 61.5q20 0 55 -13.5t74 -28.5t75 -28.5t58 -13.5 q33 0 49.5 17.5t24.5 68.5h129q-2 -117 -56.5 -172t-140.5 -55q-23 0 -59.5 14t-76.5 31.5t-75 32t-53 14.5q-33 0 -54.5 -25.5t-21.5 -70.5h-133z" />
<glyph unicode="&#xc4;" horiz-adv-x="1914" d="M90 592q0 92 39 171t104.5 143.5t152.5 113.5t184.5 83t200 51t196.5 17q223 0 384.5 -63.5t266 -149.5t155 -174t50.5 -137v-645h-238v184q-31 -20 -87 -52t-135 -60.5t-179.5 -50t-220.5 -21.5q-156 0 -311.5 40t-280.5 117t-203 185.5t-78 247.5zM356 596 q0 -92 47.5 -174t129 -143.5t193.5 -97.5t241 -36t238.5 33t189.5 90.5t125 136t45 170.5t-45 174t-125 143.5t-189.5 97.5t-238.5 36t-241 -32.5t-193.5 -90t-129 -136.5t-47.5 -171zM675 1270v205h189v-205h-189zM1048 1270v205h189v-205h-189z" />
<glyph unicode="&#xc5;" horiz-adv-x="1914" d="M90 592q0 119 63.5 215t165 169t230.5 119t258 64q-62 66 -62 156q0 47 18.5 88t49.5 71.5t72 49t88 18.5t88 -18.5t71.5 -49t49 -71.5t18.5 -88q0 -45 -16.5 -85t-44.5 -71q178 -25 307 -91.5t213 -145t124 -155.5t40 -120v-645h-238v184q-31 -20 -87 -52t-135 -60.5 t-179.5 -50t-220.5 -21.5q-156 0 -311.5 40t-280.5 117t-203 185.5t-78 247.5zM356 596q0 -92 47.5 -174t129 -143.5t193.5 -97.5t241 -36t238.5 33t189.5 90.5t125 136t45 170.5t-45 174t-125 143.5t-189.5 97.5t-238.5 36t-241 -32.5t-193.5 -90t-129 -136.5t-47.5 -171z M827 1315q0 -53 35 -94t86 -50h19q6 0 12 -1t14 -1q53 8 89 49.5t36 96.5q0 59 -43 102t-102 43t-102.5 -43t-43.5 -102z" />
<glyph unicode="&#xc6;" horiz-adv-x="2572" d="M90 592q0 137 62.5 245.5t159 182.5t212 112.5t221.5 38.5q100 0 185.5 -24.5t153 -64.5t118.5 -91t88 -104q49 70 114.5 123t139.5 88t149.5 53t145.5 18q117 0 233.5 -39.5t210 -116.5t151.5 -186.5t58 -246.5q0 -16 -1 -30.5t-3 -31.5h-1093q12 -80 51 -147.5 t96 -117.5t133 -79t162 -29q121 0 220.5 50.5t160.5 138.5h211q-43 -80 -111.5 -142.5t-148.5 -105.5t-166 -64.5t-166 -21.5q-150 0 -261.5 50t-189.5 122v-170h-178v184q-23 -20 -63.5 -52t-100 -60.5t-135 -50t-166.5 -21.5q-117 0 -233.5 40t-209.5 117t-151.5 185.5 t-58.5 247.5zM289 596q0 -92 35.5 -174t97 -143.5t144.5 -97.5t179 -36t178.5 33t142.5 90.5t94 136t34 170.5v11q-2 92 -37 172t-94 139t-141 94t-177 35q-96 0 -179 -32.5t-144.5 -90t-97 -136.5t-35.5 -171zM1393 662h891q-16 78 -55.5 144t-97.5 115.5t-133 77 t-161 27.5q-88 0 -165 -26.5t-135 -76t-95 -116t-49 -145.5z" />
<glyph unicode="&#xc7;" horiz-adv-x="1882" d="M74 524q0 162 81 283t206.5 202t277.5 120.5t295 39.5q141 0 283.5 -33.5t261 -97t203.5 -154.5t112 -208h-270q-23 74 -77 138.5t-132 111.5t-176.5 73.5t-208.5 26.5q-129 0 -238.5 -32.5t-189.5 -90t-125 -136.5t-45 -171t45 -174t125 -143.5t189.5 -97.5t238.5 -36 q106 0 202.5 22.5t173 64.5t132 99.5t80.5 127.5h268q-33 -102 -113 -183t-187.5 -138.5t-230 -92.5t-241.5 -43q-2 -2 -4 -2l-25 -84q86 -10 129 -52t43 -95q0 -74 -72.5 -132.5t-216.5 -58.5q-82 0 -145 12l12 117q33 -2 55.5 -3t38.5 -1q160 0 160 76q0 14 -5 25.5 t-21.5 20.5t-47 14t-84.5 7l46 150q-2 2 -3 4q-139 6 -252.5 39t-202.5 80t-154.5 104.5t-107.5 113.5t-62.5 105.5t-20.5 81.5z" />
<glyph unicode="&#xc8;" horiz-adv-x="1886" d="M90 524q-10 106 23.5 195.5t98 161t153 126t187.5 90.5t201.5 54t196.5 18q156 0 311.5 -39.5t280.5 -116.5t203 -186.5t78 -246.5q0 -31 -6 -62h-1461q18 -80 69.5 -147.5t128.5 -117.5t177 -79t215 -29q162 0 295 50.5t215 138.5h283q-59 -80 -150.5 -142.5 t-199 -105.5t-222 -64.5t-221.5 -21.5q-225 0 -387 63.5t-266.5 149.5t-153.5 174t-49 137zM354 662h1190q-20 78 -73.5 144t-132 115.5t-179 77t-213.5 27.5q-117 0 -218 -26.5t-179 -76t-129 -116t-66 -145.5zM696 1425h207l284 -317h-206z" />
<glyph unicode="&#xc9;" horiz-adv-x="1886" d="M90 524q-10 106 23.5 195.5t98 161t153 126t187.5 90.5t201.5 54t196.5 18q156 0 311.5 -39.5t280.5 -116.5t203 -186.5t78 -246.5q0 -31 -6 -62h-1461q18 -80 69.5 -147.5t128.5 -117.5t177 -79t215 -29q162 0 295 50.5t215 138.5h283q-59 -80 -150.5 -142.5 t-199 -105.5t-222 -64.5t-221.5 -21.5q-225 0 -387 63.5t-266.5 149.5t-153.5 174t-49 137zM354 662h1190q-20 78 -73.5 144t-132 115.5t-179 77t-213.5 27.5q-117 0 -218 -26.5t-179 -76t-129 -116t-66 -145.5zM696 1108l285 317h206l-284 -317h-207z" />
<glyph unicode="&#xca;" horiz-adv-x="1886" d="M90 524q-10 106 23.5 195.5t98 161t153 126t187.5 90.5t201.5 54t196.5 18q156 0 311.5 -39.5t280.5 -116.5t203 -186.5t78 -246.5q0 -31 -6 -62h-1461q18 -80 69.5 -147.5t128.5 -117.5t177 -79t215 -29q162 0 295 50.5t215 138.5h283q-59 -80 -150.5 -142.5 t-199 -105.5t-222 -64.5t-221.5 -21.5q-225 0 -387 63.5t-266.5 149.5t-153.5 174t-49 137zM354 662h1190q-20 78 -73.5 144t-132 115.5t-179 77t-213.5 27.5q-117 0 -218 -26.5t-179 -76t-129 -116t-66 -145.5zM627 1194l217 281h190l225 -281h-202l-111 170l-113 -170 h-206z" />
<glyph unicode="&#xcb;" horiz-adv-x="1886" d="M90 524q-10 106 23.5 195.5t98 161t153 126t187.5 90.5t201.5 54t196.5 18q156 0 311.5 -39.5t280.5 -116.5t203 -186.5t78 -246.5q0 -31 -6 -62h-1461q18 -80 69.5 -147.5t128.5 -117.5t177 -79t215 -29q162 0 295 50.5t215 138.5h283q-59 -80 -150.5 -142.5 t-199 -105.5t-222 -64.5t-221.5 -21.5q-225 0 -387 63.5t-266.5 149.5t-153.5 174t-49 137zM354 662h1190q-20 78 -73.5 144t-132 115.5t-179 77t-213.5 27.5q-117 0 -218 -26.5t-179 -76t-129 -116t-66 -145.5zM661 1270v205h189v-205h-189zM1034 1270v205h189v-205h-189z " />
<glyph unicode="&#xcc;" horiz-adv-x="516" d="M14 1425h207l284 -317h-206zM129 0v1049q47 -8 75.5 -12.5t55.5 -4.5t55.5 3t71.5 14v-1049h-258z" />
<glyph unicode="&#xcd;" horiz-adv-x="516" d="M14 1108l285 317h206l-284 -317h-207zM129 0v1049q47 -8 75.5 -12.5t55.5 -4.5t55.5 3t71.5 14v-1049h-258z" />
<glyph unicode="&#xce;" horiz-adv-x="753" d="M66 1194l217 281h190l225 -281h-202l-111 170l-113 -170h-206zM252 0v1049q47 -8 75.5 -12.5t55.5 -4.5t55.5 3t71.5 14v-1049h-258z" />
<glyph unicode="&#xcf;" horiz-adv-x="694" d="M61 1270v205h189v-205h-189zM211 0v1049q47 -8 75.5 -12.5t55.5 -4.5t55.5 3t71.5 14v-1049h-258zM434 1270v205h189v-205h-189z" />
<glyph unicode="&#xd0;" horiz-adv-x="1138" d="M74 516q0 131 34.5 233.5t95 172t142.5 105.5t178 36q59 0 103.5 -12.5t109.5 -46.5q-18 37 -32.5 62.5t-30 49t-33.5 47t-45 54.5l-277 -127l-43 102l238 108q-88 84 -207 166h217q37 -29 68 -54.5t57 -47.5l215 102l45 -102l-172 -84q319 -367 320 -760 q0 -127 -37 -227t-102.5 -171t-156.5 -109t-198 -38q-102 0 -191 33t-154.5 99.5t-104.5 168t-39 240.5zM256 512q0 -98 23.5 -171t64.5 -121t97.5 -72.5t121.5 -24.5q63 0 118.5 25.5t97.5 76.5t66.5 127t24.5 176q0 96 -24.5 170t-66.5 124t-99 76t-123 26 q-131 0 -216 -101.5t-85 -310.5z" />
<glyph unicode="&#xd1;" d="M70 0v578q0 113 44 220t143 191t258 136.5t388 52.5q172 0 301 -30t221.5 -79t151.5 -111.5t94 -130t48.5 -133t13.5 -119.5v-577h-275v715q0 16 -22.5 65t-84 102.5t-169 95.5t-275.5 42q-100 0 -178 -14.5t-136 -37t-101 -52t-72 -60.5q-68 -72 -88 -162v-692h-262z M567 1219q0 106 58.5 167.5t146.5 61.5q20 0 55 -13.5t74 -28.5t75 -28.5t58 -13.5q33 0 49.5 17.5t24.5 68.5h129q-2 -117 -56.5 -172t-140.5 -55q-23 0 -59.5 14t-76.5 31.5t-75 32t-53 14.5q-33 0 -54.5 -25.5t-21.5 -70.5h-133z" />
<glyph unicode="&#xd2;" horiz-adv-x="1900" d="M90 590q0 92 39 171t104.5 143.5t152.5 113.5t184.5 83t200 51t196.5 17q223 0 386 -60t269.5 -149.5t156.5 -191.5t50 -184q0 -125 -78 -231.5t-202 -185.5t-278.5 -123t-307.5 -44q-156 0 -311.5 40t-280.5 116.5t-203 185.5t-78 248zM356 594q0 -92 47.5 -174 t129 -143.5t193.5 -97.5t241 -36t238.5 33t189.5 90.5t125 136t45 170.5t-45 174t-125 143.5t-189.5 97.5t-238.5 36t-241 -33t-193.5 -90t-129 -136t-47.5 -171zM705 1425h207l284 -317h-206z" />
<glyph unicode="&#xd3;" horiz-adv-x="1900" d="M90 590q0 92 39 171t104.5 143.5t152.5 113.5t184.5 83t200 51t196.5 17q223 0 386 -60t269.5 -149.5t156.5 -191.5t50 -184q0 -125 -78 -231.5t-202 -185.5t-278.5 -123t-307.5 -44q-156 0 -311.5 40t-280.5 116.5t-203 185.5t-78 248zM356 594q0 -92 47.5 -174 t129 -143.5t193.5 -97.5t241 -36t238.5 33t189.5 90.5t125 136t45 170.5t-45 174t-125 143.5t-189.5 97.5t-238.5 36t-241 -33t-193.5 -90t-129 -136t-47.5 -171zM705 1108l285 317h206l-284 -317h-207z" />
<glyph unicode="&#xd4;" horiz-adv-x="1900" d="M90 590q0 92 39 171t104.5 143.5t152.5 113.5t184.5 83t200 51t196.5 17q223 0 386 -60t269.5 -149.5t156.5 -191.5t50 -184q0 -125 -78 -231.5t-202 -185.5t-278.5 -123t-307.5 -44q-156 0 -311.5 40t-280.5 116.5t-203 185.5t-78 248zM356 594q0 -92 47.5 -174 t129 -143.5t193.5 -97.5t241 -36t238.5 33t189.5 90.5t125 136t45 170.5t-45 174t-125 143.5t-189.5 97.5t-238.5 36t-241 -33t-193.5 -90t-129 -136t-47.5 -171zM633 1194l217 281h190l225 -281h-202l-111 170l-113 -170h-206z" />
<glyph unicode="&#xd5;" horiz-adv-x="1900" d="M90 590q0 92 39 171t104.5 143.5t152.5 113.5t184.5 83t200 51t196.5 17q223 0 386 -60t269.5 -149.5t156.5 -191.5t50 -184q0 -125 -78 -231.5t-202 -185.5t-278.5 -123t-307.5 -44q-156 0 -311.5 40t-280.5 116.5t-203 185.5t-78 248zM356 594q0 -92 47.5 -174 t129 -143.5t193.5 -97.5t241 -36t238.5 33t189.5 90.5t125 136t45 170.5t-45 174t-125 143.5t-189.5 97.5t-238.5 36t-241 -33t-193.5 -90t-129 -136t-47.5 -171zM614 1219q0 106 58.5 167.5t146.5 61.5q20 0 55 -13.5t74 -28.5t75 -28.5t58 -13.5q33 0 49.5 17.5t24.5 68.5 h129q-2 -117 -56.5 -172t-140.5 -55q-23 0 -59.5 14t-76.5 31.5t-75 32t-53 14.5q-33 0 -54.5 -25.5t-21.5 -70.5h-133z" />
<glyph unicode="&#xd6;" horiz-adv-x="1900" d="M90 590q0 92 39 171t104.5 143.5t152.5 113.5t184.5 83t200 51t196.5 17q223 0 386 -60t269.5 -149.5t156.5 -191.5t50 -184q0 -125 -78 -231.5t-202 -185.5t-278.5 -123t-307.5 -44q-156 0 -311.5 40t-280.5 116.5t-203 185.5t-78 248zM356 594q0 -92 47.5 -174 t129 -143.5t193.5 -97.5t241 -36t238.5 33t189.5 90.5t125 136t45 170.5t-45 174t-125 143.5t-189.5 97.5t-238.5 36t-241 -33t-193.5 -90t-129 -136t-47.5 -171zM669 1270v205h189v-205h-189zM1042 1270v205h189v-205h-189z" />
<glyph unicode="&#xd7;" horiz-adv-x="1228" d="M223 414l285 284l-285 285l113 113l285 -285l284 285l113 -113l-285 -285l285 -284l-113 -113l-284 285l-285 -285z" />
<glyph unicode="&#xd8;" horiz-adv-x="1900" d="M90 590q0 92 39 171t104.5 143.5t152.5 113.5t184.5 83t200 51t196.5 17q223 0 386 -60t269.5 -149.5t156.5 -191.5t50 -184q0 -125 -78 -231.5t-202 -185.5t-278.5 -123t-307.5 -44q-156 0 -311.5 40t-280.5 116.5t-203 185.5t-78 248zM356 594q0 -92 47.5 -174 t129 -143.5t193.5 -97.5t241 -36t238.5 33t189.5 90.5t125 136t45 170.5t-45 174t-125 143.5t-189.5 97.5t-238.5 36t-241 -33t-193.5 -90t-129 -136t-47.5 -171zM444 -324l856 1858h156l-856 -1858h-156z" />
<glyph unicode="&#xd9;" d="M70 598v578h262v-693q20 -92 88 -164q29 -31 72 -59.5t101 -52t136 -36.5t178 -13q168 0 275.5 42t169 95t84 102t22.5 66v715h275v-578q0 -53 -13.5 -118.5t-48.5 -133t-94 -130t-151.5 -112t-221.5 -79t-301 -29.5q-229 0 -388 51t-258 136t-143 192.5t-44 220.5z M657 1425h207l284 -317h-206z" />
<glyph unicode="&#xda;" d="M70 598v578h262v-693q20 -92 88 -164q29 -31 72 -59.5t101 -52t136 -36.5t178 -13q168 0 275.5 42t169 95t84 102t22.5 66v715h275v-578q0 -53 -13.5 -118.5t-48.5 -133t-94 -130t-151.5 -112t-221.5 -79t-301 -29.5q-229 0 -388 51t-258 136t-143 192.5t-44 220.5z M657 1108l285 317h206l-284 -317h-207z" />
<glyph unicode="&#xdb;" d="M70 598v578h262v-693q20 -92 88 -164q29 -31 72 -59.5t101 -52t136 -36.5t178 -13q168 0 275.5 42t169 95t84 102t22.5 66v715h275v-578q0 -53 -13.5 -118.5t-48.5 -133t-94 -130t-151.5 -112t-221.5 -79t-301 -29.5q-229 0 -388 51t-258 136t-143 192.5t-44 220.5z M586 1194l217 281h190l225 -281h-202l-111 170l-113 -170h-206z" />
<glyph unicode="&#xdc;" d="M70 598v578h262v-693q20 -92 88 -164q29 -31 72 -59.5t101 -52t136 -36.5t178 -13q168 0 275.5 42t169 95t84 102t22.5 66v715h275v-578q0 -53 -13.5 -118.5t-48.5 -133t-94 -130t-151.5 -112t-221.5 -79t-301 -29.5q-229 0 -388 51t-258 136t-143 192.5t-44 220.5z M622 1270v205h189v-205h-189zM995 1270v205h189v-205h-189z" />
<glyph unicode="&#xdd;" d="M70 -18h262v-119q20 -92 88 -164q29 -31 72 -59.5t101 -52t136 -37t178 -13.5q168 0 275.5 42t169 95.5t84 102.5t22.5 65v283q-94 -57 -229 -92t-326 -35q-229 0 -388 51t-258 136t-143 192.5t-44 220.5v578h262v-693q20 -92 88 -164q29 -31 72 -59.5t101 -52t136 -36.5 t178 -13q164 0 270.5 40t168 91t86 100t26.5 70v719h275v-1198q0 -53 -13.5 -119t-48.5 -133.5t-94 -130t-151.5 -111.5t-221.5 -79t-301 -30q-229 0 -388 51.5t-258 136.5t-143 192.5t-44 219.5v5zM657 1108l285 317h206l-284 -317h-207z" />
<glyph unicode="&#xde;" horiz-adv-x="1540" d="M135 -393v1859h256v-512q61 45 112.5 72t100.5 40t102.5 17t118.5 4q143 0 258 -43t195 -116.5t123 -172t43 -210.5q0 -117 -47 -219.5t-133 -177t-207 -117.5t-269 -43q-55 0 -102 4t-93 17.5t-95 40t-107 71.5v-514h-256zM369 532q0 -104 31.5 -178.5t86 -123t127 -72 t154.5 -23.5q84 0 160 24.5t132 75t89 128t33 184.5q0 102 -33 178t-88 125t-128 73.5t-153 24.5t-153.5 -26.5t-131 -78.5t-92 -130.5t-34.5 -180.5z" />
<glyph unicode="&#xdf;" horiz-adv-x="1570" d="M86 0v999q0 254 141.5 373t434.5 119q119 0 212 -23.5t157.5 -63.5t98 -92t33.5 -108q0 -53 -23.5 -105t-86.5 -134q-61 -78 -78 -112t-17 -56q0 -14 3.5 -28.5t21.5 -33t58 -42t112 -56.5q102 -51 166.5 -91t101.5 -76t50.5 -74t13.5 -85q0 -68 -37 -129t-102.5 -107 t-156.5 -73t-200 -27q-170 0 -297 68t-192 172l209 74q68 -94 135 -130t143 -36q51 0 96 14.5t79 38t53.5 55t19.5 66.5q0 27 -4 45t-23.5 37.5t-59.5 43t-110 58.5q-117 57 -183.5 98.5t-98 73t-39.5 58t-8 57.5q0 20 3 38.5t13 41t31.5 52.5t58.5 77q66 84 89.5 129 t23.5 80q0 61 -73 109t-198 48q-70 0 -130 -12t-104 -50t-68.5 -107.5t-24.5 -182.5v-991h-244z" />
<glyph unicode="&#xe0;" horiz-adv-x="1914" d="M90 592q0 92 39 171t104.5 143.5t152.5 113.5t184.5 83t200 51t196.5 17q223 0 384.5 -63.5t266 -149.5t155 -174t50.5 -137v-645h-238v184q-31 -20 -87 -52t-135 -60.5t-179.5 -50t-220.5 -21.5q-156 0 -311.5 40t-280.5 117t-203 185.5t-78 247.5zM356 596 q0 -92 47.5 -174t129 -143.5t193.5 -97.5t241 -36t238.5 33t189.5 90.5t125 136t45 170.5t-45 174t-125 143.5t-189.5 97.5t-238.5 36t-241 -32.5t-193.5 -90t-129 -136.5t-47.5 -171zM711 1425h207l284 -317h-206z" />
<glyph unicode="&#xe1;" horiz-adv-x="1914" d="M90 592q0 92 39 171t104.5 143.5t152.5 113.5t184.5 83t200 51t196.5 17q223 0 384.5 -63.5t266 -149.5t155 -174t50.5 -137v-645h-238v184q-31 -20 -87 -52t-135 -60.5t-179.5 -50t-220.5 -21.5q-156 0 -311.5 40t-280.5 117t-203 185.5t-78 247.5zM356 596 q0 -92 47.5 -174t129 -143.5t193.5 -97.5t241 -36t238.5 33t189.5 90.5t125 136t45 170.5t-45 174t-125 143.5t-189.5 97.5t-238.5 36t-241 -32.5t-193.5 -90t-129 -136.5t-47.5 -171zM711 1108l285 317h206l-284 -317h-207z" />
<glyph unicode="&#xe2;" horiz-adv-x="1914" d="M90 592q0 92 39 171t104.5 143.5t152.5 113.5t184.5 83t200 51t196.5 17q223 0 384.5 -63.5t266 -149.5t155 -174t50.5 -137v-645h-238v184q-31 -20 -87 -52t-135 -60.5t-179.5 -50t-220.5 -21.5q-156 0 -311.5 40t-280.5 117t-203 185.5t-78 247.5zM356 596 q0 -92 47.5 -174t129 -143.5t193.5 -97.5t241 -36t238.5 33t189.5 90.5t125 136t45 170.5t-45 174t-125 143.5t-189.5 97.5t-238.5 36t-241 -32.5t-193.5 -90t-129 -136.5t-47.5 -171zM641 1194l217 281h190l225 -281h-202l-111 170l-113 -170h-206z" />
<glyph unicode="&#xe3;" horiz-adv-x="1914" d="M90 592q0 92 39 171t104.5 143.5t152.5 113.5t184.5 83t200 51t196.5 17q223 0 384.5 -63.5t266 -149.5t155 -174t50.5 -137v-645h-238v184q-31 -20 -87 -52t-135 -60.5t-179.5 -50t-220.5 -21.5q-156 0 -311.5 40t-280.5 117t-203 185.5t-78 247.5zM356 596 q0 -92 47.5 -174t129 -143.5t193.5 -97.5t241 -36t238.5 33t189.5 90.5t125 136t45 170.5t-45 174t-125 143.5t-189.5 97.5t-238.5 36t-241 -32.5t-193.5 -90t-129 -136.5t-47.5 -171zM622 1219q0 106 58.5 167.5t146.5 61.5q20 0 55 -13.5t74 -28.5t75 -28.5t58 -13.5 q33 0 49.5 17.5t24.5 68.5h129q-2 -117 -56.5 -172t-140.5 -55q-23 0 -59.5 14t-76.5 31.5t-75 32t-53 14.5q-33 0 -54.5 -25.5t-21.5 -70.5h-133z" />
<glyph unicode="&#xe4;" horiz-adv-x="1914" d="M90 592q0 92 39 171t104.5 143.5t152.5 113.5t184.5 83t200 51t196.5 17q223 0 384.5 -63.5t266 -149.5t155 -174t50.5 -137v-645h-238v184q-31 -20 -87 -52t-135 -60.5t-179.5 -50t-220.5 -21.5q-156 0 -311.5 40t-280.5 117t-203 185.5t-78 247.5zM356 596 q0 -92 47.5 -174t129 -143.5t193.5 -97.5t241 -36t238.5 33t189.5 90.5t125 136t45 170.5t-45 174t-125 143.5t-189.5 97.5t-238.5 36t-241 -32.5t-193.5 -90t-129 -136.5t-47.5 -171zM675 1270v205h189v-205h-189zM1048 1270v205h189v-205h-189z" />
<glyph unicode="&#xe5;" horiz-adv-x="1914" d="M90 592q0 119 63.5 215t165 169t230.5 119t258 64q-62 66 -62 156q0 47 18.5 88t49.5 71.5t72 49t88 18.5t88 -18.5t71.5 -49t49 -71.5t18.5 -88q0 -45 -16.5 -85t-44.5 -71q178 -25 307 -91.5t213 -145t124 -155.5t40 -120v-645h-238v184q-31 -20 -87 -52t-135 -60.5 t-179.5 -50t-220.5 -21.5q-156 0 -311.5 40t-280.5 117t-203 185.5t-78 247.5zM356 596q0 -92 47.5 -174t129 -143.5t193.5 -97.5t241 -36t238.5 33t189.5 90.5t125 136t45 170.5t-45 174t-125 143.5t-189.5 97.5t-238.5 36t-241 -32.5t-193.5 -90t-129 -136.5t-47.5 -171z M827 1315q0 -53 35 -94t86 -50h19q6 0 12 -1t14 -1q53 8 89 49.5t36 96.5q0 59 -43 102t-102 43t-102.5 -43t-43.5 -102z" />
<glyph unicode="&#xe6;" horiz-adv-x="2572" d="M90 592q0 137 62.5 245.5t159 182.5t212 112.5t221.5 38.5q100 0 185.5 -24.5t153 -64.5t118.5 -91t88 -104q49 70 114.5 123t139.5 88t149.5 53t145.5 18q117 0 233.5 -39.5t210 -116.5t151.5 -186.5t58 -246.5q0 -16 -1 -30.5t-3 -31.5h-1093q12 -80 51 -147.5 t96 -117.5t133 -79t162 -29q121 0 220.5 50.5t160.5 138.5h211q-43 -80 -111.5 -142.5t-148.5 -105.5t-166 -64.5t-166 -21.5q-150 0 -261.5 50t-189.5 122v-170h-178v184q-23 -20 -63.5 -52t-100 -60.5t-135 -50t-166.5 -21.5q-117 0 -233.5 40t-209.5 117t-151.5 185.5 t-58.5 247.5zM289 596q0 -92 35.5 -174t97 -143.5t144.5 -97.5t179 -36t178.5 33t142.5 90.5t94 136t34 170.5v11q-2 92 -37 172t-94 139t-141 94t-177 35q-96 0 -179 -32.5t-144.5 -90t-97 -136.5t-35.5 -171zM1393 662h891q-16 78 -55.5 144t-97.5 115.5t-133 77 t-161 27.5q-88 0 -165 -26.5t-135 -76t-95 -116t-49 -145.5z" />
<glyph unicode="&#xe7;" horiz-adv-x="1882" d="M74 524q0 162 81 283t206.5 202t277.5 120.5t295 39.5q141 0 283.5 -33.5t261 -97t203.5 -154.5t112 -208h-270q-23 74 -77 138.5t-132 111.5t-176.5 73.5t-208.5 26.5q-129 0 -238.5 -32.5t-189.5 -90t-125 -136.5t-45 -171t45 -174t125 -143.5t189.5 -97.5t238.5 -36 q106 0 202.5 22.5t173 64.5t132 99.5t80.5 127.5h268q-33 -102 -113 -183t-187.5 -138.5t-230 -92.5t-241.5 -43q-2 -2 -4 -2l-25 -84q86 -10 129 -52t43 -95q0 -74 -72.5 -132.5t-216.5 -58.5q-82 0 -145 12l12 117q33 -2 55.5 -3t38.5 -1q160 0 160 76q0 14 -5 25.5 t-21.5 20.5t-47 14t-84.5 7l46 150q-2 2 -3 4q-139 6 -252.5 39t-202.5 80t-154.5 104.5t-107.5 113.5t-62.5 105.5t-20.5 81.5z" />
<glyph unicode="&#xe8;" horiz-adv-x="1886" d="M90 524q-10 106 23.5 195.5t98 161t153 126t187.5 90.5t201.5 54t196.5 18q156 0 311.5 -39.5t280.5 -116.5t203 -186.5t78 -246.5q0 -31 -6 -62h-1461q18 -80 69.5 -147.5t128.5 -117.5t177 -79t215 -29q162 0 295 50.5t215 138.5h283q-59 -80 -150.5 -142.5 t-199 -105.5t-222 -64.5t-221.5 -21.5q-225 0 -387 63.5t-266.5 149.5t-153.5 174t-49 137zM354 662h1190q-20 78 -73.5 144t-132 115.5t-179 77t-213.5 27.5q-117 0 -218 -26.5t-179 -76t-129 -116t-66 -145.5zM696 1425h207l284 -317h-206z" />
<glyph unicode="&#xe9;" horiz-adv-x="1886" d="M90 524q-10 106 23.5 195.5t98 161t153 126t187.5 90.5t201.5 54t196.5 18q156 0 311.5 -39.5t280.5 -116.5t203 -186.5t78 -246.5q0 -31 -6 -62h-1461q18 -80 69.5 -147.5t128.5 -117.5t177 -79t215 -29q162 0 295 50.5t215 138.5h283q-59 -80 -150.5 -142.5 t-199 -105.5t-222 -64.5t-221.5 -21.5q-225 0 -387 63.5t-266.5 149.5t-153.5 174t-49 137zM354 662h1190q-20 78 -73.5 144t-132 115.5t-179 77t-213.5 27.5q-117 0 -218 -26.5t-179 -76t-129 -116t-66 -145.5zM696 1108l285 317h206l-284 -317h-207z" />
<glyph unicode="&#xea;" horiz-adv-x="1886" d="M90 524q-10 106 23.5 195.5t98 161t153 126t187.5 90.5t201.5 54t196.5 18q156 0 311.5 -39.5t280.5 -116.5t203 -186.5t78 -246.5q0 -31 -6 -62h-1461q18 -80 69.5 -147.5t128.5 -117.5t177 -79t215 -29q162 0 295 50.5t215 138.5h283q-59 -80 -150.5 -142.5 t-199 -105.5t-222 -64.5t-221.5 -21.5q-225 0 -387 63.5t-266.5 149.5t-153.5 174t-49 137zM354 662h1190q-20 78 -73.5 144t-132 115.5t-179 77t-213.5 27.5q-117 0 -218 -26.5t-179 -76t-129 -116t-66 -145.5zM627 1194l217 281h190l225 -281h-202l-111 170l-113 -170 h-206z" />
<glyph unicode="&#xeb;" horiz-adv-x="1886" d="M90 524q-10 106 23.5 195.5t98 161t153 126t187.5 90.5t201.5 54t196.5 18q156 0 311.5 -39.5t280.5 -116.5t203 -186.5t78 -246.5q0 -31 -6 -62h-1461q18 -80 69.5 -147.5t128.5 -117.5t177 -79t215 -29q162 0 295 50.5t215 138.5h283q-59 -80 -150.5 -142.5 t-199 -105.5t-222 -64.5t-221.5 -21.5q-225 0 -387 63.5t-266.5 149.5t-153.5 174t-49 137zM354 662h1190q-20 78 -73.5 144t-132 115.5t-179 77t-213.5 27.5q-117 0 -218 -26.5t-179 -76t-129 -116t-66 -145.5zM661 1270v205h189v-205h-189zM1034 1270v205h189v-205h-189z " />
<glyph unicode="&#xec;" horiz-adv-x="516" d="M14 1425h207l284 -317h-206zM129 0v1049q47 -8 75.5 -12.5t55.5 -4.5t55.5 3t71.5 14v-1049h-258z" />
<glyph unicode="&#xed;" horiz-adv-x="516" d="M14 1108l285 317h206l-284 -317h-207zM129 0v1049q47 -8 75.5 -12.5t55.5 -4.5t55.5 3t71.5 14v-1049h-258z" />
<glyph unicode="&#xee;" horiz-adv-x="753" d="M66 1194l217 281h190l225 -281h-202l-111 170l-113 -170h-206zM252 0v1049q47 -8 75.5 -12.5t55.5 -4.5t55.5 3t71.5 14v-1049h-258z" />
<glyph unicode="&#xef;" horiz-adv-x="694" d="M61 1270v205h189v-205h-189zM211 0v1049q47 -8 75.5 -12.5t55.5 -4.5t55.5 3t71.5 14v-1049h-258zM434 1270v205h189v-205h-189z" />
<glyph unicode="&#xf0;" horiz-adv-x="1138" d="M74 516q0 131 34.5 233.5t95 172t142.5 105.5t178 36q59 0 103.5 -12.5t109.5 -46.5q-18 37 -32.5 62.5t-30 49t-33.5 47t-45 54.5l-277 -127l-43 102l238 108q-88 84 -207 166h217q37 -29 68 -54.5t57 -47.5l215 102l45 -102l-172 -84q319 -367 320 -760 q0 -127 -37 -227t-102.5 -171t-156.5 -109t-198 -38q-102 0 -191 33t-154.5 99.5t-104.5 168t-39 240.5zM256 512q0 -98 23.5 -171t64.5 -121t97.5 -72.5t121.5 -24.5q63 0 118.5 25.5t97.5 76.5t66.5 127t24.5 176q0 96 -24.5 170t-66.5 124t-99 76t-123 26 q-131 0 -216 -101.5t-85 -310.5z" />
<glyph unicode="&#xf1;" d="M70 0v578q0 113 44 220t143 191t258 136.5t388 52.5q172 0 301 -30t221.5 -79t151.5 -111.5t94 -130t48.5 -133t13.5 -119.5v-577h-275v715q0 16 -22.5 65t-84 102.5t-169 95.5t-275.5 42q-100 0 -178 -14.5t-136 -37t-101 -52t-72 -60.5q-68 -72 -88 -162v-692h-262z M567 1219q0 106 58.5 167.5t146.5 61.5q20 0 55 -13.5t74 -28.5t75 -28.5t58 -13.5q33 0 49.5 17.5t24.5 68.5h129q-2 -117 -56.5 -172t-140.5 -55q-23 0 -59.5 14t-76.5 31.5t-75 32t-53 14.5q-33 0 -54.5 -25.5t-21.5 -70.5h-133z" />
<glyph unicode="&#xf2;" horiz-adv-x="1900" d="M90 590q0 92 39 171t104.5 143.5t152.5 113.5t184.5 83t200 51t196.5 17q223 0 386 -60t269.5 -149.5t156.5 -191.5t50 -184q0 -125 -78 -231.5t-202 -185.5t-278.5 -123t-307.5 -44q-156 0 -311.5 40t-280.5 116.5t-203 185.5t-78 248zM356 594q0 -92 47.5 -174 t129 -143.5t193.5 -97.5t241 -36t238.5 33t189.5 90.5t125 136t45 170.5t-45 174t-125 143.5t-189.5 97.5t-238.5 36t-241 -33t-193.5 -90t-129 -136t-47.5 -171zM705 1425h207l284 -317h-206z" />
<glyph unicode="&#xf3;" horiz-adv-x="1900" d="M90 590q0 92 39 171t104.5 143.5t152.5 113.5t184.5 83t200 51t196.5 17q223 0 386 -60t269.5 -149.5t156.5 -191.5t50 -184q0 -125 -78 -231.5t-202 -185.5t-278.5 -123t-307.5 -44q-156 0 -311.5 40t-280.5 116.5t-203 185.5t-78 248zM356 594q0 -92 47.5 -174 t129 -143.5t193.5 -97.5t241 -36t238.5 33t189.5 90.5t125 136t45 170.5t-45 174t-125 143.5t-189.5 97.5t-238.5 36t-241 -33t-193.5 -90t-129 -136t-47.5 -171zM705 1108l285 317h206l-284 -317h-207z" />
<glyph unicode="&#xf4;" horiz-adv-x="1900" d="M90 590q0 92 39 171t104.5 143.5t152.5 113.5t184.5 83t200 51t196.5 17q223 0 386 -60t269.5 -149.5t156.5 -191.5t50 -184q0 -125 -78 -231.5t-202 -185.5t-278.5 -123t-307.5 -44q-156 0 -311.5 40t-280.5 116.5t-203 185.5t-78 248zM356 594q0 -92 47.5 -174 t129 -143.5t193.5 -97.5t241 -36t238.5 33t189.5 90.5t125 136t45 170.5t-45 174t-125 143.5t-189.5 97.5t-238.5 36t-241 -33t-193.5 -90t-129 -136t-47.5 -171zM633 1194l217 281h190l225 -281h-202l-111 170l-113 -170h-206z" />
<glyph unicode="&#xf5;" horiz-adv-x="1900" d="M90 590q0 92 39 171t104.5 143.5t152.5 113.5t184.5 83t200 51t196.5 17q223 0 386 -60t269.5 -149.5t156.5 -191.5t50 -184q0 -125 -78 -231.5t-202 -185.5t-278.5 -123t-307.5 -44q-156 0 -311.5 40t-280.5 116.5t-203 185.5t-78 248zM356 594q0 -92 47.5 -174 t129 -143.5t193.5 -97.5t241 -36t238.5 33t189.5 90.5t125 136t45 170.5t-45 174t-125 143.5t-189.5 97.5t-238.5 36t-241 -33t-193.5 -90t-129 -136t-47.5 -171zM614 1219q0 106 58.5 167.5t146.5 61.5q20 0 55 -13.5t74 -28.5t75 -28.5t58 -13.5q33 0 49.5 17.5t24.5 68.5 h129q-2 -117 -56.5 -172t-140.5 -55q-23 0 -59.5 14t-76.5 31.5t-75 32t-53 14.5q-33 0 -54.5 -25.5t-21.5 -70.5h-133z" />
<glyph unicode="&#xf6;" horiz-adv-x="1900" d="M90 590q0 92 39 171t104.5 143.5t152.5 113.5t184.5 83t200 51t196.5 17q223 0 386 -60t269.5 -149.5t156.5 -191.5t50 -184q0 -125 -78 -231.5t-202 -185.5t-278.5 -123t-307.5 -44q-156 0 -311.5 40t-280.5 116.5t-203 185.5t-78 248zM356 594q0 -92 47.5 -174 t129 -143.5t193.5 -97.5t241 -36t238.5 33t189.5 90.5t125 136t45 170.5t-45 174t-125 143.5t-189.5 97.5t-238.5 36t-241 -33t-193.5 -90t-129 -136t-47.5 -171zM669 1270v205h189v-205h-189zM1042 1270v205h189v-205h-189z" />
<glyph unicode="&#xf7;" horiz-adv-x="1132" d="M82 618v160h962v-160h-962zM473 289v213h207v-213h-207zM473 918v212h207v-212h-207z" />
<glyph unicode="&#xf8;" horiz-adv-x="1900" d="M90 590q0 92 39 171t104.5 143.5t152.5 113.5t184.5 83t200 51t196.5 17q223 0 386 -60t269.5 -149.5t156.5 -191.5t50 -184q0 -125 -78 -231.5t-202 -185.5t-278.5 -123t-307.5 -44q-156 0 -311.5 40t-280.5 116.5t-203 185.5t-78 248zM356 594q0 -92 47.5 -174 t129 -143.5t193.5 -97.5t241 -36t238.5 33t189.5 90.5t125 136t45 170.5t-45 174t-125 143.5t-189.5 97.5t-238.5 36t-241 -33t-193.5 -90t-129 -136t-47.5 -171zM444 -324l856 1858h156l-856 -1858h-156z" />
<glyph unicode="&#xf9;" d="M70 598v578h262v-693q20 -92 88 -164q29 -31 72 -59.5t101 -52t136 -36.5t178 -13q168 0 275.5 42t169 95t84 102t22.5 66v715h275v-578q0 -53 -13.5 -118.5t-48.5 -133t-94 -130t-151.5 -112t-221.5 -79t-301 -29.5q-229 0 -388 51t-258 136t-143 192.5t-44 220.5z M657 1425h207l284 -317h-206z" />
<glyph unicode="&#xfa;" d="M70 598v578h262v-693q20 -92 88 -164q29 -31 72 -59.5t101 -52t136 -36.5t178 -13q168 0 275.5 42t169 95t84 102t22.5 66v715h275v-578q0 -53 -13.5 -118.5t-48.5 -133t-94 -130t-151.5 -112t-221.5 -79t-301 -29.5q-229 0 -388 51t-258 136t-143 192.5t-44 220.5z M657 1108l285 317h206l-284 -317h-207z" />
<glyph unicode="&#xfb;" d="M70 598v578h262v-693q20 -92 88 -164q29 -31 72 -59.5t101 -52t136 -36.5t178 -13q168 0 275.5 42t169 95t84 102t22.5 66v715h275v-578q0 -53 -13.5 -118.5t-48.5 -133t-94 -130t-151.5 -112t-221.5 -79t-301 -29.5q-229 0 -388 51t-258 136t-143 192.5t-44 220.5z M586 1194l217 281h190l225 -281h-202l-111 170l-113 -170h-206z" />
<glyph unicode="&#xfc;" d="M70 598v578h262v-693q20 -92 88 -164q29 -31 72 -59.5t101 -52t136 -36.5t178 -13q168 0 275.5 42t169 95t84 102t22.5 66v715h275v-578q0 -53 -13.5 -118.5t-48.5 -133t-94 -130t-151.5 -112t-221.5 -79t-301 -29.5q-229 0 -388 51t-258 136t-143 192.5t-44 220.5z M622 1270v205h189v-205h-189zM995 1270v205h189v-205h-189z" />
<glyph unicode="&#xfd;" d="M70 -18h262v-119q20 -92 88 -164q29 -31 72 -59.5t101 -52t136 -37t178 -13.5q168 0 275.5 42t169 95.5t84 102.5t22.5 65v283q-94 -57 -229 -92t-326 -35q-229 0 -388 51t-258 136t-143 192.5t-44 220.5v578h262v-693q20 -92 88 -164q29 -31 72 -59.5t101 -52t136 -36.5 t178 -13q164 0 270.5 40t168 91t86 100t26.5 70v719h275v-1198q0 -53 -13.5 -119t-48.5 -133.5t-94 -130t-151.5 -111.5t-221.5 -79t-301 -30q-229 0 -388 51.5t-258 136.5t-143 192.5t-44 219.5v5zM657 1108l285 317h206l-284 -317h-207z" />
<glyph unicode="&#xfe;" horiz-adv-x="1540" d="M135 -393v1859h256v-512q61 45 112.5 72t100.5 40t102.5 17t118.5 4q143 0 258 -43t195 -116.5t123 -172t43 -210.5q0 -117 -47 -219.5t-133 -177t-207 -117.5t-269 -43q-55 0 -102 4t-93 17.5t-95 40t-107 71.5v-514h-256zM369 532q0 -104 31.5 -178.5t86 -123t127 -72 t154.5 -23.5q84 0 160 24.5t132 75t89 128t33 184.5q0 102 -33 178t-88 125t-128 73.5t-153 24.5t-153.5 -26.5t-131 -78.5t-92 -130.5t-34.5 -180.5z" />
<glyph unicode="&#xff;" d="M70 -18h262v-119q20 -92 88 -164q29 -31 72 -59.5t101 -52t136 -37t178 -13.5q168 0 275.5 42t169 95.5t84 102.5t22.5 65v283q-94 -57 -229 -92t-326 -35q-229 0 -388 51t-258 136t-143 192.5t-44 220.5v578h262v-693q20 -92 88 -164q29 -31 72 -59.5t101 -52t136 -36.5 t178 -13q164 0 270.5 40t168 91t86 100t26.5 70v719h275v-1198q0 -53 -13.5 -119t-48.5 -133.5t-94 -130t-151.5 -111.5t-221.5 -79t-301 -30q-229 0 -388 51.5t-258 136.5t-143 192.5t-44 219.5v5zM622 1270v205h189v-205h-189zM995 1270v205h189v-205h-189z" />
<glyph unicode="&#x153;" horiz-adv-x="2467" d="M90 592q0 137 59.5 244.5t150.5 181.5t199.5 112.5t209.5 38.5q94 0 174 -22.5t144.5 -61t113.5 -90t84 -106.5q45 70 107.5 122t132 87t141 53t137.5 18q111 0 220.5 -39.5t197.5 -115.5t143 -184.5t55 -245.5q0 -16 -1 -30.5t-3 -31.5h-1032q12 -80 48 -147.5 t90.5 -116.5t125 -77.5t152.5 -28.5q117 0 210 49t150 137h201q-43 -80 -107.5 -141.5t-140.5 -104.5t-156.5 -64.5t-156.5 -21.5q-96 0 -175 24.5t-143.5 64.5t-112.5 90.5t-83 103.5q-43 -63 -102.5 -115.5t-127 -89.5t-141.5 -57.5t-147 -20.5q-111 0 -220.5 40 t-197.5 116t-143.5 184.5t-55.5 245.5zM279 596q0 -92 32.5 -173t91 -142.5t137 -96t169.5 -34.5q92 0 168.5 31.5t134 89t89.5 136.5t32 171t-32 172.5t-89.5 142t-134 96.5t-168.5 35q-90 0 -169 -31.5t-137.5 -89t-91 -136.5t-32.5 -171zM1321 664h842q-14 78 -52 144 t-93.5 114.5t-127 76t-151.5 27.5q-84 0 -155 -26.5t-126 -74.5t-91 -115t-46 -146z" />
<glyph unicode="&#x178;" d="M70 -18h262v-119q20 -92 88 -164q29 -31 72 -59.5t101 -52t136 -37t178 -13.5q168 0 275.5 42t169 95.5t84 102.5t22.5 65v283q-94 -57 -229 -92t-326 -35q-229 0 -388 51t-258 136t-143 192.5t-44 220.5v578h262v-693q20 -92 88 -164q29 -31 72 -59.5t101 -52t136 -36.5 t178 -13q164 0 270.5 40t168 91t86 100t26.5 70v719h275v-1198q0 -53 -13.5 -119t-48.5 -133.5t-94 -130t-151.5 -111.5t-221.5 -79t-301 -30q-229 0 -388 51.5t-258 136.5t-143 192.5t-44 219.5v5zM622 1270v205h189v-205h-189zM995 1270v205h189v-205h-189z" />
<glyph unicode="&#x2c6;" horiz-adv-x="681" d="M25 1194l217 281h190l225 -281h-202l-111 170l-113 -170h-206z" />
<glyph unicode="&#x2dc;" horiz-adv-x="681" d="M6 1219q0 106 58.5 167.5t146.5 61.5q20 0 55 -13.5t74 -28.5t75 -28.5t58 -13.5q33 0 49.5 17.5t24.5 68.5h129q-2 -117 -56.5 -172t-140.5 -55q-23 0 -59.5 14t-76.5 31.5t-75 32t-53 14.5q-33 0 -54.5 -25.5t-21.5 -70.5h-133z" />
<glyph unicode="&#x2000;" horiz-adv-x="771" />
<glyph unicode="&#x2001;" horiz-adv-x="1542" />
<glyph unicode="&#x2002;" horiz-adv-x="771" />
<glyph unicode="&#x2003;" horiz-adv-x="1542" />
<glyph unicode="&#x2004;" horiz-adv-x="514" />
<glyph unicode="&#x2005;" horiz-adv-x="385" />
<glyph unicode="&#x2006;" horiz-adv-x="257" />
<glyph unicode="&#x2007;" horiz-adv-x="257" />
<glyph unicode="&#x2008;" horiz-adv-x="192" />
<glyph unicode="&#x2009;" horiz-adv-x="308" />
<glyph unicode="&#x200a;" horiz-adv-x="85" />
<glyph unicode="&#x2010;" horiz-adv-x="1011" d="M139 618v160h738v-160h-738z" />
<glyph unicode="&#x2011;" horiz-adv-x="1011" d="M139 618v160h738v-160h-738z" />
<glyph unicode="&#x2012;" horiz-adv-x="1011" d="M139 618v160h738v-160h-738z" />
<glyph unicode="&#x2013;" horiz-adv-x="1228" d="M139 618v160h963v-160h-963z" />
<glyph unicode="&#x2014;" horiz-adv-x="1738" d="M139 618v160h1491v-160h-1491z" />
<glyph unicode="&#x2018;" horiz-adv-x="434" d="M35 1425h207l143 -397h-207z" />
<glyph unicode="&#x2019;" horiz-adv-x="434" d="M35 1028l143 397h207l-143 -397h-207z" />
<glyph unicode="&#x201a;" horiz-adv-x="434" d="M35 -182l143 397h207l-143 -397h-207z" />
<glyph unicode="&#x201c;" horiz-adv-x="741" d="M35 1425h207l143 -397h-207zM340 1425h207l143 -397h-207z" />
<glyph unicode="&#x201d;" horiz-adv-x="741" d="M35 1028l143 397h207l-143 -397h-207zM340 1028l143 397h207l-143 -397h-207z" />
<glyph unicode="&#x201e;" horiz-adv-x="782" d="M35 -182l143 397h207l-143 -397h-207zM371 -182l143 397h207l-143 -397h-207z" />
<glyph unicode="&#x2022;" horiz-adv-x="739" d="M127 719q0 53 20.5 99t55.5 81t81 55.5t99 20.5t99 -20.5t81 -55.5t55.5 -81t20.5 -99t-20.5 -99.5t-55.5 -81t-81 -55t-99 -20.5t-99 20.5t-81 55t-55.5 81t-20.5 99.5z" />
<glyph unicode="&#x2026;" horiz-adv-x="1370" d="M137 0v213h207v-213h-207zM594 0v213h207v-213h-207zM1051 0v213h206v-213h-206z" />
<glyph unicode="&#x202f;" horiz-adv-x="308" />
<glyph unicode="&#x205f;" horiz-adv-x="385" />
<glyph unicode="&#x20ac;" horiz-adv-x="1882" d="M96 479l21 129h217q-14 33 -22.5 59.5t-12.5 49.5h-203l21 129h188q25 141 111 253.5t206.5 191.5t261 122t273.5 43q127 0 223.5 -6t173 -33.5t140 -85t127.5 -162.5l-148 -147q-45 150 -171 220.5t-349 70.5q-125 0 -231.5 -40t-186.5 -104.5t-127 -149.5t-53 -173h707 l-41 -129h-654q12 -51 37 -109h596l-41 -129h-483q80 -123 205 -211t272 -123q57 -14 118.5 0.5t118 45t103.5 70.5t78 77l147 -160q-55 -55 -144 -90t-177 -54.5t-157 -26.5t-87 -7q-145 0 -265 44t-213 113.5t-163 154.5t-117 167h-299z" />
<glyph unicode="&#x2122;" horiz-adv-x="2048" d="M225 1346v120h666v-120h-266v-695h-136v695h-264zM981 651v815h201l207 -651l198 651h197v-815h-125v684l-209 -684h-125l-217 695v-695h-127z" />
<glyph unicode="&#x25fc;" horiz-adv-x="1167" d="M0 0v1167h1167v-1167h-1167z" />
<glyph unicode="&#xfb01;" horiz-adv-x="1552" d="M90 0v911q0 49 49 137.5t153.5 174.5t266.5 149.5t387 63.5v-146q-125 0 -232.5 -33.5t-186 -91t-126 -135.5t-53.5 -166h598v-168h-618v-696h-238zM1118 1315q0 53 52 89t128 36t128 -36t52 -89t-52 -89t-128 -36t-128 36t-52 89zM1165 0v1049q47 -8 75.5 -12.5 t55.5 -4.5t55.5 3t71.5 14v-1049h-258z" />
<glyph unicode="&#xfb02;" horiz-adv-x="1552" d="M90 0v911q0 49 49 137.5t153.5 174.5t266.5 149.5t387 63.5v-146q-125 0 -232.5 -33.5t-186 -91t-126 -135.5t-53.5 -166h598v-168h-618v-696h-238zM1165 0v1534h258v-1534h-258z" />
</font>
</defs>
</svg>
